<?xml version="1.0" encoding="UTF-8"?>
<svg width="500px" height="500px" viewBox="0 0 500 500" version="1.1" xmlns="http://www.w3.org/2000/svg" xmlns:xlink="http://www.w3.org/1999/xlink">
    <!-- Generator: Sketch 40.2 (33826) - http://www.bohemiancoding.com/sketch -->
    <title>bftxcp</title>
    <desc>Created with Sketch.</desc>
    <defs></defs>
    <g id="Page-1" stroke="none" stroke-width="1" fill="none" fill-rule="evenodd">
        <g id="[BFT:XCP]">
            <rect id="Blue-Tile" fill="#5BC0ED" x="0" y="0" width="500" height="500"></rect>
            <polygon id="B-Dot" fill="#FFFFFF" points="440.035055 329.823813 440.035055 394.147336 374.412349 394.147336 374.412349 329.823813 440.035055 329.823813"></polygon>
            <path d="M242.857032,95.8526644 C257.048467,95.8526644 270.019823,97.0839103 281.720847,99.6013102 C293.417218,102.114057 303.437493,106.212626 311.803078,111.923075 C320.155634,117.632594 326.631075,125.233187 331.224748,134.709965 C335.823075,144.170921 338.11805,155.844956 338.11805,169.786047 C338.11805,184.820648 334.714674,197.351809 327.898616,207.389766 C321.04161,217.424932 310.953397,225.632307 297.593961,232.026782 C315.979821,237.350082 329.712447,246.590476 338.727624,259.823344 C347.797709,273.057143 352.323445,289.02053 352.323445,307.683723 C352.323445,322.725769 349.41052,335.73156 343.543722,346.718777 C337.708565,357.77114 329.847391,366.746299 319.932279,373.693578 C310.071144,380.664123 298.779605,385.78082 286.096749,389.125565 C273.445535,392.47031 260.412755,394.147336 247.053319,394.147336 L102.468945,394.147336 L102.468945,95.8535951 L242.857032,95.8535951 L242.857032,95.8526644 Z M234.504476,216.578043 C246.219459,216.578043 255.809776,213.803785 263.330333,208.225487 C270.846238,202.67697 274.61815,193.604094 274.61815,181.058043 C274.61815,174.130307 273.345956,168.401245 270.846238,163.948099 C268.351174,159.512636 264.991538,156.000374 260.835269,153.487628 C256.643635,151.018621 251.83126,149.252254 246.418618,148.275074 C240.965958,147.316508 235.348573,146.813959 229.473399,146.813959 L168.086067,146.813959 L168.086067,216.578043 L234.504476,216.578043 L234.504476,216.578043 Z M238.253122,343.183249 C244.665279,343.183249 250.799173,342.55134 256.638982,341.320094 C262.496474,340.0479 267.651327,337.957667 272.105403,335.030782 C276.53156,332.113204 280.09873,328.155163 282.743628,323.134323 C285.37922,318.104176 286.742618,311.714355 286.742618,303.911811 C286.742618,288.593363 282.416971,277.664776 273.764747,271.093478 C265.149748,264.571505 253.713028,261.295627 239.505772,261.295627 L168.086998,261.295627 L168.086998,343.183249 L238.253122,343.183249 L238.253122,343.183249 Z" id="Blockfreight™" fill="#FFFFFF"></path>
        </g>
    </g>
</svg>