<?xml version="1.0" encoding="utf-8"?>
<!DOCTYPE svg PUBLIC "-//W3C//DTD SVG 1.1//EN" "http://www.w3.org/Graphics/SVG/1.1/DTD/svg11.dtd">
<svg version="1.1" xmlns="http://www.w3.org/2000/svg" xmlns:xlink="http://www.w3.org/1999/xlink" x="0px" y="0px" width="500px"
	 height="500px" viewBox="0 0 500 500" enable-background="new 0 0 500 500" xml:space="preserve">
<g id="Layer_3">
	<g>
		<rect fill="#5BC0ED" width="500" height="500"/>
	</g>
</g>
<g id="Layer_4">
	<g>
		<path fill="#FFFFFF" d="M229.33,105.289c13.579,0,25.99,1.179,37.187,3.587c11.191,2.404,20.78,6.326,28.785,11.79
			c7.991,5.463,14.188,12.736,18.583,21.804c4.399,9.053,6.596,20.223,6.596,33.562c0,14.386-3.258,26.376-9.778,35.98
			c-6.561,9.603-16.215,17.456-28.997,23.574c17.592,5.094,30.732,13.935,39.358,26.597c8.679,12.664,13.009,27.938,13.009,45.797
			c0,14.391-2.787,26.836-8.399,37.35c-5.584,10.574-13.106,19.162-22.593,25.811c-9.436,6.67-20.241,11.566-32.376,14.768
			c-12.105,3.199-24.575,4.803-37.359,4.803H95V105.29L229.33,105.289L229.33,105.289z M221.338,220.805
			c11.209,0,20.386-2.654,27.582-7.992c7.192-5.309,10.801-13.99,10.801-25.995c0-6.628-1.218-12.11-3.608-16.371
			c-2.388-4.244-5.603-7.604-9.58-10.01c-4.011-2.362-8.615-4.052-13.794-4.987c-5.217-0.917-10.592-1.397-16.214-1.397h-58.739
			v66.753H221.338z M224.925,341.947c6.135,0,12.005-0.605,17.592-1.783c5.605-1.217,10.537-3.219,14.799-6.018
			c4.235-2.793,7.647-6.58,10.179-11.383c2.521-4.814,3.827-10.93,3.827-18.395c0-14.656-4.139-25.113-12.418-31.4
			c-8.243-6.242-19.186-9.375-32.781-9.375h-68.337v78.354H224.925z"/>
		<path fill="#FFFFFF" d="M413,329.164v61.547h-62.792v-61.547H413L413,329.164z"/>
	</g>
</g>
</svg>
