<?xml version="1.0" encoding="UTF-8" standalone="no"?>
<svg width="1189px" height="250px" viewBox="0 0 1189 250" version="1.1" xmlns="http://www.w3.org/2000/svg" xmlns:xlink="http://www.w3.org/1999/xlink">
    <!-- Generator: Sketch 39.1 (31720) - http://www.bohemiancoding.com/sketch -->
    <title>Slice 1</title>
    <desc>Created with Sketch.</desc>
    <defs></defs>
    <g id="Page-1" stroke="none" stroke-width="1" fill="none" fill-rule="evenodd">
        <path d="M66.6,32.3 C73.3,32.3 79.5,32.9 85,34.1 C90.6,35.3 95.3,37.2 99.3,40 C103.3,42.7 106.3,46.3 108.5,50.8 C110.7,55.3 111.8,60.8 111.8,67.4 C111.8,74.5 110.2,80.5 106.9,85.3 C103.7,90.1 98.9,94 92.5,97 C101.2,99.5 107.7,103.9 112,110.2 C116.3,116.5 118.4,124.1 118.4,132.9 C118.4,140 117,146.2 114.2,151.4 C111.4,156.6 107.7,160.9 103,164.2 C98.3,167.5 93,169.9 86.9,171.5 C80.9,173.1 74.7,173.9 68.4,173.9 L0,173.9 L0,32.3 L66.6,32.3 L66.6,32.3 Z M62.7,89.6 C68.3,89.6 72.8,88.3 76.4,85.6 C80,83 81.8,78.7 81.8,72.7 C81.8,69.4 81.2,66.7 80,64.6 C78.8,62.5 77.2,60.8 75.2,59.6 C73.2,58.4 70.9,57.6 68.4,57.1 C65.8,56.6 63.1,56.4 60.4,56.4 L31.2,56.4 L31.2,89.5 L62.7,89.5 L62.7,89.6 Z M64.4,149.7 C67.4,149.7 70.3,149.4 73.1,148.8 C75.9,148.2 78.3,147.2 80.4,145.8 C82.5,144.4 84.2,142.5 85.5,140.2 C86.8,137.8 87.4,134.8 87.4,131.1 C87.4,123.8 85.3,118.6 81.2,115.5 C77.1,112.4 71.7,110.8 64.9,110.8 L31,110.8 L31,149.7 L64.4,149.7 L64.4,149.7 Z" id="XMLID_315_" fill="#4A4A4A"></path>
        <polygon id="XMLID_313_" fill="#4A4A4A" points="165.6 32.3 165.6 173.9 137.4 173.9 137.4 32.3"></polygon>
        <path d="M188.4,100.4 C190.9,93.7 194.5,88 199.1,83.3 C203.7,78.6 209.3,75 215.8,72.4 C222.3,69.8 229.5,68.5 237.6,68.5 C245.7,68.5 253,69.8 259.5,72.4 C266,75 271.6,78.6 276.3,83.3 C280.9,88 284.5,93.7 287,100.4 C289.5,107.1 290.8,114.5 290.8,122.7 C290.8,130.9 289.5,138.3 287,144.9 C284.5,151.5 280.9,157.2 276.3,161.9 C271.7,166.6 266.1,170.2 259.5,172.7 C253,175.2 245.6,176.5 237.6,176.5 C229.5,176.5 222.3,175.3 215.8,172.7 C209.3,170.2 203.8,166.6 199.1,161.9 C194.5,157.2 190.9,151.6 188.4,144.9 C185.9,138.3 184.6,130.9 184.6,122.7 C184.6,114.5 185.9,107.1 188.4,100.4 L188.4,100.4 Z M214,134.7 C214.8,138.6 216.1,142.1 218.1,145.2 C220,148.3 222.6,150.8 225.7,152.6 C228.9,154.5 232.8,155.4 237.6,155.4 C242.4,155.4 246.4,154.5 249.6,152.6 C252.8,150.8 255.4,148.3 257.3,145.2 C259.2,142.1 260.6,138.6 261.4,134.7 C262.2,130.8 262.6,126.8 262.6,122.7 C262.6,118.6 262.2,114.6 261.4,110.6 C260.6,106.6 259.2,103.1 257.3,100.1 C255.4,97.1 252.8,94.6 249.6,92.7 C246.4,90.8 242.4,89.8 237.6,89.8 C232.8,89.8 228.9,90.8 225.7,92.7 C222.5,94.6 220,97.1 218.1,100.1 C216.2,103.1 214.8,106.6 214,110.6 C213.2,114.6 212.8,118.6 212.8,122.7 C212.8,126.8 213.2,130.8 214,134.7 L214,134.7 Z" id="XMLID_308_" fill="#4A4A4A"></path>
        <path d="M357.9,89.8 C353.4,89.8 349.6,90.8 346.6,92.9 C343.6,95 341.1,97.6 339.2,100.8 C337.3,104 335.9,107.6 335.1,111.5 C334.3,115.4 333.9,119.3 333.9,123.1 C333.9,126.8 334.3,130.6 335.1,134.4 C335.9,138.2 337.2,141.7 339,144.8 C340.8,147.9 343.2,150.4 346.2,152.4 C349.2,154.4 352.9,155.4 357.3,155.4 C364,155.4 369.2,153.5 372.9,149.7 C376.5,145.9 378.8,140.9 379.7,134.5 L406.9,134.5 C405.1,148.1 399.8,158.5 391,165.6 C382.3,172.7 371.1,176.3 357.5,176.3 C349.8,176.3 342.8,175 336.4,172.4 C330,169.8 324.5,166.2 320.1,161.6 C315.6,157 312.1,151.5 309.6,145 C307.1,138.6 305.8,131.6 305.8,123.9 C305.8,116 307,108.6 309.3,101.8 C311.6,95 315,89.1 319.5,84.1 C324,79.1 329.5,75.3 336,72.5 C342.5,69.7 349.9,68.3 358.2,68.3 C364.3,68.3 370.1,69.1 375.8,70.7 C381.4,72.3 386.4,74.7 390.9,77.9 C395.3,81.1 398.9,85.2 401.7,90 C404.5,94.8 406.1,100.5 406.5,107.2 L378.9,107.2 C376.9,95.7 370,89.8 357.9,89.8 L357.9,89.8 Z" id="XMLID_304_" fill="#4A4A4A"></path>
        <polygon id="XMLID_301_" fill="#4A4A4A" points="453.5 32.3 453.5 108.3 489 71.4 522.3 71.4 483.6 109.1 526.6 173.9 492.5 173.9 464.3 128.1 453.4 138.6 453.4 173.9 425.2 173.9 425.2 32.3"></polygon>
        <path d="M525.9,90.2 L525.9,71.4 L542.8,71.4 L542.8,63.5 C542.8,54.4 545.6,46.9 551.3,41.1 C557,35.3 565.6,32.4 577.1,32.4 C579.6,32.4 582.1,32.5 584.6,32.7 C587.1,32.9 589.5,33.1 591.9,33.2 L591.9,54.2 C588.6,53.8 585.1,53.6 581.6,53.6 C577.8,53.6 575,54.5 573.4,56.3 C571.8,58.1 570.9,61.1 570.9,65.3 L570.9,71.4 L590.3,71.4 L590.3,90.2 L570.9,90.2 L570.9,173.9 L542.7,173.9 L542.7,90.2 L525.9,90.2 L525.9,90.2 Z" id="XMLID_298_" fill="#4A4A4A"></path>
        <path d="M629.4,71.3 L629.4,90.3 L629.8,90.3 C631.1,87.1 632.9,84.2 635.2,81.5 C637.4,78.8 640,76.5 642.9,74.6 C645.8,72.7 648.9,71.2 652.2,70.1 C655.5,69 658.9,68.5 662.5,68.5 C664.3,68.5 666.4,68.8 668.6,69.5 L668.6,95.7 C667.3,95.4 665.7,95.2 663.9,95 C662,94.8 660.3,94.7 658.5,94.7 C653.3,94.7 649,95.6 645.4,97.3 C641.9,99 639,101.4 636.8,104.3 C634.6,107.3 633.1,110.8 632.1,114.7 C631.2,118.7 630.7,123 630.7,127.6 L630.7,173.8 L602.5,173.8 L602.5,71.3 L629.4,71.3 L629.4,71.3 Z" id="XMLID_294_" fill="#4A4A4A"></path>
        <path d="M706.4,149.3 C710.6,153.4 716.7,155.5 724.6,155.5 C730.3,155.5 735.2,154.1 739.3,151.2 C743.4,148.4 745.9,145.3 746.8,142.2 L771.6,142.2 C767.6,154.5 761.5,163.3 753.3,168.6 C745.1,173.9 735.2,176.5 723.6,176.5 C715.5,176.5 708.3,175.2 701.8,172.6 C695.3,170 689.8,166.4 685.3,161.6 C680.8,156.8 677.3,151.2 674.9,144.5 C672.5,137.9 671.2,130.6 671.2,122.7 C671.2,115 672.5,107.9 675,101.3 C677.5,94.7 681.1,89 685.7,84.1 C690.3,79.3 695.9,75.5 702.3,72.7 C708.7,69.9 715.8,68.5 723.6,68.5 C732.3,68.5 739.9,70.2 746.4,73.6 C752.9,77 758.2,81.5 762.4,87.2 C766.6,92.9 769.6,99.4 771.4,106.6 C773.3,113.9 773.9,121.5 773.4,129.4 L699.4,129.4 C699.9,138.6 702.2,145.2 706.4,149.3 L706.4,149.3 Z M738.2,95.3 C734.8,91.6 729.7,89.8 722.8,89.8 C718.3,89.8 714.6,90.6 711.6,92.1 C708.6,93.6 706.2,95.5 704.5,97.8 C702.7,100.1 701.5,102.4 700.7,104.9 C700,107.4 699.5,109.7 699.4,111.7 L745.2,111.7 C743.9,104.5 741.6,99.1 738.2,95.3 L738.2,95.3 Z" id="XMLID_290_" fill="#4A4A4A"></path>
        <path d="M790.9,55.5 L790.9,32.3 L819.1,32.3 L819.1,55.5 L790.9,55.5 L790.9,55.5 Z M819,71.3 L819,173.8 L790.8,173.8 L790.8,71.3 L819,71.3 L819,71.3 Z" id="XMLID_285_" fill="#4A4A4A"></path>
        <path d="M938.1,181.4 C937,186.7 934.6,191.6 930.9,196.2 C927.2,200.8 921.8,204.6 914.8,207.8 C907.8,211 898.4,212.6 886.6,212.6 C881.6,212.6 876.5,212 871.2,210.7 C866,209.4 861.2,207.5 856.9,204.8 C852.6,202.2 849,198.7 846.2,194.6 C843.4,190.4 841.7,185.4 841.3,179.6 L869.3,179.6 C870.6,184.9 873.2,188.6 877,190.6 C880.8,192.6 885.3,193.7 890.3,193.7 C898.2,193.7 904,191.3 907.6,186.6 C911.2,181.8 913,175.8 912.9,168.6 L912.9,155 L912.5,155 C909.5,160.4 905.1,164.4 899.5,167 C893.9,169.6 888,170.9 881.7,170.9 C874,170.9 867.4,169.5 861.9,166.8 C856.4,164.1 851.8,160.4 848.2,155.7 C844.6,151 842,145.5 840.4,139.3 C838.7,133 837.9,126.4 837.9,119.4 C837.9,112.8 838.9,106.4 840.8,100.3 C842.7,94.2 845.5,88.7 849.2,84 C852.9,79.3 857.5,75.6 863,72.8 C868.5,70 874.8,68.6 881.9,68.6 C888.6,68.6 894.6,69.9 899.6,72.4 C904.7,74.9 909,79.1 912.4,85.1 L912.8,85.1 L912.8,71.4 L939.6,71.4 L939.6,167.4 C939.8,171.4 939.2,176.1 938.1,181.4 L938.1,181.4 Z M899.5,147.3 C902.5,145.7 905.1,143.6 907,141 C909,138.3 910.5,135.4 911.5,132 C912.5,128.6 913,125.1 913,121.4 C913,117.2 912.6,113.2 911.8,109.4 C911,105.6 909.7,102.3 907.8,99.4 C905.9,96.5 903.5,94.2 900.5,92.5 C897.5,90.8 893.6,89.9 889,89.9 C885,89.9 881.6,90.7 878.8,92.3 C875.9,93.9 873.6,96 871.7,98.7 C869.8,101.4 868.4,104.5 867.5,108 C866.6,111.5 866.2,115.2 866.2,119 C866.2,122.7 866.6,126.4 867.3,130 C868,133.6 869.3,136.9 871.1,139.8 C872.9,142.7 875.2,145.1 878.1,146.9 C881,148.8 884.6,149.7 889,149.7 C893,149.7 896.5,148.9 899.5,147.3 L899.5,147.3 Z" id="XMLID_280_" fill="#4A4A4A"></path>
        <path d="M990.6,32.3 L990.6,85.6 L991.2,85.6 C994.8,79.6 999.3,75.3 1004.9,72.6 C1010.5,69.9 1015.9,68.5 1021.2,68.5 C1028.7,68.5 1034.9,69.5 1039.7,71.6 C1044.5,73.7 1048.3,76.5 1051.1,80.1 C1053.9,83.7 1055.8,88.2 1056.9,93.4 C1058,98.6 1058.6,104.4 1058.6,110.8 L1058.6,173.9 L1030.4,173.9 L1030.4,116 C1030.4,107.5 1029.1,101.2 1026.4,97.1 C1023.8,92.9 1019.1,90.9 1012.3,90.9 C1004.6,90.9 999.1,93.2 995.6,97.7 C992.1,102.3 990.4,109.8 990.4,120.2 L990.4,173.9 L962.2,173.9 L962.2,32.3 L990.6,32.3 L990.6,32.3 Z" id="XMLID_278_" fill="#4A4A4A"></path>
        <path d="M1136.3,71.3 L1136.3,90.1 L1115.7,90.1 L1115.7,141 C1115.7,145.8 1116.5,148.9 1118.1,150.5 C1119.7,152.1 1122.9,152.9 1127.6,152.9 C1129.2,152.9 1130.7,152.8 1132.2,152.7 C1133.7,152.6 1135.1,152.4 1136.4,152.1 L1136.4,173.9 C1134,174.3 1131.4,174.6 1128.5,174.7 C1125.6,174.8 1122.8,174.9 1120,174.9 C1115.6,174.9 1111.5,174.6 1107.6,174 C1103.7,173.4 1100.3,172.3 1097.3,170.5 C1094.3,168.8 1092,166.3 1090.3,163.2 C1088.6,160 1087.7,155.9 1087.7,150.7 L1087.7,90.2 L1070.6,90.2 L1070.6,71.4 L1087.7,71.4 L1087.7,40.7 L1115.9,40.7 L1115.9,71.4 L1136.3,71.4 L1136.3,71.3 Z" id="XMLID_274_" fill="#4A4A4A"></path>
        <polygon id="XMLID_271_" fill="#4A4A4A" points="1182.1 143.3 1182.1 173.8 1151 173.8 1151 143.3"></polygon>
        <path d="M1155.9,4.1 L1155.9,20.7 L1150.8,20.7 L1150.8,4.1 L1144.9,4.1 L1144.9,0.1 L1161.7,0.1 L1161.7,4.1 L1155.9,4.1 L1155.9,4.1 Z M1183.5,20.7 L1183.5,6.1 L1183.4,6.1 L1178.1,20.7 L1174.6,20.7 L1169.3,6.1 L1169.2,6.1 L1169.2,20.7 L1164.4,20.7 L1164.4,0.1 L1171.2,0.1 L1176.3,13.6 L1181.4,0.1 L1188.2,0.1 L1188.2,20.7 L1183.5,20.7 L1183.5,20.7 Z" id="XMLID_265_" fill="#4A4A4A"></path>
        <path d="M6.447,220.495 L16.035,220.495 C17.4450071,220.495 18.6199953,220.095504 19.56,219.2965 C20.5000047,218.497496 20.97,217.346008 20.97,215.842 C20.97,214.149992 20.5470042,212.959337 19.701,212.27 C18.8549958,211.580663 17.633008,211.236 16.035,211.236 L6.447,211.236 L6.447,220.495 Z M0.572,206.442 L16.881,206.442 C19.889015,206.442 22.3016576,207.131326 24.119,208.51 C25.9363424,209.888674 26.845,211.972319 26.845,214.761 C26.845,216.453008 26.4298375,217.902161 25.5995,219.1085 C24.7691625,220.314839 23.586341,221.246997 22.051,221.905 L22.051,221.999 C24.1190103,222.437669 25.6856613,223.416826 26.751,224.9365 C27.8163387,226.456174 28.349,228.359655 28.349,230.647 C28.349,231.963007 28.1140023,233.192828 27.644,234.3365 C27.1739977,235.480172 26.4376717,236.467163 25.435,237.2975 C24.4323283,238.127837 23.1476745,238.785831 21.581,239.2715 C20.0143255,239.757169 18.1500108,240 15.988,240 L0.572,240 L0.572,206.442 Z M6.447,235.206 L16.834,235.206 C18.6200089,235.206 20.0064951,234.743838 20.9935,233.8195 C21.9805049,232.895162 22.474,231.587008 22.474,229.895 C22.474,228.234325 21.9805049,226.957504 20.9935,226.0645 C20.0064951,225.171496 18.6200089,224.725 16.834,224.725 L6.447,224.725 L6.447,235.206 Z M33.049,206.442 L38.407,206.442 L38.407,240 L33.049,240 L33.049,206.442 Z M55.374,240.658 C53.4313236,240.658 51.7001743,240.336837 50.1805,239.6945 C48.6608257,239.052163 47.3761719,238.167006 46.3265,237.039 C45.2768281,235.910994 44.4778361,234.563674 43.9295,232.997 C43.3811639,231.430325 43.107,229.707009 43.107,227.827 C43.107,225.978324 43.3811639,224.270674 43.9295,222.704 C44.4778361,221.137325 45.2768281,219.790006 46.3265,218.662 C47.3761719,217.533994 48.6608257,216.648837 50.1805,216.0065 C51.7001743,215.364163 53.4313236,215.043 55.374,215.043 C57.3166764,215.043 59.0478257,215.364163 60.5675,216.0065 C62.0871743,216.648837 63.3718281,217.533994 64.4215,218.662 C65.4711719,219.790006 66.2701639,221.137325 66.8185,222.704 C67.3668361,224.270674 67.641,225.978324 67.641,227.827 C67.641,229.707009 67.3668361,231.430325 66.8185,232.997 C66.2701639,234.563674 65.4711719,235.910994 64.4215,237.039 C63.3718281,238.167006 62.0871743,239.052163 60.5675,239.6945 C59.0478257,240.336837 57.3166764,240.658 55.374,240.658 L55.374,240.658 Z M55.374,236.428 C56.5646726,236.428 57.5986623,236.177336 58.476,235.676 C59.3533377,235.174664 60.0739972,234.516671 60.638,233.702 C61.2020028,232.887329 61.6171653,231.970838 61.8835,230.9525 C62.1498347,229.934162 62.283,228.892339 62.283,227.827 C62.283,226.792995 62.1498347,225.759005 61.8835,224.725 C61.6171653,223.690995 61.2020028,222.774504 60.638,221.9755 C60.0739972,221.176496 59.3533377,220.526336 58.476,220.025 C57.5986623,219.523664 56.5646726,219.273 55.374,219.273 C54.1833274,219.273 53.1493377,219.523664 52.272,220.025 C51.3946623,220.526336 50.6740028,221.176496 50.11,221.9755 C49.5459972,222.774504 49.1308347,223.690995 48.8645,224.725 C48.5981653,225.759005 48.465,226.792995 48.465,227.827 C48.465,228.892339 48.5981653,229.934162 48.8645,230.9525 C49.1308347,231.970838 49.5459972,232.887329 50.11,233.702 C50.6740028,234.516671 51.3946623,235.174664 52.272,235.676 C53.1493377,236.177336 54.1833274,236.428 55.374,236.428 L55.374,236.428 Z M88.509,223.832 C88.2896656,222.327992 87.6865049,221.192171 86.6995,220.4245 C85.7124951,219.656829 84.4670075,219.273 82.963,219.273 C82.2736632,219.273 81.5373373,219.390499 80.754,219.6255 C79.9706628,219.860501 79.2500033,220.299163 78.592,220.9415 C77.9339967,221.583837 77.3856689,222.476828 76.947,223.6205 C76.5083311,224.764172 76.289,226.260324 76.289,228.109 C76.289,229.111672 76.4064988,230.114328 76.6415,231.117 C76.8765012,232.119672 77.2524974,233.012663 77.7695,233.796 C78.2865026,234.579337 78.9523293,235.213831 79.767,235.6995 C80.5816707,236.185169 81.5686609,236.428 82.728,236.428 C84.2946745,236.428 85.5871616,235.942338 86.6055,234.971 C87.6238384,233.999662 88.2583321,232.636675 88.509,230.882 L93.867,230.882 C93.3656642,234.046682 92.1671761,236.467158 90.2715,238.1435 C88.3758239,239.819842 85.861349,240.658 82.728,240.658 C80.8166571,240.658 79.1325073,240.336837 77.6755,239.6945 C76.2184927,239.052163 74.9886717,238.174839 73.986,237.0625 C72.9833283,235.950161 72.2235026,234.626341 71.7065,233.091 C71.1894974,231.555659 70.931,229.895009 70.931,228.109 C70.931,226.291658 71.1816642,224.584008 71.683,222.986 C72.1843358,221.387992 72.9363283,220.001506 73.939,218.8265 C74.9416717,217.651494 76.1871592,216.72717 77.6755,216.0535 C79.1638408,215.37983 80.9106566,215.043 82.916,215.043 C84.3260071,215.043 85.6654937,215.223165 86.9345,215.5835 C88.2035063,215.943835 89.3314951,216.48433 90.3185,217.205 C91.3055049,217.92567 92.1123302,218.834328 92.739,219.931 C93.3656698,221.027672 93.741666,222.327992 93.867,223.832 L88.509,223.832 Z M98.379,206.442 L103.737,206.442 L103.737,225.524 L113.419,215.701 L119.999,215.701 L110.693,224.631 L120.892,240 L114.359,240 L106.933,228.203 L103.737,231.305 L103.737,240 L98.379,240 L98.379,206.442 Z M139.88,223.832 C139.660666,222.327992 139.057505,221.192171 138.0705,220.4245 C137.083495,219.656829 135.838008,219.273 134.334,219.273 C133.644663,219.273 132.908337,219.390499 132.125,219.6255 C131.341663,219.860501 130.621003,220.299163 129.963,220.9415 C129.304997,221.583837 128.756669,222.476828 128.318,223.6205 C127.879331,224.764172 127.66,226.260324 127.66,228.109 C127.66,229.111672 127.777499,230.114328 128.0125,231.117 C128.247501,232.119672 128.623497,233.012663 129.1405,233.796 C129.657503,234.579337 130.323329,235.213831 131.138,235.6995 C131.952671,236.185169 132.939661,236.428 134.099,236.428 C135.665675,236.428 136.958162,235.942338 137.9765,234.971 C138.994838,233.999662 139.629332,232.636675 139.88,230.882 L145.238,230.882 C144.736664,234.046682 143.538176,236.467158 141.6425,238.1435 C139.746824,239.819842 137.232349,240.658 134.099,240.658 C132.187657,240.658 130.503507,240.336837 129.0465,239.6945 C127.589493,239.052163 126.359672,238.174839 125.357,237.0625 C124.354328,235.950161 123.594503,234.626341 123.0775,233.091 C122.560497,231.555659 122.302,229.895009 122.302,228.109 C122.302,226.291658 122.552664,224.584008 123.054,222.986 C123.555336,221.387992 124.307328,220.001506 125.31,218.8265 C126.312672,217.651494 127.558159,216.72717 129.0465,216.0535 C130.534841,215.37983 132.281657,215.043 134.287,215.043 C135.697007,215.043 137.036494,215.223165 138.3055,215.5835 C139.574506,215.943835 140.702495,216.48433 141.6895,217.205 C142.676505,217.92567 143.48333,218.834328 144.11,219.931 C144.73667,221.027672 145.112666,222.327992 145.238,223.832 L139.88,223.832 Z M149.609,206.442 L154.967,206.442 L154.967,218.897 L155.061,218.897 C155.719003,217.800328 156.69816,216.883837 157.9985,216.1475 C159.29884,215.411163 160.747992,215.043 162.346,215.043 C165.009347,215.043 167.108659,215.732326 168.644,217.111 C170.179341,218.489674 170.947,220.557653 170.947,223.315 L170.947,240 L165.589,240 L165.589,224.725 C165.526333,222.813657 165.119004,221.427171 164.367,220.5655 C163.614996,219.703829 162.440008,219.273 160.842,219.273 C159.933329,219.273 159.11867,219.437498 158.398,219.7665 C157.67733,220.095502 157.066336,220.54983 156.565,221.1295 C156.063664,221.70917 155.672001,222.390663 155.39,223.174 C155.107999,223.957337 154.967,224.787662 154.967,225.665 L154.967,240 L149.609,240 L149.609,206.442 Z M196.938,234.595 C196.938,235.253003 197.024166,235.722999 197.1965,236.005 C197.368834,236.287001 197.705664,236.428 198.207,236.428 L198.771,236.428 C198.990334,236.428 199.240999,236.396667 199.523,236.334 L199.523,240.047 C199.334999,240.109667 199.092168,240.180166 198.7945,240.2585 C198.496832,240.336834 198.191335,240.407333 197.878,240.47 C197.564665,240.532667 197.251335,240.579667 196.938,240.611 C196.624665,240.642333 196.358334,240.658 196.139,240.658 C195.042328,240.658 194.13367,240.438669 193.413,240 C192.69233,239.561331 192.222334,238.793672 192.003,237.697 C190.937661,238.731005 189.629508,239.482998 188.0785,239.953 C186.527492,240.423002 185.031341,240.658 183.59,240.658 C182.493328,240.658 181.443672,240.509168 180.441,240.2115 C179.438328,239.913832 178.553171,239.47517 177.7855,238.8955 C177.017829,238.31583 176.406836,237.579504 175.9525,236.6865 C175.498164,235.793496 175.271,234.751673 175.271,233.561 C175.271,232.056992 175.545164,230.835005 176.0935,229.895 C176.641836,228.954995 177.362496,228.218669 178.2555,227.686 C179.148504,227.153331 180.151161,226.769501 181.2635,226.5345 C182.375839,226.299499 183.495994,226.119334 184.624,225.994 C185.595338,225.805999 186.519662,225.672834 187.397,225.5945 C188.274338,225.516166 189.04983,225.383001 189.7235,225.195 C190.39717,225.006999 190.929831,224.717169 191.3215,224.3255 C191.713169,223.933831 191.909,223.346337 191.909,222.563 C191.909,221.873663 191.744502,221.309669 191.4155,220.871 C191.086498,220.432331 190.679169,220.095501 190.1935,219.8605 C189.707831,219.625499 189.167336,219.468834 188.572,219.3905 C187.976664,219.312166 187.412669,219.273 186.88,219.273 C185.375992,219.273 184.138338,219.58633 183.167,220.213 C182.195662,220.83967 181.647334,221.810993 181.522,223.127 L176.164,223.127 C176.258,221.560325 176.633997,220.260005 177.292,219.226 C177.950003,218.191995 178.788162,217.36167 179.8065,216.735 C180.824838,216.10833 181.976327,215.669668 183.261,215.419 C184.545673,215.168332 185.86166,215.043 187.209,215.043 C188.399673,215.043 189.574661,215.168332 190.734,215.419 C191.893339,215.669668 192.935162,216.076997 193.8595,216.641 C194.783838,217.205003 195.527997,217.933496 196.092,218.8265 C196.656003,219.719504 196.938,220.808327 196.938,222.093 L196.938,234.595 Z M191.58,227.827 C190.765329,228.359669 189.762673,228.680833 188.572,228.7905 C187.381327,228.900167 186.190673,229.064666 185,229.284 C184.435997,229.378 183.887669,229.511166 183.355,229.6835 C182.822331,229.855834 182.352335,230.090832 181.945,230.3885 C181.537665,230.686168 181.216501,231.077831 180.9815,231.5635 C180.746499,232.049169 180.629,232.636663 180.629,233.326 C180.629,233.921336 180.801332,234.422665 181.146,234.83 C181.490668,235.237335 181.905831,235.558499 182.3915,235.7935 C182.877169,236.028501 183.40983,236.193 183.9895,236.287 C184.56917,236.381 185.093998,236.428 185.564,236.428 C186.159336,236.428 186.801663,236.349667 187.491,236.193 C188.180337,236.036333 188.830497,235.770002 189.4415,235.394 C190.052503,235.017998 190.561665,234.54017 190.969,233.9605 C191.376335,233.38083 191.58,232.668004 191.58,231.822 L191.58,227.827 Z M202.86,206.442 L208.218,206.442 L208.218,211.518 L202.86,211.518 L202.86,206.442 Z M202.86,215.701 L208.218,215.701 L208.218,240 L202.86,240 L202.86,215.701 Z M214.046,215.701 L219.122,215.701 L219.122,219.273 L219.216,219.367 C220.030671,218.01966 221.095993,216.962171 222.412,216.1945 C223.728007,215.426829 225.184992,215.043 226.783,215.043 C229.446347,215.043 231.545659,215.732326 233.081,217.111 C234.616341,218.489674 235.384,220.557653 235.384,223.315 L235.384,240 L230.026,240 L230.026,224.725 C229.963333,222.813657 229.556004,221.427171 228.804,220.5655 C228.051996,219.703829 226.877008,219.273 225.279,219.273 C224.370329,219.273 223.55567,219.437498 222.835,219.7665 C222.11433,220.095502 221.503336,220.54983 221.002,221.1295 C220.500664,221.70917 220.109001,222.390663 219.827,223.174 C219.544999,223.957337 219.404,224.787662 219.404,225.665 L219.404,240 L214.046,240 L214.046,215.701 Z M258.132,232.198 C258.288667,233.764675 258.883995,234.86133 259.918,235.488 C260.952005,236.11467 262.189659,236.428 263.631,236.428 C264.132336,236.428 264.704163,236.388834 265.3465,236.3105 C265.988837,236.232166 266.591997,236.083334 267.156,235.864 C267.720003,235.644666 268.182165,235.323502 268.5425,234.9005 C268.902835,234.477498 269.067333,233.921337 269.036,233.232 C269.004667,232.542663 268.754002,231.978669 268.284,231.54 C267.813998,231.101331 267.210837,230.748835 266.4745,230.4825 C265.738163,230.216165 264.900005,229.989001 263.96,229.801 C263.019995,229.612999 262.064338,229.409334 261.093,229.19 C260.090328,228.970666 259.126838,228.704335 258.2025,228.391 C257.278162,228.077665 256.447837,227.654669 255.7115,227.122 C254.975163,226.589331 254.387669,225.907837 253.949,225.0775 C253.510331,224.247163 253.291,223.221006 253.291,221.999 C253.291,220.682993 253.612163,219.578504 254.2545,218.6855 C254.896837,217.792496 255.711495,217.071836 256.6985,216.5235 C257.685505,215.975164 258.782161,215.591334 259.9885,215.372 C261.194839,215.152666 262.346328,215.043 263.443,215.043 C264.69634,215.043 265.894828,215.176165 267.0385,215.4425 C268.182172,215.708835 269.216162,216.139664 270.1405,216.735 C271.064838,217.330336 271.832497,218.105829 272.4435,219.0615 C273.054503,220.017171 273.438333,221.16866 273.595,222.516 L268.002,222.516 C267.751332,221.231327 267.163838,220.369669 266.2395,219.931 C265.315162,219.492331 264.257673,219.273 263.067,219.273 C262.690998,219.273 262.244503,219.304333 261.7275,219.367 C261.210497,219.429667 260.724836,219.547166 260.2705,219.7195 C259.816164,219.891834 259.432335,220.142498 259.119,220.4715 C258.805665,220.800502 258.649,221.231331 258.649,221.764 C258.649,222.422003 258.876164,222.954665 259.3305,223.362 C259.784836,223.769335 260.380163,224.106165 261.1165,224.3725 C261.852837,224.638835 262.690995,224.865999 263.631,225.054 C264.571005,225.242001 265.542328,225.445666 266.545,225.665 C267.516338,225.884334 268.471995,226.150665 269.412,226.464 C270.352005,226.777335 271.190163,227.200331 271.9265,227.733 C272.662837,228.265669 273.258164,228.939329 273.7125,229.754 C274.166836,230.568671 274.394,231.571327 274.394,232.762 C274.394,234.203341 274.065003,235.425328 273.407,236.428 C272.748997,237.430672 271.895172,238.24533 270.8455,238.872 C269.795828,239.49867 268.628673,239.952999 267.344,240.235 C266.059327,240.517001 264.79034,240.658 263.537,240.658 C262.001659,240.658 260.58384,240.485668 259.2835,240.141 C257.98316,239.796332 256.855171,239.271504 255.8995,238.5665 C254.943829,237.861496 254.191836,236.984172 253.6435,235.9345 C253.095164,234.884828 252.805333,233.639341 252.774,232.198 L258.132,232.198 Z M289.622,240.658 C287.679324,240.658 285.948174,240.336837 284.4285,239.6945 C282.908826,239.052163 281.624172,238.167006 280.5745,237.039 C279.524828,235.910994 278.725836,234.563674 278.1775,232.997 C277.629164,231.430325 277.355,229.707009 277.355,227.827 C277.355,225.978324 277.629164,224.270674 278.1775,222.704 C278.725836,221.137325 279.524828,219.790006 280.5745,218.662 C281.624172,217.533994 282.908826,216.648837 284.4285,216.0065 C285.948174,215.364163 287.679324,215.043 289.622,215.043 C291.564676,215.043 293.295826,215.364163 294.8155,216.0065 C296.335174,216.648837 297.619828,217.533994 298.6695,218.662 C299.719172,219.790006 300.518164,221.137325 301.0665,222.704 C301.614836,224.270674 301.889,225.978324 301.889,227.827 C301.889,229.707009 301.614836,231.430325 301.0665,232.997 C300.518164,234.563674 299.719172,235.910994 298.6695,237.039 C297.619828,238.167006 296.335174,239.052163 294.8155,239.6945 C293.295826,240.336837 291.564676,240.658 289.622,240.658 L289.622,240.658 Z M289.622,236.428 C290.812673,236.428 291.846662,236.177336 292.724,235.676 C293.601338,235.174664 294.321997,234.516671 294.886,233.702 C295.450003,232.887329 295.865165,231.970838 296.1315,230.9525 C296.397835,229.934162 296.531,228.892339 296.531,227.827 C296.531,226.792995 296.397835,225.759005 296.1315,224.725 C295.865165,223.690995 295.450003,222.774504 294.886,221.9755 C294.321997,221.176496 293.601338,220.526336 292.724,220.025 C291.846662,219.523664 290.812673,219.273 289.622,219.273 C288.431327,219.273 287.397338,219.523664 286.52,220.025 C285.642662,220.526336 284.922003,221.176496 284.358,221.9755 C283.793997,222.774504 283.378835,223.690995 283.1125,224.725 C282.846165,225.759005 282.713,226.792995 282.713,227.827 C282.713,228.892339 282.846165,229.934162 283.1125,230.9525 C283.378835,231.970838 283.793997,232.887329 284.358,233.702 C284.922003,234.516671 285.642662,235.174664 286.52,235.676 C287.397338,236.177336 288.431327,236.428 289.622,236.428 L289.622,236.428 Z M306.495,206.442 L311.853,206.442 L311.853,240 L306.495,240 L306.495,206.442 Z M339.019,240 L333.755,240 L333.755,236.616 L333.661,236.616 C333.002997,237.838006 332.02384,238.817163 330.7235,239.5535 C329.42316,240.289837 328.09934,240.658 326.752,240.658 C323.555984,240.658 321.245174,239.866841 319.8195,238.2845 C318.393826,236.702159 317.681,234.313016 317.681,231.117 L317.681,215.701 L323.039,215.701 L323.039,230.6 C323.039,232.730677 323.446329,234.234662 324.261,235.112 C325.075671,235.989338 326.219326,236.428 327.692,236.428 C328.820006,236.428 329.759996,236.255668 330.512,235.911 C331.264004,235.566332 331.874998,235.10417 332.345,234.5245 C332.815002,233.94483 333.151832,233.247671 333.3555,232.433 C333.559168,231.618329 333.661,230.741005 333.661,229.801 L333.661,215.701 L339.019,215.701 L339.019,240 Z M342.215,215.701 L346.257,215.701 L346.257,208.416 L351.615,208.416 L351.615,215.701 L356.456,215.701 L356.456,219.696 L351.615,219.696 L351.615,232.668 C351.615,233.232003 351.6385,233.717665 351.6855,234.125 C351.7325,234.532335 351.842166,234.876999 352.0145,235.159 C352.186834,235.441001 352.445332,235.652499 352.79,235.7935 C353.134668,235.934501 353.604664,236.005 354.2,236.005 C354.576002,236.005 354.951998,235.997167 355.328,235.9815 C355.704002,235.965833 356.079998,235.911 356.456,235.817 L356.456,239.953 C355.860664,240.015667 355.281003,240.078333 354.717,240.141 C354.152997,240.203667 353.573336,240.235 352.978,240.235 C351.567993,240.235 350.432171,240.101835 349.5705,239.8355 C348.708829,239.569165 348.035169,239.177503 347.5495,238.6605 C347.063831,238.143497 346.734834,237.493337 346.5625,236.71 C346.390166,235.926663 346.288333,235.033672 346.257,234.031 L346.257,219.696 L342.215,219.696 L342.215,215.701 Z M360.451,206.442 L365.809,206.442 L365.809,211.518 L360.451,211.518 L360.451,206.442 Z M360.451,215.701 L365.809,215.701 L365.809,240 L360.451,240 L360.451,215.701 Z M382.776,240.658 C380.833324,240.658 379.102174,240.336837 377.5825,239.6945 C376.062826,239.052163 374.778172,238.167006 373.7285,237.039 C372.678828,235.910994 371.879836,234.563674 371.3315,232.997 C370.783164,231.430325 370.509,229.707009 370.509,227.827 C370.509,225.978324 370.783164,224.270674 371.3315,222.704 C371.879836,221.137325 372.678828,219.790006 373.7285,218.662 C374.778172,217.533994 376.062826,216.648837 377.5825,216.0065 C379.102174,215.364163 380.833324,215.043 382.776,215.043 C384.718676,215.043 386.449826,215.364163 387.9695,216.0065 C389.489174,216.648837 390.773828,217.533994 391.8235,218.662 C392.873172,219.790006 393.672164,221.137325 394.2205,222.704 C394.768836,224.270674 395.043,225.978324 395.043,227.827 C395.043,229.707009 394.768836,231.430325 394.2205,232.997 C393.672164,234.563674 392.873172,235.910994 391.8235,237.039 C390.773828,238.167006 389.489174,239.052163 387.9695,239.6945 C386.449826,240.336837 384.718676,240.658 382.776,240.658 L382.776,240.658 Z M382.776,236.428 C383.966673,236.428 385.000662,236.177336 385.878,235.676 C386.755338,235.174664 387.475997,234.516671 388.04,233.702 C388.604003,232.887329 389.019165,231.970838 389.2855,230.9525 C389.551835,229.934162 389.685,228.892339 389.685,227.827 C389.685,226.792995 389.551835,225.759005 389.2855,224.725 C389.019165,223.690995 388.604003,222.774504 388.04,221.9755 C387.475997,221.176496 386.755338,220.526336 385.878,220.025 C385.000662,219.523664 383.966673,219.273 382.776,219.273 C381.585327,219.273 380.551338,219.523664 379.674,220.025 C378.796662,220.526336 378.076003,221.176496 377.512,221.9755 C376.947997,222.774504 376.532835,223.690995 376.2665,224.725 C376.000165,225.759005 375.867,226.792995 375.867,227.827 C375.867,228.892339 376.000165,229.934162 376.2665,230.9525 C376.532835,231.970838 376.947997,232.887329 377.512,233.702 C378.076003,234.516671 378.796662,235.174664 379.674,235.676 C380.551338,236.177336 381.585327,236.428 382.776,236.428 L382.776,236.428 Z M399.508,215.701 L404.584,215.701 L404.584,219.273 L404.678,219.367 C405.492671,218.01966 406.557993,216.962171 407.874,216.1945 C409.190007,215.426829 410.646992,215.043 412.245,215.043 C414.908347,215.043 417.007659,215.732326 418.543,217.111 C420.078341,218.489674 420.846,220.557653 420.846,223.315 L420.846,240 L415.488,240 L415.488,224.725 C415.425333,222.813657 415.018004,221.427171 414.266,220.5655 C413.513996,219.703829 412.339008,219.273 410.741,219.273 C409.832329,219.273 409.01767,219.437498 408.297,219.7665 C407.57633,220.095502 406.965336,220.54983 406.464,221.1295 C405.962664,221.70917 405.571001,222.390663 405.289,223.174 C405.006999,223.957337 404.866,224.787662 404.866,225.665 L404.866,240 L399.508,240 L399.508,215.701 Z M430.528,232.198 C430.684667,233.764675 431.279995,234.86133 432.314,235.488 C433.348005,236.11467 434.585659,236.428 436.027,236.428 C436.528336,236.428 437.100163,236.388834 437.7425,236.3105 C438.384837,236.232166 438.987997,236.083334 439.552,235.864 C440.116003,235.644666 440.578165,235.323502 440.9385,234.9005 C441.298835,234.477498 441.463333,233.921337 441.432,233.232 C441.400667,232.542663 441.150002,231.978669 440.68,231.54 C440.209998,231.101331 439.606837,230.748835 438.8705,230.4825 C438.134163,230.216165 437.296005,229.989001 436.356,229.801 C435.415995,229.612999 434.460338,229.409334 433.489,229.19 C432.486328,228.970666 431.522838,228.704335 430.5985,228.391 C429.674162,228.077665 428.843837,227.654669 428.1075,227.122 C427.371163,226.589331 426.783669,225.907837 426.345,225.0775 C425.906331,224.247163 425.687,223.221006 425.687,221.999 C425.687,220.682993 426.008163,219.578504 426.6505,218.6855 C427.292837,217.792496 428.107495,217.071836 429.0945,216.5235 C430.081505,215.975164 431.178161,215.591334 432.3845,215.372 C433.590839,215.152666 434.742328,215.043 435.839,215.043 C437.09234,215.043 438.290828,215.176165 439.4345,215.4425 C440.578172,215.708835 441.612162,216.139664 442.5365,216.735 C443.460838,217.330336 444.228497,218.105829 444.8395,219.0615 C445.450503,220.017171 445.834333,221.16866 445.991,222.516 L440.398,222.516 C440.147332,221.231327 439.559838,220.369669 438.6355,219.931 C437.711162,219.492331 436.653673,219.273 435.463,219.273 C435.086998,219.273 434.640503,219.304333 434.1235,219.367 C433.606497,219.429667 433.120836,219.547166 432.6665,219.7195 C432.212164,219.891834 431.828335,220.142498 431.515,220.4715 C431.201665,220.800502 431.045,221.231331 431.045,221.764 C431.045,222.422003 431.272164,222.954665 431.7265,223.362 C432.180836,223.769335 432.776163,224.106165 433.5125,224.3725 C434.248837,224.638835 435.086995,224.865999 436.027,225.054 C436.967005,225.242001 437.938328,225.445666 438.941,225.665 C439.912338,225.884334 440.867995,226.150665 441.808,226.464 C442.748005,226.777335 443.586163,227.200331 444.3225,227.733 C445.058837,228.265669 445.654164,228.939329 446.1085,229.754 C446.562836,230.568671 446.79,231.571327 446.79,232.762 C446.79,234.203341 446.461003,235.425328 445.803,236.428 C445.144997,237.430672 444.291172,238.24533 443.2415,238.872 C442.191828,239.49867 441.024673,239.952999 439.74,240.235 C438.455327,240.517001 437.18634,240.658 435.933,240.658 C434.397659,240.658 432.97984,240.485668 431.6795,240.141 C430.37916,239.796332 429.251171,239.271504 428.2955,238.5665 C427.339829,237.861496 426.587836,236.984172 426.0395,235.9345 C425.491164,234.884828 425.201333,233.639341 425.17,232.198 L430.528,232.198 Z M461.548,215.701 L465.543,215.701 L465.543,213.68 C465.543,212.144659 465.730998,210.899171 466.107,209.9435 C466.483002,208.987829 466.98433,208.251503 467.611,207.7345 C468.23767,207.217497 468.950496,206.872834 469.7495,206.7005 C470.548504,206.528166 471.386662,206.442 472.264,206.442 C473.987342,206.442 475.240663,206.551666 476.024,206.771 L476.024,210.954 C475.679332,210.86 475.311169,210.7895 474.9195,210.7425 C474.527831,210.6955 474.065669,210.672 473.533,210.672 C472.81233,210.672 472.193503,210.844332 471.6765,211.189 C471.159497,211.533668 470.901,212.207328 470.901,213.21 L470.901,215.701 L475.46,215.701 L475.46,219.696 L470.901,219.696 L470.901,240 L465.543,240 L465.543,219.696 L461.548,219.696 L461.548,215.701 Z M489.889,240.658 C487.946324,240.658 486.215174,240.336837 484.6955,239.6945 C483.175826,239.052163 481.891172,238.167006 480.8415,237.039 C479.791828,235.910994 478.992836,234.563674 478.4445,232.997 C477.896164,231.430325 477.622,229.707009 477.622,227.827 C477.622,225.978324 477.896164,224.270674 478.4445,222.704 C478.992836,221.137325 479.791828,219.790006 480.8415,218.662 C481.891172,217.533994 483.175826,216.648837 484.6955,216.0065 C486.215174,215.364163 487.946324,215.043 489.889,215.043 C491.831676,215.043 493.562826,215.364163 495.0825,216.0065 C496.602174,216.648837 497.886828,217.533994 498.9365,218.662 C499.986172,219.790006 500.785164,221.137325 501.3335,222.704 C501.881836,224.270674 502.156,225.978324 502.156,227.827 C502.156,229.707009 501.881836,231.430325 501.3335,232.997 C500.785164,234.563674 499.986172,235.910994 498.9365,237.039 C497.886828,238.167006 496.602174,239.052163 495.0825,239.6945 C493.562826,240.336837 491.831676,240.658 489.889,240.658 L489.889,240.658 Z M489.889,236.428 C491.079673,236.428 492.113662,236.177336 492.991,235.676 C493.868338,235.174664 494.588997,234.516671 495.153,233.702 C495.717003,232.887329 496.132165,231.970838 496.3985,230.9525 C496.664835,229.934162 496.798,228.892339 496.798,227.827 C496.798,226.792995 496.664835,225.759005 496.3985,224.725 C496.132165,223.690995 495.717003,222.774504 495.153,221.9755 C494.588997,221.176496 493.868338,220.526336 492.991,220.025 C492.113662,219.523664 491.079673,219.273 489.889,219.273 C488.698327,219.273 487.664338,219.523664 486.787,220.025 C485.909662,220.526336 485.189003,221.176496 484.625,221.9755 C484.060997,222.774504 483.645835,223.690995 483.3795,224.725 C483.113165,225.759005 482.98,226.792995 482.98,227.827 C482.98,228.892339 483.113165,229.934162 483.3795,230.9525 C483.645835,231.970838 484.060997,232.887329 484.625,233.702 C485.189003,234.516671 485.909662,235.174664 486.787,235.676 C487.664338,236.177336 488.698327,236.428 489.889,236.428 L489.889,236.428 Z M506.621,215.701 L511.65,215.701 L511.65,220.401 L511.744,220.401 C511.900667,219.742997 512.206164,219.10067 512.6605,218.474 C513.114836,217.84733 513.663163,217.275503 514.3055,216.7585 C514.947837,216.241497 515.660663,215.826335 516.444,215.513 C517.227337,215.199665 518.026329,215.043 518.841,215.043 C519.46767,215.043 519.898499,215.058667 520.1335,215.09 C520.368501,215.121333 520.611332,215.152667 520.862,215.184 L520.862,220.354 C520.485998,220.291333 520.102169,220.2365 519.7105,220.1895 C519.318831,220.1425 518.935002,220.119 518.559,220.119 C517.650329,220.119 516.796504,220.299165 515.9975,220.6595 C515.198496,221.019835 514.501336,221.552496 513.906,222.2575 C513.310664,222.962504 512.840668,223.831995 512.496,224.866 C512.151332,225.900005 511.979,227.09066 511.979,228.438 L511.979,240 L506.621,240 L506.621,215.701 Z M558.697,238.731 C558.697,242.397018 557.670844,245.130824 555.6185,246.9325 C553.566156,248.734176 550.613019,249.635 546.759,249.635 C545.536994,249.635 544.307173,249.509668 543.0695,249.259 C541.831827,249.008332 540.703838,248.585336 539.6855,247.99 C538.667162,247.394664 537.813337,246.611338 537.124,245.64 C536.434663,244.668662 536.027334,243.478007 535.902,242.068 L541.26,242.068 C541.416667,242.820004 541.682998,243.430998 542.059,243.901 C542.435002,244.371002 542.881497,244.739165 543.3985,245.0055 C543.915503,245.271835 544.48733,245.444166 545.114,245.5225 C545.74067,245.600834 546.398663,245.64 547.088,245.64 C549.250011,245.64 550.832328,245.107339 551.835,244.042 C552.837672,242.976661 553.339,241.441343 553.339,239.436 L553.339,235.723 L553.245,235.723 C552.492996,237.07034 551.46684,238.119996 550.1665,238.872 C548.86616,239.624004 547.464008,240 545.96,240 C544.017324,240 542.364507,239.66317 541.0015,238.9895 C539.638493,238.31583 538.510504,237.391506 537.6175,236.2165 C536.724496,235.041494 536.074335,233.686341 535.667,232.151 C535.259665,230.615659 535.056,228.970675 535.056,227.216 C535.056,225.586659 535.306664,224.035674 535.808,222.563 C536.309336,221.090326 537.029995,219.797839 537.97,218.6855 C538.910005,217.573161 540.061493,216.688003 541.4245,216.03 C542.787507,215.371997 544.330658,215.043 546.054,215.043 C547.589341,215.043 548.999327,215.364163 550.284,216.0065 C551.568673,216.648837 552.555663,217.659326 553.245,219.038 L553.339,219.038 L553.339,215.701 L558.697,215.701 L558.697,238.731 Z M546.806,235.77 C547.996673,235.77 549.007163,235.527169 549.8375,235.0415 C550.667837,234.555831 551.341497,233.913504 551.8585,233.1145 C552.375503,232.315496 552.751499,231.406838 552.9865,230.3885 C553.221501,229.370162 553.339,228.344005 553.339,227.31 C553.339,226.275995 553.213668,225.273338 552.963,224.302 C552.712332,223.330662 552.328503,222.469004 551.8115,221.717 C551.294497,220.964996 550.620837,220.369669 549.7905,219.931 C548.960163,219.492331 547.965339,219.273 546.806,219.273 C545.615327,219.273 544.612671,219.523664 543.798,220.025 C542.983329,220.526336 542.325336,221.176496 541.824,221.9755 C541.322664,222.774504 540.962334,223.683162 540.743,224.7015 C540.523666,225.719838 540.414,226.730328 540.414,227.733 C540.414,228.735672 540.539332,229.714829 540.79,230.6705 C541.040668,231.626171 541.424497,232.479996 541.9415,233.232 C542.458503,233.984004 543.116496,234.594998 543.9155,235.065 C544.714504,235.535002 545.677994,235.77 546.806,235.77 L546.806,235.77 Z M564.243,206.442 L569.601,206.442 L569.601,240 L564.243,240 L564.243,206.442 Z M586.568,240.658 C584.625324,240.658 582.894174,240.336837 581.3745,239.6945 C579.854826,239.052163 578.570172,238.167006 577.5205,237.039 C576.470828,235.910994 575.671836,234.563674 575.1235,232.997 C574.575164,231.430325 574.301,229.707009 574.301,227.827 C574.301,225.978324 574.575164,224.270674 575.1235,222.704 C575.671836,221.137325 576.470828,219.790006 577.5205,218.662 C578.570172,217.533994 579.854826,216.648837 581.3745,216.0065 C582.894174,215.364163 584.625324,215.043 586.568,215.043 C588.510676,215.043 590.241826,215.364163 591.7615,216.0065 C593.281174,216.648837 594.565828,217.533994 595.6155,218.662 C596.665172,219.790006 597.464164,221.137325 598.0125,222.704 C598.560836,224.270674 598.835,225.978324 598.835,227.827 C598.835,229.707009 598.560836,231.430325 598.0125,232.997 C597.464164,234.563674 596.665172,235.910994 595.6155,237.039 C594.565828,238.167006 593.281174,239.052163 591.7615,239.6945 C590.241826,240.336837 588.510676,240.658 586.568,240.658 L586.568,240.658 Z M586.568,236.428 C587.758673,236.428 588.792662,236.177336 589.67,235.676 C590.547338,235.174664 591.267997,234.516671 591.832,233.702 C592.396003,232.887329 592.811165,231.970838 593.0775,230.9525 C593.343835,229.934162 593.477,228.892339 593.477,227.827 C593.477,226.792995 593.343835,225.759005 593.0775,224.725 C592.811165,223.690995 592.396003,222.774504 591.832,221.9755 C591.267997,221.176496 590.547338,220.526336 589.67,220.025 C588.792662,219.523664 587.758673,219.273 586.568,219.273 C585.377327,219.273 584.343338,219.523664 583.466,220.025 C582.588662,220.526336 581.868003,221.176496 581.304,221.9755 C580.739997,222.774504 580.324835,223.690995 580.0585,224.725 C579.792165,225.759005 579.659,226.792995 579.659,227.827 C579.659,228.892339 579.792165,229.934162 580.0585,230.9525 C580.324835,231.970838 580.739997,232.887329 581.304,233.702 C581.868003,234.516671 582.588662,235.174664 583.466,235.676 C584.343338,236.177336 585.377327,236.428 586.568,236.428 L586.568,236.428 Z M603.441,206.442 L608.799,206.442 L608.799,218.85 L608.893,218.85 C609.269002,218.254664 609.723331,217.722002 610.256,217.252 C610.788669,216.781998 611.376163,216.382502 612.0185,216.0535 C612.660837,215.724498 613.334496,215.473834 614.0395,215.3015 C614.744504,215.129166 615.441663,215.043 616.131,215.043 C618.042343,215.043 619.710826,215.37983 621.1365,216.0535 C622.562174,216.72717 623.744995,217.651494 624.685,218.8265 C625.625005,220.001506 626.329998,221.372325 626.8,222.939 C627.270002,224.505674 627.505,226.181991 627.505,227.968 C627.505,229.597341 627.293502,231.179659 626.8705,232.715 C626.447498,234.250341 625.805171,235.605494 624.9435,236.7805 C624.081829,237.955506 622.993007,238.895496 621.677,239.6005 C620.360993,240.305504 618.810009,240.658 617.024,240.658 C616.209329,240.658 615.386837,240.603167 614.5565,240.4935 C613.726163,240.383833 612.935004,240.172335 612.183,239.859 C611.430996,239.545665 610.749503,239.138336 610.1385,238.637 C609.527497,238.135664 609.018335,237.477671 608.611,236.663 L608.517,236.663 L608.517,240 L603.441,240 L603.441,206.442 Z M622.147,227.874 C622.147,226.777328 622.006001,225.712005 621.724,224.678 C621.441999,223.643995 621.019003,222.727504 620.455,221.9285 C619.890997,221.129496 619.186004,220.487169 618.34,220.0015 C617.493996,219.515831 616.522672,219.273 615.426,219.273 C613.169989,219.273 611.470172,220.056326 610.3265,221.623 C609.182828,223.189675 608.611,225.27332 608.611,227.874 C608.611,229.096006 608.759832,230.231828 609.0575,231.2815 C609.355168,232.331172 609.801664,233.231996 610.397,233.984 C610.992336,234.736004 611.705163,235.331331 612.5355,235.77 C613.365837,236.208669 614.329328,236.428 615.426,236.428 C616.648006,236.428 617.681996,236.177336 618.528,235.676 C619.374004,235.174664 620.071164,234.524504 620.6195,233.7255 C621.167836,232.926496 621.559499,232.017838 621.7945,230.9995 C622.029501,229.981162 622.147,228.939339 622.147,227.874 L622.147,227.874 Z M652.368,234.595 C652.368,235.253003 652.454166,235.722999 652.6265,236.005 C652.798834,236.287001 653.135664,236.428 653.637,236.428 L654.201,236.428 C654.420334,236.428 654.670999,236.396667 654.953,236.334 L654.953,240.047 C654.764999,240.109667 654.522168,240.180166 654.2245,240.2585 C653.926832,240.336834 653.621335,240.407333 653.308,240.47 C652.994665,240.532667 652.681335,240.579667 652.368,240.611 C652.054665,240.642333 651.788334,240.658 651.569,240.658 C650.472328,240.658 649.56367,240.438669 648.843,240 C648.12233,239.561331 647.652334,238.793672 647.433,237.697 C646.367661,238.731005 645.059508,239.482998 643.5085,239.953 C641.957492,240.423002 640.461341,240.658 639.02,240.658 C637.923328,240.658 636.873672,240.509168 635.871,240.2115 C634.868328,239.913832 633.983171,239.47517 633.2155,238.8955 C632.447829,238.31583 631.836836,237.579504 631.3825,236.6865 C630.928164,235.793496 630.701,234.751673 630.701,233.561 C630.701,232.056992 630.975164,230.835005 631.5235,229.895 C632.071836,228.954995 632.792496,228.218669 633.6855,227.686 C634.578504,227.153331 635.581161,226.769501 636.6935,226.5345 C637.805839,226.299499 638.925994,226.119334 640.054,225.994 C641.025338,225.805999 641.949662,225.672834 642.827,225.5945 C643.704338,225.516166 644.47983,225.383001 645.1535,225.195 C645.82717,225.006999 646.359831,224.717169 646.7515,224.3255 C647.143169,223.933831 647.339,223.346337 647.339,222.563 C647.339,221.873663 647.174502,221.309669 646.8455,220.871 C646.516498,220.432331 646.109169,220.095501 645.6235,219.8605 C645.137831,219.625499 644.597336,219.468834 644.002,219.3905 C643.406664,219.312166 642.842669,219.273 642.31,219.273 C640.805992,219.273 639.568338,219.58633 638.597,220.213 C637.625662,220.83967 637.077334,221.810993 636.952,223.127 L631.594,223.127 C631.688,221.560325 632.063997,220.260005 632.722,219.226 C633.380003,218.191995 634.218162,217.36167 635.2365,216.735 C636.254838,216.10833 637.406327,215.669668 638.691,215.419 C639.975673,215.168332 641.29166,215.043 642.639,215.043 C643.829673,215.043 645.004661,215.168332 646.164,215.419 C647.323339,215.669668 648.365162,216.076997 649.2895,216.641 C650.213838,217.205003 650.957997,217.933496 651.522,218.8265 C652.086003,219.719504 652.368,220.808327 652.368,222.093 L652.368,234.595 Z M647.01,227.827 C646.195329,228.359669 645.192673,228.680833 644.002,228.7905 C642.811327,228.900167 641.620673,229.064666 640.43,229.284 C639.865997,229.378 639.317669,229.511166 638.785,229.6835 C638.252331,229.855834 637.782335,230.090832 637.375,230.3885 C636.967665,230.686168 636.646501,231.077831 636.4115,231.5635 C636.176499,232.049169 636.059,232.636663 636.059,233.326 C636.059,233.921336 636.231332,234.422665 636.576,234.83 C636.920668,235.237335 637.335831,235.558499 637.8215,235.7935 C638.307169,236.028501 638.83983,236.193 639.4195,236.287 C639.99917,236.381 640.523998,236.428 640.994,236.428 C641.589336,236.428 642.231663,236.349667 642.921,236.193 C643.610337,236.036333 644.260497,235.770002 644.8715,235.394 C645.482503,235.017998 645.991665,234.54017 646.399,233.9605 C646.806335,233.38083 647.01,232.668004 647.01,231.822 L647.01,227.827 Z M658.29,206.442 L663.648,206.442 L663.648,240 L658.29,240 L658.29,206.442 Z M680.145,215.701 L684.14,215.701 L684.14,213.68 C684.14,212.144659 684.327998,210.899171 684.704,209.9435 C685.080002,208.987829 685.58133,208.251503 686.208,207.7345 C686.83467,207.217497 687.547496,206.872834 688.3465,206.7005 C689.145504,206.528166 689.983662,206.442 690.861,206.442 C692.584342,206.442 693.837663,206.551666 694.621,206.771 L694.621,210.954 C694.276332,210.86 693.908169,210.7895 693.5165,210.7425 C693.124831,210.6955 692.662669,210.672 692.13,210.672 C691.40933,210.672 690.790503,210.844332 690.2735,211.189 C689.756497,211.533668 689.498,212.207328 689.498,213.21 L689.498,215.701 L694.057,215.701 L694.057,219.696 L689.498,219.696 L689.498,240 L684.14,240 L684.14,219.696 L680.145,219.696 L680.145,215.701 Z M697.347,215.701 L702.376,215.701 L702.376,220.401 L702.47,220.401 C702.626667,219.742997 702.932164,219.10067 703.3865,218.474 C703.840836,217.84733 704.389163,217.275503 705.0315,216.7585 C705.673837,216.241497 706.386663,215.826335 707.17,215.513 C707.953337,215.199665 708.752329,215.043 709.567,215.043 C710.19367,215.043 710.624499,215.058667 710.8595,215.09 C711.094501,215.121333 711.337332,215.152667 711.588,215.184 L711.588,220.354 C711.211998,220.291333 710.828169,220.2365 710.4365,220.1895 C710.044831,220.1425 709.661002,220.119 709.285,220.119 C708.376329,220.119 707.522504,220.299165 706.7235,220.6595 C705.924496,221.019835 705.227336,221.552496 704.632,222.2575 C704.036664,222.962504 703.566668,223.831995 703.222,224.866 C702.877332,225.900005 702.705,227.09066 702.705,228.438 L702.705,240 L697.347,240 L697.347,215.701 Z M729.73,225.712 C729.667333,224.865996 729.487168,224.051337 729.1895,223.268 C728.891832,222.484663 728.484503,221.80317 727.9675,221.2235 C727.450497,220.64383 726.823837,220.173835 726.0875,219.8135 C725.351163,219.453165 724.528671,219.273 723.62,219.273 C722.679995,219.273 721.826171,219.437498 721.0585,219.7665 C720.290829,220.095502 719.632836,220.54983 719.0845,221.1295 C718.536164,221.70917 718.097502,222.390663 717.7685,223.174 C717.439498,223.957337 717.259333,224.803329 717.228,225.712 L729.73,225.712 Z M717.228,229.237 C717.228,230.177005 717.361165,231.085662 717.6275,231.963 C717.893835,232.840338 718.293331,233.607997 718.826,234.266 C719.358669,234.924003 720.032329,235.448831 720.847,235.8405 C721.661671,236.232169 722.632994,236.428 723.761,236.428 C725.327674,236.428 726.588829,236.09117 727.5445,235.4175 C728.500171,234.74383 729.212998,233.73334 729.683,232.386 L734.759,232.386 C734.476999,233.702007 733.991337,234.876995 733.302,235.911 C732.612663,236.945005 731.782338,237.814496 730.811,238.5195 C729.839662,239.224504 728.750839,239.757165 727.5445,240.1175 C726.338161,240.477835 725.077007,240.658 723.761,240.658 C721.849657,240.658 720.157674,240.34467 718.685,239.718 C717.212326,239.09133 715.966838,238.214006 714.9485,237.086 C713.930162,235.957994 713.162503,234.610675 712.6455,233.044 C712.128497,231.477326 711.87,229.754009 711.87,227.874 C711.87,226.150658 712.144164,224.513508 712.6925,222.9625 C713.240836,221.411492 714.024162,220.048506 715.0425,218.8735 C716.060838,217.698494 717.290659,216.766337 718.732,216.077 C720.173341,215.387663 721.802658,215.043 723.62,215.043 C725.531343,215.043 727.246826,215.442496 728.7665,216.2415 C730.286174,217.040504 731.547328,218.097993 732.55,219.414 C733.552672,220.730007 734.281164,222.241825 734.7355,223.9495 C735.189836,225.657175 735.307334,227.419658 735.088,229.237 L717.228,229.237 Z M739.318,206.442 L744.676,206.442 L744.676,211.518 L739.318,211.518 L739.318,206.442 Z M739.318,215.701 L744.676,215.701 L744.676,240 L739.318,240 L739.318,215.701 Z M772.97,238.731 C772.97,242.397018 771.943844,245.130824 769.8915,246.9325 C767.839156,248.734176 764.886019,249.635 761.032,249.635 C759.809994,249.635 758.580173,249.509668 757.3425,249.259 C756.104827,249.008332 754.976838,248.585336 753.9585,247.99 C752.940162,247.394664 752.086337,246.611338 751.397,245.64 C750.707663,244.668662 750.300334,243.478007 750.175,242.068 L755.533,242.068 C755.689667,242.820004 755.955998,243.430998 756.332,243.901 C756.708002,244.371002 757.154497,244.739165 757.6715,245.0055 C758.188503,245.271835 758.76033,245.444166 759.387,245.5225 C760.01367,245.600834 760.671663,245.64 761.361,245.64 C763.523011,245.64 765.105328,245.107339 766.108,244.042 C767.110672,242.976661 767.612,241.441343 767.612,239.436 L767.612,235.723 L767.518,235.723 C766.765996,237.07034 765.73984,238.119996 764.4395,238.872 C763.13916,239.624004 761.737008,240 760.233,240 C758.290324,240 756.637507,239.66317 755.2745,238.9895 C753.911493,238.31583 752.783504,237.391506 751.8905,236.2165 C750.997496,235.041494 750.347335,233.686341 749.94,232.151 C749.532665,230.615659 749.329,228.970675 749.329,227.216 C749.329,225.586659 749.579664,224.035674 750.081,222.563 C750.582336,221.090326 751.302995,219.797839 752.243,218.6855 C753.183005,217.573161 754.334493,216.688003 755.6975,216.03 C757.060507,215.371997 758.603658,215.043 760.327,215.043 C761.862341,215.043 763.272327,215.364163 764.557,216.0065 C765.841673,216.648837 766.828663,217.659326 767.518,219.038 L767.612,219.038 L767.612,215.701 L772.97,215.701 L772.97,238.731 Z M761.079,235.77 C762.269673,235.77 763.280163,235.527169 764.1105,235.0415 C764.940837,234.555831 765.614497,233.913504 766.1315,233.1145 C766.648503,232.315496 767.024499,231.406838 767.2595,230.3885 C767.494501,229.370162 767.612,228.344005 767.612,227.31 C767.612,226.275995 767.486668,225.273338 767.236,224.302 C766.985332,223.330662 766.601503,222.469004 766.0845,221.717 C765.567497,220.964996 764.893837,220.369669 764.0635,219.931 C763.233163,219.492331 762.238339,219.273 761.079,219.273 C759.888327,219.273 758.885671,219.523664 758.071,220.025 C757.256329,220.526336 756.598336,221.176496 756.097,221.9755 C755.595664,222.774504 755.235334,223.683162 755.016,224.7015 C754.796666,225.719838 754.687,226.730328 754.687,227.733 C754.687,228.735672 754.812332,229.714829 755.063,230.6705 C755.313668,231.626171 755.697497,232.479996 756.2145,233.232 C756.731503,233.984004 757.389496,234.594998 758.1885,235.065 C758.987504,235.535002 759.950994,235.77 761.079,235.77 L761.079,235.77 Z M778.375,206.442 L783.733,206.442 L783.733,218.897 L783.827,218.897 C784.485003,217.800328 785.46416,216.883837 786.7645,216.1475 C788.06484,215.411163 789.513992,215.043 791.112,215.043 C793.775347,215.043 795.874659,215.732326 797.41,217.111 C798.945341,218.489674 799.713,220.557653 799.713,223.315 L799.713,240 L794.355,240 L794.355,224.725 C794.292333,222.813657 793.885004,221.427171 793.133,220.5655 C792.380996,219.703829 791.206008,219.273 789.608,219.273 C788.699329,219.273 787.88467,219.437498 787.164,219.7665 C786.44333,220.095502 785.832336,220.54983 785.331,221.1295 C784.829664,221.70917 784.438001,222.390663 784.156,223.174 C783.873999,223.957337 783.733,224.787662 783.733,225.665 L783.733,240 L778.375,240 L778.375,206.442 Z M802.909,215.701 L806.951,215.701 L806.951,208.416 L812.309,208.416 L812.309,215.701 L817.15,215.701 L817.15,219.696 L812.309,219.696 L812.309,232.668 C812.309,233.232003 812.3325,233.717665 812.3795,234.125 C812.4265,234.532335 812.536166,234.876999 812.7085,235.159 C812.880834,235.441001 813.139332,235.652499 813.484,235.7935 C813.828668,235.934501 814.298664,236.005 814.894,236.005 C815.270002,236.005 815.645998,235.997167 816.022,235.9815 C816.398002,235.965833 816.773998,235.911 817.15,235.817 L817.15,239.953 C816.554664,240.015667 815.975003,240.078333 815.411,240.141 C814.846997,240.203667 814.267336,240.235 813.672,240.235 C812.261993,240.235 811.126171,240.101835 810.2645,239.8355 C809.402829,239.569165 808.729169,239.177503 808.2435,238.6605 C807.757831,238.143497 807.428834,237.493337 807.2565,236.71 C807.084166,235.926663 806.982333,235.033672 806.951,234.031 L806.951,219.696 L802.909,219.696 L802.909,215.701 Z M821.427,233.655 L827.96,233.655 L827.96,240 L821.427,240 L821.427,233.655 Z" id="Blockchain-solutions" fill="#4A4A4A"></path>
    </g>
</svg>