<?xml version="1.0" encoding="UTF-8"?>
<svg width="707px" height="188px" viewBox="0 0 707 188" version="1.1" xmlns="http://www.w3.org/2000/svg" xmlns:xlink="http://www.w3.org/1999/xlink">
    <!-- Generator: Sketch 40.3 (33839) - http://www.bohemiancoding.com/sketch -->
    <title>Untitled 2</title>
    <desc>Created with Sketch.</desc>
    <defs>
        <polygon id="path-1" points="0 145.42117 660.984486 145.42117 660.984486 0 0 0"></polygon>
        <polygon id="path-3" points="212.912942 145.505096 0 145.505096 0 0.0839758081 212.912942 0.0839758081 212.912942 145.505096"></polygon>
    </defs>
    <g id="Page-1" stroke="none" stroke-width="1" fill="none" fill-rule="evenodd">
        <g id="Blockfreight™" transform="translate(23.000000, 24.000000)">
            <path d="M659.287512,9.93134358 L659.287512,4.47962021 L659.253662,4.47962021 L657.381613,9.93134358 L656.16069,9.93134358 L654.290991,4.47962021 L654.253381,4.47962021 L654.253381,9.93134358 L652.55998,9.93134358 L652.55998,2.24192067 L654.962334,2.24192067 L656.780789,7.29834692 L658.597834,2.24192067 L660.984204,2.24192067 L660.984204,9.93134358 L659.287512,9.93134358 Z M649.553511,3.73322376 L649.553511,9.93134358 L647.75198,9.93134358 L647.75198,3.73322376 L645.683417,3.73322376 L645.683417,2.24192067 L651.621134,2.24192067 L651.621134,3.73322376 L649.553511,3.73322376 Z" id="Fill-19" fill="#0071BC"></path>
            <mask id="mask-2" fill="white">
                <use xlink:href="#path-1"></use>
            </mask>
            <g id="Clip-7"></g>
            <polygon id="Fill-6" fill="#0071BC" mask="url(#mask-2)" points="289.651986 67.0872849 299.603656 67.0872849 299.603656 14.2366556 289.651986 14.2366556"></polygon>
            <path d="M316.702401,52.469088 C316.984007,53.9226492 317.461657,55.2321951 318.136761,56.38978 C318.815626,57.5523309 319.716391,58.4784982 320.836236,59.1677851 C321.957962,59.8595551 323.357533,60.2051918 325.041532,60.2051918 C326.722239,60.2051918 328.135444,59.8595551 329.281146,59.1677851 C330.422147,58.4784982 331.335606,57.5523309 332.015411,56.38978 C332.691455,55.2321951 333.168635,53.9226492 333.451182,52.469088 C333.729968,51.0135405 333.867245,49.520251 333.867245,47.9882263 C333.867245,46.4601745 333.729968,44.9539733 333.451182,43.4740921 C333.168635,41.9942109 332.691455,40.6911209 332.015411,39.5538968 C331.335606,38.4196523 330.422147,37.4919952 329.281146,36.7739052 C328.135444,36.0607813 326.722239,35.7022329 325.041532,35.7022329 C323.357533,35.7022329 321.957962,36.0607813 320.836236,36.7739052 C319.716391,37.4919952 318.815626,38.4196523 318.136761,39.5538968 C317.461657,40.6911209 316.984007,41.9942109 316.702401,43.4740921 C316.420324,44.9539733 316.283047,46.4601745 316.283047,47.9882263 C316.283047,49.520251 316.420324,51.0135405 316.702401,52.469088 M307.661839,39.6656328 C308.550851,37.1716854 309.809854,35.046715 311.44684,33.2961844 C313.081945,31.5461505 315.044729,30.1874407 317.334253,29.225518 C319.621426,28.2635952 322.189265,27.7823855 325.041532,27.7823855 C327.890037,27.7823855 330.47198,28.2635952 332.78407,29.225518 C335.09663,30.1874407 337.069287,31.5461505 338.705803,33.2961844 C340.341848,35.046715 341.601791,37.1716854 342.489393,39.6656328 C343.376524,42.1570972 343.821736,44.9316261 343.821736,47.9882263 C343.821736,51.051779 343.376524,53.8114098 342.489393,56.2800304 C341.601791,58.7491476 340.341848,60.8587232 338.705803,62.6122334 C337.069287,64.362764 335.09663,65.706079 332.78407,66.6446613 C330.47198,67.5837403 327.890037,68.0495553 325.041532,68.0495553 C322.189265,68.0495553 319.621426,67.5837403 317.334253,66.6446613 C315.044729,65.706079 313.081945,64.362764 311.44684,62.6122334 C309.809854,60.8587232 308.550851,58.7491476 307.661839,56.2800304 C306.772827,53.8114098 306.330906,51.051779 306.330906,47.9882263 C306.330906,44.9316261 306.772827,42.1570972 307.661839,39.6656328" id="Fill-8" fill="#0071BC" mask="url(#mask-2)"></path>
            <path d="M367.576317,35.7023819 C365.988225,35.7023819 364.654472,36.0872503 363.584931,36.8490415 C362.510688,37.6167919 361.632489,38.6025517 360.954564,39.8122801 C360.27852,41.020022 359.79899,42.3499287 359.517383,43.8089525 C359.238127,45.2649967 359.093798,46.7076325 359.093798,48.1393431 C359.093798,49.5199034 359.238127,50.9287701 359.517383,52.357501 C359.79899,53.7926878 360.254544,55.0828661 360.888276,56.2454171 C361.518248,57.405485 362.366359,58.3530062 363.446713,59.0924502 C364.518605,59.8358671 365.828852,60.2053407 367.367581,60.2053407 C369.748779,60.2053407 371.583689,59.4971828 372.870899,58.0937787 C374.152468,56.6859052 374.956857,54.801788 375.286887,52.4354679 L384.886431,52.4354679 C384.234364,57.517221 382.365605,61.3867627 379.282035,64.0545216 C376.195645,66.7173146 372.247039,68.0497042 367.433399,68.0497042 C364.725461,68.0497042 362.243185,67.5699844 359.970586,66.6055786 C357.709741,65.642166 355.777044,64.301334 354.195064,62.5711642 C352.605561,60.8449672 351.368184,58.7865419 350.479172,56.389929 C349.59157,53.9992753 349.149179,51.3722379 349.149179,48.5043473 C349.149179,45.549551 349.557721,42.7973693 350.376214,40.2572376 C351.191886,37.7136298 352.394003,35.5181416 353.981625,33.6677935 C355.571598,31.8159556 357.510406,30.3738164 359.79899,29.3369064 C362.088983,28.2999963 364.705716,27.7820379 367.645896,27.7820379 C369.795792,27.7820379 371.862475,28.0765243 373.853467,28.6709598 C375.833646,29.2634089 377.61261,30.1637527 379.176726,31.3739777 C380.744133,32.5832095 382.014419,34.0879209 382.996987,35.8866221 C383.978144,37.6917792 384.535246,39.8227088 384.676754,42.2923226 L374.936642,42.2923226 C374.282694,37.8993598 371.829566,35.7023819 367.576317,35.7023819" id="Fill-9" fill="#0071BC" mask="url(#mask-2)"></path>
            <polygon id="Fill-10" fill="#0071BC" mask="url(#mask-2)" points="401.355251 14.2368543 401.355251 42.586511 413.898267 28.8196432 425.671683 28.8196432 412.005531 42.8829839 427.211352 67.0874835 415.15915 67.0874835 405.20936 49.9874068 401.355251 53.9150512 401.355251 67.0874835 391.404051 67.0874835 391.404051 14.2368543"></polygon>
            <path d="M426.92904,35.8532503 L426.92904,28.8193452 L432.887443,28.8193452 L432.887443,25.8575964 C432.887443,22.4528765 433.889756,19.6669257 435.898613,17.4913017 C437.90841,15.3236234 440.946847,14.2370529 445.013455,14.2370529 C445.901997,14.2370529 446.784427,14.273305 447.67579,14.3458093 C448.561981,14.4222864 449.424196,14.4838653 450.269956,14.5310427 L450.269956,22.3773926 C449.095106,22.2313909 447.881706,22.1578935 446.619412,22.1578935 C445.266854,22.1578935 444.29886,22.4881354 443.71261,23.1560684 C443.130592,23.8225115 442.840993,24.9468239 442.840993,26.5245362 L442.840993,28.8193452 L449.705802,28.8193452 L449.705802,35.8532503 L442.840993,35.8532503 L442.840993,67.0876821 L432.887443,67.0876821 L432.887443,35.8532503 L426.92904,35.8532503 Z" id="Fill-11" fill="#0071BC" mask="url(#mask-2)"></path>
            <path d="M463.50627,28.8195439 L463.50627,35.9259532 L463.649188,35.9259532 C464.112265,34.7420482 464.743647,33.6415728 465.540043,32.6289964 C466.333619,31.6193996 467.243317,30.7538181 468.271017,30.0401975 C469.299657,29.3245906 470.394115,28.7723664 471.564734,28.3740897 C472.732062,27.9802824 473.948283,27.7821372 475.211047,27.7821372 C475.861704,27.7821372 476.585701,27.9067849 477.381158,28.1535973 L477.381158,37.9232962 C476.915731,37.8269549 476.352048,37.7390559 475.704681,37.6640687 C475.048383,37.5900746 474.417001,37.5548157 473.811006,37.5548157 C471.985499,37.5548157 470.442068,37.8741323 469.179304,38.5157452 C467.925943,39.1608344 466.904355,40.0328718 466.134285,41.1412928 C465.364216,42.2517003 464.813696,43.5503209 464.488837,45.0282157 C464.161158,46.5110765 463.997083,48.1151088 463.997083,49.8408091 L463.997083,67.0873842 L454.049174,67.0873842 L454.049174,28.8195439 L463.50627,28.8195439 Z" id="Fill-12" fill="#0071BC" mask="url(#mask-2)"></path>
            <path d="M501.94704,37.7727257 C500.755735,36.3931586 498.943862,35.7023819 496.51471,35.7023819 C494.926618,35.7023819 493.608379,35.988426 492.559993,36.5535618 C491.505966,37.1211807 490.665848,37.8268556 490.034466,38.6626408 C489.406375,39.5063717 488.957402,40.3928106 488.704003,41.3239439 C488.449194,42.2655059 488.297343,43.1047674 488.247509,43.8491774 L504.434957,43.8491774 C503.97,41.1819151 503.139284,39.1607351 501.94704,37.7727257 M490.702988,57.9080487 C492.190003,59.4365971 494.34836,60.2053407 497.147973,60.2053407 C499.155419,60.2053407 500.88361,59.6769536 502.336776,58.6137236 C503.78383,57.5524799 504.671431,56.4251879 504.99488,55.2472422 L513.758066,55.2472422 C512.352383,59.8358671 510.203428,63.1169325 507.30885,65.0924249 C504.40863,67.0644411 500.906176,68.0497042 496.796787,68.0497042 C493.94452,68.0497042 491.37433,67.5699844 489.085747,66.6055786 C486.800455,65.642166 484.859296,64.2779936 483.271674,62.5001498 C481.685462,60.7198229 480.457488,58.6037915 479.588691,56.1336811 C478.730237,53.6660537 478.295839,50.9526071 478.295839,47.9883753 C478.295839,45.1279338 478.73964,42.4611681 479.629122,39.9970169 C480.518604,37.5288929 481.775727,35.3959769 483.413183,33.5937995 C485.049698,31.7931118 486.999789,30.3738164 489.263456,29.3369064 C491.529943,28.2999963 494.040897,27.7820379 496.796787,27.7820379 C499.878946,27.7820379 502.565728,28.4107391 504.854781,29.6696313 C507.146185,30.9290201 509.022936,32.6199582 510.500079,34.7419489 C511.971109,36.8639396 513.032188,39.2824032 513.684256,41.9943599 C514.341025,44.7083031 514.570917,47.5434177 514.384276,50.5061597 L488.247509,50.5061597 C488.390428,53.9153491 489.202809,56.3795003 490.702988,57.9080487" id="Fill-13" fill="#0071BC" mask="url(#mask-2)"></path>
            <path d="M520.549253,67.0872849 L530.502804,67.0872849 L530.502804,28.8194445 L520.549253,28.8194445 L520.549253,67.0872849 Z M520.549253,22.895947 L530.502804,22.895947 L530.502804,14.2366556 L520.549253,14.2366556 L520.549253,22.895947 Z" id="Fill-14" fill="#0071BC" mask="url(#mask-2)"></path>
            <path d="M558.950062,57.1684061 C560.023835,56.5824128 560.916608,55.7903288 561.615218,54.8015894 C562.316649,53.8113601 562.838961,52.6944968 563.190617,51.4311351 C563.542743,50.1742293 563.717631,48.8532616 563.717631,47.466742 C563.717631,45.8944924 563.576592,44.3987199 563.294515,42.9928328 C563.014319,41.5879389 562.546072,40.3409651 561.896825,39.2553879 C561.240056,38.1688174 560.376431,37.3057189 559.302658,36.6650992 C558.229356,36.0224931 556.870216,35.7021832 555.236991,35.7021832 C553.839771,35.7021832 552.632482,36.0026289 551.631579,36.5911051 C550.622215,37.1820644 549.783976,37.986067 549.106522,38.9986434 C548.430008,40.007247 547.939194,41.1683081 547.633611,42.475371 C547.329908,43.7824338 547.175706,45.1550484 547.175706,46.5852692 C547.175706,47.9668227 547.307342,49.3389407 547.565442,50.693181 C547.821662,52.0528839 548.264522,53.2750274 548.897315,54.3581216 C549.527286,55.4417125 550.355652,56.3306344 551.385702,57.0209145 C552.410582,57.7131811 553.698262,58.0583212 555.236991,58.0583212 C556.639383,58.0583212 557.87817,57.7603585 558.950062,57.1684061 M572.580484,69.9008469 C572.185106,71.8748495 571.332764,73.713279 570.025338,75.4166322 C568.715562,77.1184956 566.825177,78.5646077 564.347132,79.7495058 C561.868617,80.9309277 558.557035,81.5238734 554.394522,81.5238734 C552.621669,81.5238734 550.815437,81.2879863 548.967834,80.822668 C547.11882,80.3489074 545.439053,79.6238649 543.92148,78.6361187 C542.397795,77.6473793 541.137852,76.376072 540.135069,74.8236865 C539.131816,73.2698113 538.56155,71.4075447 538.417221,69.2339071 L548.298372,69.2339071 C548.764269,71.2079097 549.673026,72.5775447 551.033106,73.3462884 C552.388015,74.1080796 553.951661,74.4889752 555.730626,74.4889752 C558.531648,74.4889752 560.573414,73.6045227 561.859685,71.8256856 C563.143604,70.0498282 563.762293,67.8017 563.717631,65.0922262 L563.717631,60.0526845 L563.576592,60.0526845 C562.501409,62.080817 560.972553,63.5736099 558.988613,64.5370225 C556.999971,65.495469 554.907902,65.9771753 552.715695,65.9771753 C550.004936,65.9771753 547.6684,65.4731218 545.705616,64.4605454 C543.745652,63.4484656 542.133113,62.0669121 540.872229,60.3134019 C539.612286,58.5633679 538.689425,56.5148746 538.102705,54.1738814 C537.519276,51.8313983 537.226387,49.3483762 537.226387,46.7327607 C537.226387,44.2646367 537.56817,41.8863981 538.244214,39.5876162 C538.921668,37.294297 539.915989,35.2711306 541.224825,33.5191102 C542.529431,31.7670898 544.150902,30.3736177 546.092531,29.3372043 C548.027578,28.2997977 550.263037,27.7823359 552.787154,27.7823359 C555.166472,27.7823359 557.257131,28.2546067 559.055841,29.1892162 C560.8522,30.1263087 562.360371,31.7060074 563.576592,33.9268224 L563.717631,33.9268224 L563.717631,28.8197425 L573.177547,28.8197425 L573.177547,64.6472687 C573.177547,66.1773069 572.980563,67.9293273 572.580484,69.9008469" id="Fill-15" fill="#0071BC" mask="url(#mask-2)"></path>
            <path d="M591.116645,14.2368543 L591.116645,34.1492019 L591.326792,34.1492019 C592.589556,31.9278903 594.203035,30.3119395 596.164879,29.3003563 C598.127664,28.2882765 600.042495,27.7822365 601.907963,27.7822365 C604.573589,27.7822365 606.755924,28.1656152 608.459197,28.9288962 C610.165762,29.6951568 611.510798,30.7539174 612.492426,32.1131237 C613.474993,33.469847 614.162791,35.1235397 614.558638,37.0722155 C614.954016,39.0223811 615.15241,41.1821137 615.15241,43.5504202 L615.15241,67.0874835 L605.1998,67.0874835 L605.1998,45.4712861 C605.1998,42.3158616 604.735313,39.96146 603.802579,38.406095 C602.866554,36.8487435 601.209823,36.073544 598.826274,36.073544 C596.116926,36.073544 594.156963,36.924724 592.940741,38.6260907 C591.721229,40.3284507 591.116645,43.1322793 591.116645,47.0286376 L591.116645,67.0874835 L581.165445,67.0874835 L581.165445,14.2368543 L591.116645,14.2368543 Z" id="Fill-16" fill="#0071BC" mask="url(#mask-2)"></path>
            <path d="M642.623213,28.8195439 L642.623213,35.8534489 L635.334818,35.8534489 L635.334818,54.8013907 C635.334818,56.5827108 635.615484,57.7601599 636.173997,58.3531056 C636.735329,58.9445614 637.856585,59.2385513 639.533531,59.2385513 C640.099095,59.2385513 640.635982,59.2196803 641.148421,59.1675368 C641.663211,59.1188696 642.156376,59.0473586 642.623213,58.9445614 L642.623213,67.0873842 C641.781213,67.2348757 640.84895,67.3327068 639.817019,67.3843536 C638.789789,67.4345107 637.790297,67.4568579 636.803968,67.4568579 C635.264299,67.4568579 633.80079,67.3466117 632.426136,67.1251261 C631.04678,66.9046338 629.831969,66.4750709 628.780763,65.828492 C627.729557,65.1883689 626.900721,64.2775963 626.293316,63.0907118 C625.686851,61.9063102 625.383148,60.3539248 625.383148,58.4256098 L625.383148,35.8534489 L619.358457,35.8534489 L619.358457,28.8195439 L625.383148,28.8195439 L625.383148,17.3454986 L635.334818,17.3454986 L635.334818,28.8195439 L642.623213,28.8195439 Z" id="Fill-17" fill="#0071BC" mask="url(#mask-2)"></path>
            <polygon id="Fill-18" fill="#0071BC" mask="url(#mask-2)" points="647.802096 67.0872849 658.806853 67.0872849 658.806853 55.6902133 647.802096 55.6902133"></polygon>
            <path d="M263.865323,58.0585695 C264.940976,58.0585695 265.966326,57.9468335 266.947013,57.7238581 C267.93005,57.5003861 268.791795,57.1309124 269.541179,56.6134506 C270.289153,56.0984718 270.882924,55.3957766 271.327666,54.5058614 C271.770996,53.6169395 271.995247,52.4792188 271.995247,51.0991551 C271.995247,48.3862051 271.27078,46.447958 269.821375,45.2888833 C268.372911,44.1308018 266.455729,43.5502712 264.075,43.5502712 L252.091437,43.5502712 L252.091437,58.0585695 L263.865323,58.0585695 Z M263.233471,35.6284375 C265.198606,35.6284375 266.807385,35.1372957 268.069678,34.1495495 C269.332442,33.1618033 269.963354,31.5572744 269.963354,29.336956 C269.963354,28.1063703 269.749916,27.092304 269.332442,26.3036962 C268.908387,25.5126053 268.349404,24.895326 267.648444,24.4508651 C266.947013,24.0073973 266.141213,23.6995026 265.231986,23.5251944 C264.321348,23.3553557 263.37592,23.2674567 262.392412,23.2674567 L252.091437,23.2674567 L252.091437,35.6284375 L263.233471,35.6284375 Z M264.636333,14.2367053 C267.017062,14.2367053 269.191874,14.456701 271.150427,14.9031484 C273.114622,15.3466162 274.79439,16.0751349 276.197722,17.0867181 C277.600584,18.0963149 278.686109,19.4431061 279.456649,21.1221256 C280.228599,22.7981656 280.613164,24.8704958 280.613164,27.3361368 C280.613164,30.0019093 280.041018,32.2212345 278.898137,34.0005682 C277.751965,35.7789086 276.059504,37.2314765 273.815583,38.3687007 C276.900093,39.3067864 279.20137,40.9450844 280.717533,43.2895539 C282.236986,45.6335268 282.996243,48.4606958 282.996243,51.7685778 C282.996243,54.4313708 282.505429,56.7385949 281.523332,58.6847877 C280.544055,60.6404159 279.220645,62.22955 277.565794,63.4616256 C275.907653,64.697674 274.015387,65.6069567 271.888058,66.1974194 C269.762609,66.7928481 267.580275,67.0873345 265.338234,67.0873345 L241.089031,67.0873345 L241.089031,14.2367053 L264.636333,14.2367053 Z" id="Fill-4" fill="#0071BC" mask="url(#mask-2)"></path>
        </g>
        <g id="Consortium" transform="translate(263.000000, 110.000000)" fill="#333333">
            <path d="M251.10619,11.1580558 L251.10619,15.6339515 L251.2524,15.6339515 C252.063371,13.9877078 253.12727,12.7015024 254.442688,11.7753351 C255.757637,10.8491679 257.437874,10.3863325 259.482931,10.3863325 C261.139192,10.3863325 262.640311,10.8158954 263.988168,11.672538 C265.335555,12.5301738 266.23632,13.8332639 266.690934,15.5823046 C267.437967,13.8332639 268.542298,12.5301738 270.002986,11.672538 C271.464614,10.8158954 273.022618,10.3863325 274.678879,10.3863325 C280.231091,10.3863325 283.006727,13.4906068 283.006727,19.6981621 L283.006727,37.7045419 L279.938671,37.7045419 L279.938671,19.8526061 C279.938671,17.6581111 279.500042,15.986044 278.623723,14.8364048 C277.746935,13.6877588 276.204915,13.1131874 273.996723,13.1131874 C272.664851,13.1131874 271.56193,13.3793674 270.685142,13.9102375 C269.808353,14.4425975 269.109743,15.1542316 268.590721,16.0456366 C268.07123,16.9380347 267.70594,17.9575636 267.494853,19.1067062 C267.283295,20.2558489 267.178457,21.4476995 267.178457,22.6822581 L267.178457,37.7045419 L264.109931,37.7045419 L264.109931,19.6981621 C264.109931,18.8067572 264.020137,17.9575636 263.842428,17.1515746 C263.663309,16.3460822 263.37136,15.6423938 262.965639,15.041999 C262.558979,14.4425975 262.015511,13.9708233 261.333825,13.6276696 C260.652139,13.2850126 259.824244,13.1131874 258.850139,13.1131874 C257.551175,13.1131874 256.422398,13.3624829 255.464747,13.8590873 C254.506626,14.3566849 253.727624,15.041999 253.12727,15.917016 C252.526447,16.7915364 252.079825,17.8205008 251.787876,19.0039091 C251.495456,20.1873175 251.349716,21.4819652 251.349716,22.8878523 L251.349716,37.7045419 L248.281191,37.7045419 L248.281191,11.1580558 L251.10619,11.1580558 Z" id="Fill-29"></path>
            <path d="M234.79129,37.7045916 L234.79129,32.919808 L234.693974,32.919808 C233.881592,34.703611 232.704392,36.0672868 231.162842,37.0103386 C229.620352,37.9528938 227.907205,38.424668 226.024813,38.424668 C224.43343,38.424668 223.07805,38.1932503 221.957735,37.730415 C220.83742,37.2670831 219.928193,36.6070958 219.230053,35.7499566 C218.531912,34.8928173 218.020413,33.8459752 217.696495,32.6114166 C217.371166,31.376858 217.209442,29.9709709 217.209442,28.392762 L217.209442,11.1581055 L220.277498,11.1581055 L220.277498,28.4444089 C220.342375,30.8449947 220.869859,32.6630635 221.860419,33.8976221 C222.850508,35.1321807 224.563185,35.7499566 226.998918,35.7499566 C228.329851,35.7499566 229.46568,35.4500075 230.407816,34.8491161 C231.349483,34.2497146 232.128485,33.4521679 232.745293,32.4574692 C233.362101,31.4627706 233.817185,30.3220702 234.109604,29.0358648 C234.401554,27.7496593 234.547764,26.438127 234.547764,25.1002747 L234.547764,11.1581055 L237.616289,11.1581055 L237.616289,37.7045916 L234.79129,37.7045916 Z" id="Fill-28"></path>
            <path d="M203.425806,37.7046909 L206.493861,37.7046909 L206.493861,11.1582048 L203.425806,11.1582048 L203.425806,37.7046909 Z M203.425806,6.16782695 L206.493861,6.16782695 L206.493861,0.971854858 L203.425806,0.971854858 L203.425806,6.16782695 Z" id="Fill-27"></path>
            <path d="M194.075195,11.1580558 L194.075195,13.8844141 L188.961142,13.8844141 L188.961142,31.7879968 C188.961142,32.8517235 189.098889,33.6835359 189.375325,34.2829374 C189.65082,34.8838288 190.340968,35.2180436 191.445298,35.286575 C192.322087,35.286575 193.198876,35.2349281 194.075195,35.132131 L194.075195,37.8589859 C193.620111,37.8589859 193.165497,37.8758704 192.711823,37.9101361 C192.256739,37.9444019 191.802126,37.961783 191.347512,37.961783 C189.302455,37.961783 187.873266,37.5421523 187.061825,36.701401 C186.249914,35.8611463 185.860177,34.3092575 185.893086,32.0457345 L185.893086,13.8844141 L181.509613,13.8844141 L181.509613,11.1580558 L185.893086,11.1580558 L185.893086,3.18358198 L188.961142,3.18358198 L188.961142,11.1580558 L194.075195,11.1580558 Z" id="Fill-26"></path>
            <path d="M166.704482,11.1580558 L166.704482,17.3829923 L166.801799,17.3829923 C167.580801,15.222763 168.79044,13.5591382 170.430247,12.3926144 C172.069583,11.2275804 174.025786,10.6952205 176.298855,10.7980176 L176.298855,14.0393547 C174.902575,13.9708233 173.63605,14.1679752 172.50022,14.6308106 C171.362981,15.0936459 170.381353,15.7546264 169.553458,16.6117656 C168.725562,17.4689048 168.084308,18.4894269 167.629694,19.6728353 C167.17461,20.855747 166.948008,22.1508914 166.948008,23.5567785 L166.948008,37.7045419 L163.879483,37.7045419 L163.879483,11.1580558 L166.704482,11.1580558 Z" id="Fill-25"></path>
            <path d="M138.699708,14.0906539 C137.594907,14.7421989 136.678157,15.6003314 135.948049,16.6630648 C135.21747,17.7262949 134.664599,18.9355267 134.291788,20.289767 C133.918036,21.6450004 133.731865,23.0250641 133.731865,24.4314479 C133.731865,25.8378316 133.918036,27.2183919 134.291788,28.5726321 C134.664599,29.9283622 135.21747,31.1370974 135.948049,32.1998309 C136.678157,33.2630609 137.594907,34.1211934 138.699708,34.7717452 C139.803098,35.4242834 141.086078,35.7495593 142.547236,35.7495593 C144.008394,35.7495593 145.290903,35.4242834 146.394763,34.7717452 C147.498154,34.1211934 148.415844,33.2630609 149.146423,32.1998309 C149.877002,31.1370974 150.428462,29.9283622 150.802214,28.5726321 C151.175025,27.2183919 151.362606,25.8378316 151.362606,24.4314479 C151.362606,23.0250641 151.175025,21.6450004 150.802214,20.289767 C150.428462,18.9355267 149.877002,17.7262949 149.146423,16.6630648 C148.415844,15.6003314 147.498154,14.7421989 146.394763,14.0906539 C145.290903,13.4391089 144.008394,13.1128398 142.547236,13.1128398 C141.086078,13.1128398 139.803098,13.4391089 138.699708,14.0906539 M147.636842,11.518243 C149.113514,12.2730817 150.355592,13.2851616 151.362606,14.5539859 C152.36868,15.8228102 153.131698,17.3061676 153.65166,19.0040581 C154.170681,20.7009554 154.430662,22.5110785 154.430662,24.4314479 C154.430662,26.3523138 154.170681,28.1614437 153.65166,29.8588376 C153.131698,31.5567281 152.36868,33.0405821 151.362606,34.3094065 C150.355592,35.5787274 149.113514,36.5813717 147.636842,37.3183327 C146.158759,38.0557902 144.462537,38.4247673 142.547236,38.4247673 C140.630524,38.4247673 138.934772,38.0557902 137.45716,37.3183327 C135.979547,36.5813717 134.737469,35.5787274 133.731865,34.3094065 C132.724851,33.0405821 131.961833,31.5567281 131.442812,29.8588376 C130.92285,28.1614437 130.66334,26.3523138 130.66334,24.4314479 C130.66334,22.5110785 130.92285,20.7009554 131.442812,19.0040581 C131.961833,17.3061676 132.724851,15.8228102 133.731865,14.5539859 C134.737469,13.2851616 135.979547,12.2730817 137.45716,11.518243 C138.934772,10.7643975 140.630524,10.3864815 142.547236,10.3864815 C144.462537,10.3864815 146.158759,10.7643975 147.636842,11.518243" id="Fill-24"></path>
            <path d="M118.098557,16.3283038 C117.74079,15.5913428 117.262199,14.9830024 116.661376,14.5017927 C116.060552,14.0220729 115.370874,13.6709735 114.591872,13.4475015 C113.8124,13.2250228 112.984504,13.1127902 112.107716,13.1127902 C111.42603,13.1127902 110.735882,13.1902604 110.038212,13.3447044 C109.339132,13.4991484 108.698817,13.7558929 108.114448,14.1164277 C107.530079,14.4764659 107.059011,14.9482401 106.701713,15.5312537 C106.343946,16.1142673 106.165767,16.8353369 106.165767,17.6919796 C106.165767,18.412056 106.336424,19.0213896 106.677267,19.5184906 C107.01858,20.0160883 107.448277,20.435719 107.967768,20.7788727 C108.48726,21.1215297 109.055644,21.4050908 109.672452,21.6275696 C110.28926,21.8510416 110.857645,22.0308124 111.377137,22.1678752 L115.468191,23.1451927 C116.34545,23.2827522 117.213306,23.5310544 118.07411,23.8915892 C118.933974,24.2511308 119.696992,24.722905 120.363164,25.3059186 C121.027925,25.8894288 121.572333,26.6095052 121.994508,27.4666444 C122.416683,28.3242803 122.62777,29.3363601 122.62777,30.5018907 C122.62777,31.9425401 122.319366,33.169153 121.702558,34.1802396 C121.08575,35.1923195 120.297816,36.0156896 119.340635,36.6498534 C118.382514,37.2850105 117.30263,37.7384103 116.101453,38.0130326 C114.899806,38.2876548 113.715083,38.4247177 112.545875,38.4247177 C109.59112,38.4247177 107.196288,37.6877567 105.362319,36.2128415 C103.527879,34.738423 102.480434,32.3721029 102.220923,29.1128881 L105.289449,29.1128881 C105.418734,31.3083763 106.17376,32.9635588 107.554056,34.0774425 C108.933881,35.1923195 110.646558,35.7495096 112.692085,35.7495096 C113.439118,35.7495096 114.210128,35.6645903 115.005585,35.4922685 C115.801041,35.32094 116.540083,35.0294332 117.221768,34.6177481 C117.903454,34.2060631 118.463376,33.6836352 118.902006,33.0484782 C119.340635,32.4148109 119.559245,31.6336522 119.559245,30.7079815 C119.559245,29.9193737 119.405043,29.2593864 119.096639,28.7270265 C118.787765,28.1956597 118.374052,27.749709 117.854561,27.3891741 C117.335069,27.0296325 116.742238,26.7291869 116.077006,26.4893269 C115.411305,26.2499636 114.738082,26.0438728 114.055926,25.8720476 L110.111082,24.9458804 C109.104068,24.6717547 108.178856,24.3539279 107.334506,23.9943863 C106.490156,23.6338515 105.752055,23.1883973 105.119263,22.656534 C104.48553,22.1251672 103.990015,21.4731256 103.633188,20.7014024 C103.275891,19.9296791 103.097712,18.978185 103.097712,17.8464235 C103.097712,16.5085712 103.381199,15.3599252 103.950054,14.3989956 C104.517499,13.4395559 105.25701,12.6678326 106.165767,12.0843224 C107.074525,11.5013088 108.090001,11.0732358 109.210317,10.7981169 C110.330162,10.5239913 111.442014,10.3864319 112.545875,10.3864319 C113.8124,10.3864319 114.98913,10.558257 116.077006,10.9009141 C117.164883,11.2440677 118.123004,11.7754344 118.950429,12.4955109 C119.778795,13.2155873 120.436504,14.1079854 120.923556,15.1712155 C121.410139,16.2344456 121.685634,17.4858887 121.751452,18.9265382 L118.682926,18.9265382 C118.650017,17.9323361 118.455384,17.066258 118.098557,16.3283038" id="Fill-23"></path>
            <path d="M75.629542,11.1580558 L75.629542,15.7367486 L75.7268585,15.7367486 C76.3112277,14.1252673 77.3502106,12.8301229 78.8442775,11.8523088 C80.3374041,10.8749913 81.9772106,10.3863325 83.763227,10.3863325 C85.5163344,10.3863325 86.9850143,10.6266891 88.1711473,11.106409 C89.3553998,11.587122 90.3055285,12.2644905 91.019653,13.1385143 C91.7337775,14.0135313 92.2377547,15.0857002 92.5297042,16.3540279 C92.8221238,17.6238454 92.9683336,19.0471137 92.9683336,20.6243294 L92.9683336,37.7045419 L89.9002782,37.7045419 L89.9002782,21.1388115 C89.9002782,20.0065535 89.8024915,18.9522623 89.6073884,17.9749448 C89.4127554,16.9971306 89.0719126,16.1484337 88.58486,15.4283573 C88.0978073,14.7077842 87.4400982,14.1421518 86.6122028,13.7304667 C85.7847775,13.3192783 84.7533166,13.1131874 83.5197006,13.1131874 C82.2851445,13.1131874 81.189276,13.3446051 80.2320954,13.8074404 C79.2739745,14.2707724 78.4620634,14.9059294 77.7968322,15.7109252 C77.1311309,16.5174108 76.6111693,17.4783403 76.2383578,18.5922241 C75.864606,19.707101 75.6615107,20.9158362 75.629542,22.2189262 L75.629542,37.7045419 L72.5614866,37.7045419 L72.5614866,11.1580558 L75.629542,11.1580558 Z" id="Fill-22"></path>
            <path d="M47.4301349,14.0906539 C46.3253341,14.7421989 45.4085844,15.6003314 44.6780055,16.6630648 C43.9478967,17.7262949 43.3950261,18.9355267 43.0222146,20.289767 C42.6484628,21.6450004 42.4622921,23.0250641 42.4622921,24.4314479 C42.4622921,25.8378316 42.6484628,27.2183919 43.0222146,28.5726321 C43.3950261,29.9283622 43.9478967,31.1370974 44.6780055,32.1998309 C45.4085844,33.2630609 46.3253341,34.1211934 47.4301349,34.7717452 C48.5335254,35.4242834 49.8165048,35.7495593 51.2776627,35.7495593 C52.7388206,35.7495593 54.0208597,35.4242834 55.1251904,34.7717452 C56.2285809,34.1211934 57.1462708,33.2630609 57.8768497,32.1998309 C58.6074287,31.1370974 59.1588888,29.9283622 59.5326406,28.5726321 C59.9054521,27.2183919 60.0930332,25.8378316 60.0930332,24.4314479 C60.0930332,23.0250641 59.9054521,21.6450004 59.5326406,20.289767 C59.1588888,18.9355267 58.6074287,17.7262949 57.8768497,16.6630648 C57.1462708,15.6003314 56.2285809,14.7421989 55.1251904,14.0906539 C54.0208597,13.4391089 52.7388206,13.1128398 51.2776627,13.1128398 C49.8165048,13.1128398 48.5335254,13.4391089 47.4301349,14.0906539 M56.3672686,11.518243 C57.8439408,12.2730817 59.086019,13.2851616 60.0930332,14.5539859 C61.0991072,15.8228102 61.862125,17.3061676 62.3820866,19.0040581 C62.9011079,20.7009554 63.1610887,22.5110785 63.1610887,24.4314479 C63.1610887,26.3523138 62.9011079,28.1614437 62.3820866,29.8588376 C61.862125,31.5567281 61.0991072,33.0405821 60.0930332,34.3094065 C59.086019,35.5787274 57.8439408,36.5813717 56.3672686,37.3183327 C54.8891861,38.0557902 53.1929642,38.4247673 51.2776627,38.4247673 C49.3609507,38.4247673 47.6651989,38.0557902 46.1875866,37.3183327 C44.7099742,36.5813717 43.4678959,35.5787274 42.4622921,34.3094065 C41.4552779,33.0405821 40.6922601,31.5567281 40.1727686,29.8588376 C39.6532772,28.1614437 39.3937665,26.3523138 39.3937665,24.4314479 C39.3937665,22.5110785 39.6532772,20.7009554 40.1727686,19.0040581 C40.6922601,17.3061676 41.4552779,15.8228102 42.4622921,14.5539859 C43.4678959,13.2851616 44.7099742,12.2730817 46.1875866,11.518243 C47.6651989,10.7643975 49.3609507,10.3864815 51.2776627,10.3864815 C53.1929642,10.3864815 54.8891861,10.7643975 56.3672686,11.518243" id="Fill-21"></path>
            <path d="M26.0733001,8.30282869 C25.4075989,7.18844836 24.5956878,6.25383883 23.638037,5.49900011 C22.6803862,4.74465799 21.6244787,4.17008667 20.4721949,3.77528615 C19.3199111,3.38147884 18.1107418,3.18383028 16.8442169,3.18383028 C14.5387091,3.18383028 12.5580597,3.64666561 10.9022688,4.57283286 C9.24600782,5.49900011 7.88968848,6.72561304 6.83566145,8.25118183 C5.77975391,9.77774383 5.00122191,11.5014578 4.49771479,13.4218271 C3.99420768,15.342693 3.74268919,17.3147092 3.74268919,19.3378756 C3.74268919,21.3277695 3.99420768,23.2913434 4.49771479,25.2285973 C5.00122191,27.1668443 5.77975391,28.8990006 6.83566145,30.4245694 C7.88968848,31.951628 9.24600782,33.1772477 10.9022688,34.1034149 C12.5580597,35.0295822 14.5387091,35.4924175 16.8442169,35.4924175 C18.467569,35.4924175 19.9287269,35.1835296 21.2276906,34.5662503 C22.5261842,33.948971 23.645559,33.1092129 24.5876956,32.0454862 C25.5298321,30.9827527 26.2928499,29.7387587 26.8767489,28.3154904 C27.4615882,26.8927187 27.8343997,25.3572178 27.997064,23.7109742 L31.3091159,23.7109742 C31.0811038,25.9744971 30.5790071,28.0160379 29.7995349,29.8331135 C29.0200626,31.6516789 28.0135185,33.1946288 26.7794324,34.4634531 C25.5453464,35.7327741 24.0926508,36.7105882 22.4204054,37.3963989 C20.7476899,38.0812164 18.8902141,38.4248666 16.8442169,38.4248666 C14.1170043,38.4248666 11.721702,37.9014456 9.66019061,36.8560933 C7.59773898,35.8097477 5.88553272,34.4123029 4.52216145,32.6627655 C3.15832006,30.9137247 2.13579161,28.8905583 1.45363585,26.592273 C0.771950213,24.294981 0.431107397,21.8765174 0.431107397,19.3378756 C0.431107397,16.800227 0.771950213,14.38226 1.45363585,12.0844714 C2.13579161,9.78668271 3.15832006,7.7545774 4.52216145,5.98765886 C5.88553272,4.22173353 7.59773898,2.81584641 9.66019061,1.76900428 C11.721702,0.723155362 14.1170043,0.200230904 16.8442169,0.200230904 C18.5000078,0.200230904 20.1148976,0.456975391 21.6907667,0.971457574 C23.2642852,1.48593976 24.6930043,2.24971736 25.9759836,3.26080397 C27.2584929,4.27288379 28.3303848,5.51687787 29.1907191,6.9907998 C30.0501131,8.46621154 30.5945213,10.1636055 30.8225334,12.0844714 L27.5104815,12.0844714 C27.218532,10.6780876 26.7390014,9.41770562 26.0733001,8.30282869" id="Fill-20"></path>
        </g>
        <g id="Cube" transform="translate(23.000000, 24.000000)">
            <mask id="mask-4" fill="white">
                <use xlink:href="#path-3"></use>
            </mask>
            <g id="Clip-2"></g>
            <path d="M202.705993,113.989636 L186.669456,121.967089 L186.669456,102.456991 L202.705993,94.4790413 L202.705993,113.989636 Z M160.42785,94.4790413 L176.464387,102.456991 L176.464387,121.967089 L160.42785,113.989636 L160.42785,94.4790413 Z M120.828496,117.128176 L120.828496,63.9383659 L165.058141,41.9368035 L165.058141,74.7474578 L153.153559,80.6679757 C151.21287,81.6338713 150.123584,83.7235827 150.241116,85.8560021 C150.238295,85.9011931 150.224661,85.9384385 150.224661,85.9866091 L150.224661,102.198261 L120.828496,117.128176 Z M81.2667531,79.665828 C81.4124928,77.5110614 80.3255568,75.381125 78.3627723,74.4062905 L66.3961336,68.4520035 L66.3961336,41.9368035 L110.625778,63.9383659 L110.625778,117.205646 L81.2930803,102.616898 L81.2930803,79.8709256 C81.2911998,79.803884 81.2686336,79.737339 81.2667531,79.665828 L81.2667531,79.665828 Z M71.0847204,119.015769 L45.7471706,131.618596 L45.7471706,100.971648 L71.0847204,88.3693171 L71.0847204,119.015769 Z M10.2045518,88.3693171 L35.5425718,100.971648 L35.5425718,131.618596 L10.2045518,119.015769 L10.2045518,88.3693171 Z M40.6444011,91.5917832 L16.4868726,79.577929 L40.6444011,67.5620883 L64.8019295,79.577929 L40.6444011,91.5917832 Z M115.723376,54.5585015 L72.361118,32.9884883 L115.723376,11.4179786 L159.088455,32.9884883 L115.723376,54.5585015 Z M181.564806,93.0776237 L166.859201,85.7621439 L181.564806,78.4491471 L196.27041,85.7621439 L181.564806,93.0776237 Z M212.896488,85.8525259 C213.012139,83.7220929 211.924733,81.6338713 209.984045,80.6664859 L183.741028,67.6162182 C183.67521,67.5809593 183.603751,67.5670544 183.533702,67.5392445 C183.361635,67.4622709 183.186277,67.3972157 183.009039,67.3406028 C182.858128,67.2944186 182.708627,67.2527038 182.559597,67.2199279 C182.393641,67.1851656 182.225806,67.1638116 182.053269,67.1454372 C181.892015,67.1290493 181.730291,67.1146478 181.566216,67.1146478 C181.403552,67.1146478 181.244649,67.1290493 181.081514,67.1454372 C180.909447,67.1638116 180.742552,67.187152 180.574246,67.2199279 C180.427566,67.2527038 180.277125,67.2944186 180.126214,67.3406028 C179.948506,67.3972157 179.772208,67.4622709 179.601551,67.5392445 C179.533853,67.5690408 179.464274,67.5829457 179.392814,67.6162182 L175.262269,69.6701741 L175.262269,33.4428814 C175.262269,33.3137642 175.22748,33.198552 175.219488,33.0724145 C175.426814,30.8640146 174.343169,28.6600842 172.334312,27.6619093 L117.898659,0.585049672 C117.83143,0.55227378 117.760911,0.535885834 117.691332,0.508572591 C117.519265,0.431598905 117.342497,0.366047121 117.163848,0.309930821 C117.012937,0.26374661 116.867668,0.222031838 116.718167,0.191242364 C116.549861,0.154493636 116.380615,0.133139646 116.208548,0.114268678 C116.047765,0.0983773364 115.887921,0.0839758081 115.723376,0.0839758081 C115.564943,0.0839758081 115.402279,0.0963909187 115.241965,0.114268678 C115.067077,0.133139646 114.897361,0.154493636 114.730466,0.191242364 C114.582375,0.222031838 114.437106,0.26374661 114.289016,0.309930821 C114.107076,0.366047121 113.928427,0.431598905 113.75495,0.508572591 C113.689132,0.538368856 113.618613,0.55227378 113.551385,0.585049672 L59.1176116,27.6619093 C57.1092247,28.6600842 56.0241692,30.8640146 56.2333762,33.0724145 C56.2244437,33.198552 56.1877738,33.3167439 56.1877738,33.4428814 L56.1877738,63.3786927 L42.818273,56.7291594 C42.7435227,56.6924107 42.6683022,56.6804922 42.5935518,56.6452333 C42.4308876,56.5757087 42.2668129,56.5151229 42.0994473,56.4614897 C41.9410142,56.4123258 41.7844615,56.3661416 41.6232076,56.3333657 C41.4624238,56.2986034 41.30164,56.280229 41.136155,56.2608615 C40.9706699,56.2454667 40.8075355,56.2310652 40.6420504,56.2310652 C40.4765654,56.2310652 40.3139011,56.2454667 40.148416,56.2608615 C39.9829309,56.280229 39.821677,56.3005898 39.6608932,56.3333657 C39.5024601,56.3661416 39.3482581,56.4098428 39.1893548,56.4614897 C39.0191685,56.5151229 38.8518029,56.5757087 38.686788,56.6477163 C38.613448,56.6804922 38.5405782,56.6943971 38.4681784,56.7291594 L2.92838044,74.4062905 C0.963245306,75.381125 -0.120869915,77.5110614 0.0239295164,79.665828 C0.0220490043,79.737339 -4.70128023e-05,79.803884 -4.70128023e-05,79.8709256 L-4.70128023e-05,122.432408 C-4.70128023e-05,124.51914 1.14189395,126.422128 2.93073108,127.30956 L38.4728797,144.991657 C38.6374245,145.07459 38.811842,145.113822 38.9820284,145.173911 C39.1117837,145.223571 39.2354274,145.276211 39.3675334,145.315443 C39.7892382,145.431152 40.2142339,145.505146 40.6472218,145.505146 C41.0787994,145.505146 41.5042652,145.431152 41.9254999,145.315443 C42.058076,145.276211 42.1812496,145.223571 42.311475,145.173911 C42.4811913,145.113822 42.6574893,145.07459 42.8210938,144.991657 L78.3627723,127.30956 C80.1511393,126.422128 81.2930803,124.522616 81.2930803,122.432408 L81.2930803,114.529445 L113.554205,130.576224 C113.721101,130.66164 113.90022,130.703354 114.074167,130.76394 C114.202982,130.812607 114.324275,130.869717 114.45356,130.906466 C114.873385,131.017208 115.301201,131.092692 115.726197,131.092692 C116.158715,131.092692 116.587942,131.017208 117.012937,130.901003 C117.147394,130.863758 117.269157,130.805158 117.400323,130.756988 C117.580852,130.691933 117.767963,130.647735 117.94003,130.559836 L150.224661,114.156992 L150.224661,117.408757 C150.224661,119.495489 151.366132,121.395994 153.153559,122.285909 L179.392814,135.33866 C179.56112,135.419607 179.736008,135.461321 179.906664,135.523397 C180.03736,135.572064 180.158653,135.624208 180.287938,135.663439 C180.707762,135.778652 181.136989,135.853639 181.566216,135.853639 C181.994033,135.853639 182.42467,135.778652 182.844494,135.664433 C182.978011,135.624208 183.099304,135.572064 183.226708,135.523397 C183.399245,135.461321 183.575543,135.419607 183.741028,135.33866 L209.984045,122.285909 C211.774292,121.395994 212.912942,119.495489 212.912942,117.408757 L212.912942,85.9836295 C212.912942,85.9384385 212.899779,85.8997033 212.896488,85.8525259 L212.896488,85.8525259 Z" id="Fill-1" fill="#B3B3B3" mask="url(#mask-4)"></path>
        </g>
    </g>
</svg>