<?xml version="1.0" encoding="UTF-8"?>
<svg width="500px" height="500px" viewBox="0 0 500 500" version="1.1" xmlns="http://www.w3.org/2000/svg" xmlns:xlink="http://www.w3.org/1999/xlink">
    <!-- Generator: Sketch 41.2 (35397) - http://www.bohemiancoding.com/sketch -->
    <title>blockfreight_square_brandmark</title>
    <desc>Created with Sketch.</desc>
    <defs></defs>
    <g id="Page-1" stroke="none" stroke-width="1" fill="none" fill-rule="evenodd">
        <g id="blockfreight_square_brandmark">
            <rect id="Blue-Square" fill="#43B5EF" x="0" y="0" width="500" height="500"></rect>
            <g id="blockfreight_brandmark" transform="translate(80.263149, 332.878033)" fill="#FFFFFF">
                <path d="M233.881306,67.8644836 L235.736851,67.8644836 L235.736851,69.6697337 L233.881306,69.6697337 L233.881306,67.8644836 Z M228.621706,62.7562944 L229.769741,62.7562944 L229.769741,60.6835999 L231.291554,60.6835999 L231.291554,62.7562944 L232.666526,62.7562944 L232.666526,63.8929334 L231.291554,63.8929334 L231.291554,67.5836669 C231.291554,67.7441344 231.298229,67.8823127 231.311578,67.9982058 C231.324927,68.1140989 231.356075,68.2121611 231.405023,68.2923947 C231.45397,68.3726283 231.52739,68.4328028 231.625285,68.4729197 C231.72318,68.5130367 231.856671,68.5330947 232.025762,68.5330947 C232.132557,68.5330947 232.23935,68.5308661 232.346144,68.5264086 C232.452939,68.5219511 232.559731,68.5063503 232.666526,68.4796058 L232.666526,69.6563615 C232.497435,69.6741912 232.332796,69.6920206 232.172604,69.7098504 C232.012412,69.7276801 231.847773,69.7365948 231.678682,69.7365948 C231.278203,69.7365948 230.9556,69.6987073 230.710862,69.6229309 C230.466125,69.5471545 230.274788,69.4357206 230.136845,69.2886253 C229.998902,69.14153 229.905458,68.9565495 229.856511,68.7336781 C229.807564,68.5108067 229.77864,68.256737 229.769741,67.9714614 L229.769741,63.8929334 L228.621706,63.8929334 L228.621706,62.7562944 Z M221.653404,60.1219665 L223.175217,60.1219665 L223.175217,63.6656056 L223.201915,63.6656056 C223.388806,63.3535855 223.666912,63.0928297 224.036243,62.8833305 C224.405574,62.6738313 224.817171,62.5690833 225.271047,62.5690833 C226.027508,62.5690833 226.623768,62.7652072 227.059845,63.1574611 C227.495923,63.5497151 227.713958,64.1380869 227.713958,64.9225945 L227.713958,69.6697337 L226.192145,69.6697337 L226.192145,65.3237612 C226.174346,64.7799547 226.058654,64.3854782 225.845065,64.1403195 C225.631476,63.8951608 225.297748,63.7725834 224.843872,63.7725834 C224.585785,63.7725834 224.354401,63.8193856 224.149711,63.9129917 C223.945022,64.0065978 223.771484,64.1358611 223.629091,64.3007862 C223.486698,64.4657112 223.375456,64.6596064 223.29536,64.8824779 C223.215264,65.1053493 223.175217,65.3415895 223.175217,65.5912057 L223.175217,69.6697337 L221.653404,69.6697337 L221.653404,60.1219665 Z M220.118241,69.3086837 C220.118241,70.3517222 219.826786,71.129532 219.243866,71.6421366 C218.660946,72.1547411 217.822178,72.4110394 216.727535,72.4110394 C216.380453,72.4110394 216.031151,72.3753805 215.679619,72.3040616 C215.328088,72.2327427 215.007709,72.1123938 214.718474,71.9430116 C214.429239,71.7736293 214.186731,71.550761 213.990941,71.2744004 C213.795151,70.9980398 213.679459,70.6592802 213.64386,70.2581115 L215.165674,70.2581115 C215.210171,70.4720682 215.285816,70.6459054 215.392611,70.7796282 C215.499405,70.913351 215.626222,71.018099 215.773064,71.0938754 C215.919907,71.1696518 216.08232,71.2186827 216.260311,71.2409699 C216.438302,71.2632571 216.625189,71.2744004 216.820979,71.2744004 C217.435047,71.2744004 217.884467,71.1228502 218.169252,70.8197449 C218.454038,70.5166395 218.596428,70.0798179 218.596428,69.509267 L218.596428,68.4528614 L218.56973,68.4528614 C218.356141,68.8362004 218.064685,69.1348436 217.695354,69.3488003 C217.326024,69.562757 216.927775,69.6697337 216.500598,69.6697337 C215.948826,69.6697337 215.479383,69.5739004 215.092253,69.3822309 C214.705123,69.1905614 214.384744,68.927577 214.131108,68.5932697 C213.877471,68.2589625 213.692808,67.8734006 213.577114,67.4365725 C213.46142,66.9997443 213.403574,66.5317211 213.403574,66.032489 C213.403574,65.5689165 213.474769,65.1276374 213.617162,64.708639 C213.759555,64.2896406 213.964241,63.9219081 214.231227,63.6054306 C214.498213,63.288953 214.825266,63.037112 215.212396,62.8499 C215.599526,62.662688 216.037821,62.5690833 216.527296,62.5690833 C216.963373,62.5690833 217.363847,62.6604591 217.728728,62.8432139 C218.093609,63.0259686 218.37394,63.3134683 218.56973,63.7057223 L218.596428,63.7057223 L218.596428,62.7562944 L220.118241,62.7562944 L220.118241,69.3086837 Z M216.740884,68.4662336 C217.079066,68.4662336 217.366072,68.3971445 217.60191,68.2589642 C217.837747,68.1207839 218.029085,67.938032 218.175927,67.710703 C218.32277,67.4833741 218.429562,67.2248469 218.496309,66.9351141 C218.563055,66.6453813 218.596428,66.3534238 218.596428,66.0592335 C218.596428,65.7650432 218.56083,65.4797718 218.489634,65.2034112 C218.418438,64.9270506 218.30942,64.6818957 218.162578,64.467939 C218.015735,64.2539823 217.824398,64.0846026 217.588561,63.9597945 C217.352723,63.8349864 217.070167,63.7725834 216.740884,63.7725834 C216.402701,63.7725834 216.117921,63.8439011 215.886533,63.9865389 C215.655145,64.1291767 215.468257,64.3141573 215.325865,64.5414862 C215.183472,64.7688151 215.081129,65.0273423 215.018832,65.3170751 C214.956535,65.6068079 214.925387,65.8943079 214.925387,66.1795835 C214.925387,66.4648591 214.960985,66.7434443 215.032181,67.0153474 C215.103378,67.2872505 215.212395,67.5301769 215.359238,67.7441336 C215.50608,67.9580903 215.692967,68.1319275 215.919906,68.2656503 C216.146844,68.3993731 216.4205,68.4662336 216.740884,68.4662336 L216.740884,68.4662336 Z M210.560186,62.7562944 L212.082,62.7562944 L212.082,69.6697337 L210.560186,69.6697337 L210.560186,62.7562944 Z M210.560186,60.1219665 L212.082,60.1219665 L212.082,61.5661666 L210.560186,61.5661666 L210.560186,60.1219665 Z M204.286044,66.6074946 C204.286044,66.8749405 204.323866,67.1334674 204.399513,67.3830836 C204.475159,67.6326997 204.588626,67.8511105 204.739918,68.0383225 C204.89121,68.2255345 205.082547,68.3748561 205.313935,68.486292 C205.545323,68.5977278 205.821205,68.6534447 206.141588,68.6534447 C206.586565,68.6534447 206.944766,68.5576114 207.216202,68.3659419 C207.487638,68.1742725 207.690099,67.8867725 207.823592,67.5034336 L209.26531,67.5034336 C209.185214,67.8778578 209.047274,68.21216 208.851484,68.5063503 C208.655694,68.8005406 208.41986,69.0479242 208.143974,69.2485087 C207.868088,69.4490931 207.558834,69.6006434 207.216202,69.7031642 C206.87357,69.8056851 206.515369,69.8569448 206.141588,69.8569448 C205.598716,69.8569448 205.118149,69.7677976 204.69987,69.5895003 C204.281592,69.4112031 203.927841,69.1615909 203.638606,68.8406559 C203.349371,68.5197208 203.131336,68.1363878 202.984493,67.6906447 C202.837651,67.2449018 202.764231,66.7545916 202.764231,66.2197002 C202.764231,65.7293829 202.842101,65.2635885 202.997843,64.8223029 C203.153584,64.3810172 203.37607,63.9932268 203.665304,63.6589195 C203.954539,63.3246122 204.303841,63.0593992 204.71322,62.8632722 C205.122599,62.6671452 205.585367,62.5690833 206.101541,62.5690833 C206.644412,62.5690833 207.131655,62.6827461 207.563282,62.910075 C207.99491,63.1374039 208.353111,63.4382758 208.637896,63.8127 C208.922681,64.1871243 209.129592,64.6172597 209.258636,65.1031195 C209.387679,65.5889794 209.421051,66.0904329 209.358755,66.6074946 L204.286044,66.6074946 Z M207.836942,65.6045779 C207.819142,65.3638768 207.767971,65.1320937 207.683425,64.9092223 C207.59888,64.6863509 207.483188,64.4924557 207.336345,64.3275306 C207.189503,64.1626056 207.011515,64.0288848 206.802376,63.9263639 C206.593236,63.8238431 206.359627,63.7725834 206.101541,63.7725834 C205.834554,63.7725834 205.592046,63.8193856 205.374007,63.9129917 C205.155968,64.0065978 204.969081,64.1358611 204.813339,64.3007862 C204.657597,64.4657112 204.533006,64.6596064 204.43956,64.8824779 C204.346115,65.1053493 204.294943,65.346047 204.286044,65.6045779 L207.836942,65.6045779 Z M198.639316,62.7562944 L200.067685,62.7562944 L200.067685,64.0935167 L200.094383,64.0935167 C200.138881,63.9063047 200.22565,63.7235528 200.354693,63.5452556 C200.483737,63.3669583 200.639476,63.2042647 200.821917,63.0571694 C201.004357,62.9100741 201.206819,62.7919542 201.429307,62.7028055 C201.651795,62.6136569 201.87873,62.5690833 202.110118,62.5690833 C202.288109,62.5690833 202.410476,62.5735408 202.477222,62.5824555 C202.543969,62.5913702 202.612939,62.6002852 202.684135,62.6092 L202.684135,64.0801445 C202.577341,64.0623148 202.468323,64.0467139 202.357079,64.0333417 C202.245835,64.0199695 202.136817,64.0132834 202.030023,64.0132834 C201.771936,64.0132834 201.529427,64.0645431 201.302489,64.1670639 C201.075551,64.2695848 200.877539,64.421135 200.708448,64.6217195 C200.539357,64.822304 200.405866,65.0696876 200.307971,65.3638779 C200.210076,65.6580682 200.161129,65.9968279 200.161129,66.3801668 L200.161129,69.6697337 L198.639316,69.6697337 L198.639316,62.7562944 Z M193.753495,62.7562944 L194.88818,62.7562944 L194.88818,62.1812888 C194.88818,61.7444607 194.941576,61.3901002 195.048371,61.1181971 C195.155165,60.846294 195.297556,60.6367979 195.475546,60.4897026 C195.653537,60.3426073 195.855999,60.2445454 196.082937,60.1955137 C196.309875,60.1464821 196.547934,60.1219665 196.797121,60.1219665 C197.286596,60.1219665 197.642572,60.1531682 197.86506,60.2155721 L197.86506,61.4056999 C197.767165,61.3789555 197.662597,61.3588971 197.551353,61.3455249 C197.440109,61.3321527 197.308843,61.3254666 197.157551,61.3254666 C196.952861,61.3254666 196.777098,61.3744977 196.630256,61.472561 C196.483413,61.5706244 196.409993,61.762291 196.409993,62.0475666 L196.409993,62.7562944 L197.704869,62.7562944 L197.704869,63.8929334 L196.409993,63.8929334 L196.409993,69.6697337 L194.88818,69.6697337 L194.88818,63.8929334 L193.753495,63.8929334 L193.753495,62.7562944 Z M187.546099,60.1219665 L189.067912,60.1219665 L189.067912,69.6697337 L187.546099,69.6697337 L187.546099,60.1219665 Z M185.864094,68.131928 C185.864094,68.31914 185.888568,68.4528611 185.937515,68.5330947 C185.986463,68.6133284 186.082131,68.6534447 186.224524,68.6534447 L186.384715,68.6534447 C186.447011,68.6534447 186.518207,68.64453 186.598303,68.6267003 L186.598303,69.6831059 C186.544905,69.7009356 186.475935,69.7209937 186.391389,69.7432809 C186.306844,69.7655681 186.220075,69.7856262 186.131079,69.8034559 C186.042084,69.8212856 185.95309,69.8346579 185.864094,69.8435726 C185.775099,69.8524873 185.699454,69.8569448 185.637157,69.8569448 C185.325674,69.8569448 185.067591,69.7945418 184.862902,69.6697337 C184.658212,69.5449256 184.524721,69.3265148 184.462424,69.0144948 C184.15984,69.3086851 183.78829,69.5226387 183.347763,69.6563615 C182.907236,69.7900843 182.48229,69.8569448 182.072911,69.8569448 C181.761427,69.8569448 181.463297,69.8145998 181.178512,69.7299087 C180.893726,69.6452176 180.642318,69.5204115 180.42428,69.3554864 C180.206241,69.1905614 180.032703,68.9810653 179.903659,68.726992 C179.774616,68.4729186 179.710095,68.1765039 179.710095,67.8377391 C179.710095,67.4098257 179.787965,67.0621516 179.943707,66.7947058 C180.099449,66.5272599 180.304135,66.3177638 180.557772,66.1662113 C180.811409,66.0146587 181.09619,65.9054532 181.412123,65.8385918 C181.728057,65.7717304 182.04621,65.7204707 182.366594,65.6848112 C182.64248,65.6313221 182.905012,65.5934346 183.154199,65.5711474 C183.403386,65.5488601 183.623646,65.5109726 183.814986,65.4574835 C184.006326,65.4039943 184.157616,65.3215332 184.26886,65.2100973 C184.380105,65.0986615 184.435726,64.9315104 184.435726,64.708639 C184.435726,64.512512 184.389004,64.352047 184.295559,64.2272389 C184.202114,64.1024309 184.086422,64.0065976 183.948479,63.9397362 C183.810536,63.8728748 183.657021,63.8283012 183.48793,63.8060139 C183.318839,63.7837267 183.158649,63.7725834 183.007357,63.7725834 C182.580179,63.7725834 182.228653,63.8617306 181.952768,64.0400278 C181.676882,64.2183251 181.521142,64.4946814 181.485544,64.8691056 L179.963731,64.8691056 C179.990429,64.4233625 180.097222,64.0534015 180.284113,63.7592111 C180.471003,63.4650208 180.709062,63.2287806 180.998297,63.0504833 C181.287532,62.8721861 181.614585,62.74738 181.979466,62.6760611 C182.344347,62.6047422 182.718122,62.5690833 183.100802,62.5690833 C183.438985,62.5690833 183.772712,62.6047422 184.101995,62.6760611 C184.431278,62.74738 184.727183,62.8632714 184.989719,63.0237389 C185.252256,63.1842064 185.463616,63.3914739 185.623808,63.6455472 C185.784,63.8996206 185.864094,64.2094075 185.864094,64.5749167 L185.864094,68.131928 Z M184.342281,66.2063279 C184.110893,66.3578805 183.826113,66.4492566 183.48793,66.4804585 C183.149747,66.5116605 182.81157,66.558463 182.473388,66.6208669 C182.313196,66.6476113 182.157457,66.6854991 182.006164,66.7345307 C181.854872,66.7835624 181.721381,66.850423 181.605687,66.9351141 C181.489993,67.0198052 181.398774,67.1312394 181.332028,67.2694197 C181.265281,67.4076 181.231909,67.574751 181.231909,67.770878 C181.231909,67.9402603 181.280855,68.0828961 181.37875,68.1987892 C181.476645,68.3146822 181.594562,68.4060583 181.732505,68.4729197 C181.870448,68.5397811 182.021738,68.5865836 182.186379,68.6133281 C182.351021,68.6400725 182.500086,68.6534447 182.633579,68.6534447 C182.80267,68.6534447 182.985108,68.6311578 183.180897,68.5865836 C183.376687,68.5420095 183.56135,68.4662342 183.734891,68.3592558 C183.908432,68.2522775 184.053047,68.1163281 184.168741,67.951403 C184.284435,67.786478 184.342281,67.583668 184.342281,67.3429669 L184.342281,66.2063279 Z M171.967537,60.1219665 L173.48935,60.1219665 L173.48935,63.6522334 L173.516049,63.6522334 C173.622843,63.4828511 173.751884,63.3313006 173.903177,63.1975778 C174.054469,63.063855 174.221332,62.9501922 174.403773,62.8565861 C174.586214,62.76298 174.777551,62.6916622 174.97779,62.6426305 C175.17803,62.5935989 175.376041,62.5690833 175.571831,62.5690833 C176.114703,62.5690833 176.588596,62.6649166 176.993525,62.8565861 C177.398454,63.0482556 177.734407,63.31124 178.001393,63.6455472 C178.268379,63.9798545 178.468616,64.3698736 178.602109,64.8156168 C178.735602,65.2613596 178.802347,65.7382976 178.802347,66.2464446 C178.802347,66.7100172 178.742276,67.160211 178.622132,67.5970391 C178.501989,68.0338673 178.319551,68.4194291 178.074814,68.7537364 C177.830076,69.0880437 177.520822,69.3554853 177.147042,69.5560698 C176.773261,69.7566543 176.332741,69.8569448 175.825467,69.8569448 C175.594079,69.8569448 175.360469,69.841344 175.124632,69.810142 C174.888794,69.7789401 174.664084,69.7187656 174.450495,69.629617 C174.236906,69.5404684 174.043344,69.424577 173.869803,69.2819392 C173.696262,69.1393014 173.551647,68.9520923 173.435953,68.7203059 L173.409255,68.7203059 L173.409255,69.6697337 L171.967537,69.6697337 L171.967537,60.1219665 Z M177.280534,66.2197002 C177.280534,65.9076801 177.240487,65.6045793 177.160391,65.310389 C177.080295,65.0161987 176.960153,64.7554429 176.799961,64.528114 C176.63977,64.300785 176.439533,64.1180331 176.199246,63.9798528 C175.958958,63.8416725 175.683077,63.7725834 175.371593,63.7725834 C174.730826,63.7725834 174.248033,63.9954517 173.9232,64.4411945 C173.598367,64.8869376 173.435953,65.4797667 173.435953,66.2197002 C173.435953,66.5673797 173.478225,66.8905385 173.562771,67.1891863 C173.647316,67.4878342 173.774133,67.7441324 173.943224,67.9580891 C174.112315,68.1720459 174.314777,68.3414255 174.550615,68.4662336 C174.786452,68.5910417 175.060109,68.6534447 175.371593,68.6534447 C175.718675,68.6534447 176.012355,68.582127 176.252643,68.4394892 C176.49293,68.2968514 176.690942,68.1118709 176.846684,67.8845419 C177.002426,67.657213 177.113668,67.3986858 177.180415,67.108953 C177.247161,66.8192202 177.280534,66.5228055 177.280534,66.2197002 L177.280534,66.2197002 Z M167.17516,69.8569448 C166.623389,69.8569448 166.131697,69.765569 165.700069,69.5828142 C165.268442,69.4000595 164.903566,69.1482187 164.605432,68.8272836 C164.307297,68.5063486 164.080362,68.1230153 163.924621,67.6772725 C163.768879,67.2315293 163.691009,66.7412194 163.691009,66.2063279 C163.691009,65.6803512 163.768879,65.1944985 163.924621,64.7487556 C164.080362,64.3030125 164.307297,63.9196795 164.605432,63.5987445 C164.903566,63.2778094 165.268442,63.0259686 165.700069,62.8432139 C166.131697,62.6604591 166.623389,62.5690833 167.17516,62.5690833 C167.726931,62.5690833 168.218624,62.6604591 168.650251,62.8432139 C169.081879,63.0259686 169.446754,63.2778094 169.744889,63.5987445 C170.043023,63.9196795 170.269958,64.3030125 170.4257,64.7487556 C170.581442,65.1944985 170.659311,65.6803512 170.659311,66.2063279 C170.659311,66.7412194 170.581442,67.2315293 170.4257,67.6772725 C170.269958,68.1230153 170.043023,68.5063486 169.744889,68.8272836 C169.446754,69.1482187 169.081879,69.4000595 168.650251,69.5828142 C168.218624,69.765569 167.726931,69.8569448 167.17516,69.8569448 L167.17516,69.8569448 Z M167.17516,68.6534447 C167.513343,68.6534447 167.807023,68.582127 168.05621,68.4394892 C168.305397,68.2968514 168.510083,68.1096422 168.670275,67.8778558 C168.830467,67.6460694 168.948384,67.3853136 169.02403,67.0955808 C169.099676,66.8058479 169.137498,66.5094333 169.137498,66.2063279 C169.137498,65.9121376 169.099676,65.6179516 169.02403,65.3237612 C168.948384,65.0295709 168.830467,64.7688151 168.670275,64.5414862 C168.510083,64.3141573 168.305397,64.1291767 168.05621,63.9865389 C167.807023,63.8439011 167.513343,63.7725834 167.17516,63.7725834 C166.836978,63.7725834 166.543298,63.8439011 166.29411,63.9865389 C166.044923,64.1291767 165.840237,64.3141573 165.680045,64.5414862 C165.519854,64.7688151 165.401937,65.0295709 165.326291,65.3237612 C165.250644,65.6179516 165.212822,65.9121376 165.212822,66.2063279 C165.212822,66.5094333 165.250644,66.8058479 165.326291,67.0955808 C165.401937,67.3853136 165.519854,67.6460694 165.680045,67.8778558 C165.840237,68.1096422 166.044923,68.2968514 166.29411,68.4394892 C166.543298,68.582127 166.836978,68.6534447 167.17516,68.6534447 L167.17516,68.6534447 Z M160.834272,60.1219665 L162.356085,60.1219665 L162.356085,69.6697337 L160.834272,69.6697337 L160.834272,60.1219665 Z M159.259062,69.3086837 C159.259062,70.3517222 158.967606,71.129532 158.384686,71.6421366 C157.801767,72.1547411 156.962998,72.4110394 155.868355,72.4110394 C155.521273,72.4110394 155.171971,72.3753805 154.82044,72.3040616 C154.468908,72.2327427 154.148529,72.1123938 153.859294,71.9430116 C153.57006,71.7736293 153.327551,71.550761 153.131761,71.2744004 C152.935971,70.9980398 152.820279,70.6592802 152.784681,70.2581115 L154.306494,70.2581115 C154.350992,70.4720682 154.426637,70.6459054 154.533431,70.7796282 C154.640225,70.913351 154.767042,71.018099 154.913884,71.0938754 C155.060727,71.1696518 155.223141,71.2186827 155.401132,71.2409699 C155.579122,71.2632571 155.76601,71.2744004 155.9618,71.2744004 C156.575868,71.2744004 157.025287,71.1228502 157.310073,70.8197449 C157.594858,70.5166395 157.737248,70.0798179 157.737248,69.509267 L157.737248,68.4528614 L157.71055,68.4528614 C157.496961,68.8362004 157.205506,69.1348436 156.836175,69.3488003 C156.466844,69.562757 156.068596,69.6697337 155.641418,69.6697337 C155.089647,69.6697337 154.620203,69.5739004 154.233073,69.3822309 C153.845943,69.1905614 153.525565,68.927577 153.271928,68.5932697 C153.018291,68.2589625 152.833628,67.8734006 152.717935,67.4365725 C152.602241,66.9997443 152.544394,66.5317211 152.544394,66.032489 C152.544394,65.5689165 152.61559,65.1276374 152.757982,64.708639 C152.900375,64.2896406 153.105061,63.9219081 153.372047,63.6054306 C153.639033,63.288953 153.966086,63.037112 154.353216,62.8499 C154.740346,62.662688 155.178642,62.5690833 155.668116,62.5690833 C156.104194,62.5690833 156.504667,62.6604591 156.869548,62.8432139 C157.234429,63.0259686 157.51476,63.3134683 157.71055,63.7057223 L157.737248,63.7057223 L157.737248,62.7562944 L159.259062,62.7562944 L159.259062,69.3086837 Z M155.881704,68.4662336 C156.219887,68.4662336 156.506892,68.3971445 156.74273,68.2589642 C156.978568,68.1207839 157.169905,67.938032 157.316747,67.710703 C157.46359,67.4833741 157.570383,67.2248469 157.637129,66.9351141 C157.703876,66.6453813 157.737248,66.3534238 157.737248,66.0592335 C157.737248,65.7650432 157.701651,65.4797718 157.630454,65.2034112 C157.559258,64.9270506 157.450241,64.6818957 157.303398,64.467939 C157.156556,64.2539823 156.965218,64.0846026 156.729381,63.9597945 C156.493543,63.8349864 156.210987,63.7725834 155.881704,63.7725834 C155.543522,63.7725834 155.258741,63.8439011 155.027353,63.9865389 C154.795965,64.1291767 154.609077,64.3141573 154.466685,64.5414862 C154.324292,64.7688151 154.221949,65.0273423 154.159652,65.3170751 C154.097356,65.6068079 154.066208,65.8943079 154.066208,66.1795835 C154.066208,66.4648591 154.101805,66.7434443 154.173002,67.0153474 C154.244198,67.2872505 154.353215,67.5301769 154.500058,67.7441336 C154.6469,67.9580903 154.833788,68.1319275 155.060726,68.2656503 C155.287664,68.3993731 155.561321,68.4662336 155.881704,68.4662336 L155.881704,68.4662336 Z M144.468105,62.7562944 L145.896473,62.7562944 L145.896473,64.0935167 L145.923172,64.0935167 C145.96767,63.9063047 146.054439,63.7235528 146.183482,63.5452556 C146.312526,63.3669583 146.468265,63.2042647 146.650705,63.0571694 C146.833146,62.9100741 147.035608,62.7919542 147.258096,62.7028055 C147.480584,62.6136569 147.707519,62.5690833 147.938907,62.5690833 C148.116898,62.5690833 148.239265,62.5735408 148.306011,62.5824555 C148.372758,62.5913702 148.441728,62.6002852 148.512924,62.6092 L148.512924,64.0801445 C148.40613,64.0623148 148.297112,64.0467139 148.185868,64.0333417 C148.074624,64.0199695 147.965606,64.0132834 147.858812,64.0132834 C147.600725,64.0132834 147.358216,64.0645431 147.131278,64.1670639 C146.90434,64.2695848 146.706328,64.421135 146.537237,64.6217195 C146.368146,64.822304 146.234655,65.0696876 146.13676,65.3638779 C146.038865,65.6580682 145.989918,65.9968279 145.989918,66.3801668 L145.989918,69.6697337 L144.468105,69.6697337 L144.468105,62.7562944 Z M139.715776,69.8569448 C139.164005,69.8569448 138.672313,69.765569 138.240685,69.5828142 C137.809058,69.4000595 137.444182,69.1482187 137.146047,68.8272836 C136.847913,68.5063486 136.620978,68.1230153 136.465236,67.6772725 C136.309494,67.2315293 136.231625,66.7412194 136.231625,66.2063279 C136.231625,65.6803512 136.309494,65.1944985 136.465236,64.7487556 C136.620978,64.3030125 136.847913,63.9196795 137.146047,63.5987445 C137.444182,63.2778094 137.809058,63.0259686 138.240685,62.8432139 C138.672313,62.6604591 139.164005,62.5690833 139.715776,62.5690833 C140.267547,62.5690833 140.759239,62.6604591 141.190867,62.8432139 C141.622494,63.0259686 141.98737,63.2778094 142.285504,63.5987445 C142.583639,63.9196795 142.810574,64.3030125 142.966316,64.7487556 C143.122057,65.1944985 143.199927,65.6803512 143.199927,66.2063279 C143.199927,66.7412194 143.122057,67.2315293 142.966316,67.6772725 C142.810574,68.1230153 142.583639,68.5063486 142.285504,68.8272836 C141.98737,69.1482187 141.622494,69.4000595 141.190867,69.5828142 C140.759239,69.765569 140.267547,69.8569448 139.715776,69.8569448 L139.715776,69.8569448 Z M139.715776,68.6534447 C140.053958,68.6534447 140.347639,68.582127 140.596826,68.4394892 C140.846013,68.2968514 141.050699,68.1096422 141.210891,67.8778558 C141.371082,67.6460694 141.488999,67.3853136 141.564646,67.0955808 C141.640292,66.8058479 141.678114,66.5094333 141.678114,66.2063279 C141.678114,65.9121376 141.640292,65.6179516 141.564646,65.3237612 C141.488999,65.0295709 141.371082,64.7688151 141.210891,64.5414862 C141.050699,64.3141573 140.846013,64.1291767 140.596826,63.9865389 C140.347639,63.8439011 140.053958,63.7725834 139.715776,63.7725834 C139.377593,63.7725834 139.083913,63.8439011 138.834726,63.9865389 C138.585539,64.1291767 138.380853,64.3141573 138.220661,64.5414862 C138.060469,64.7688151 137.942553,65.0295709 137.866906,65.3237612 C137.79126,65.6179516 137.753438,65.9121376 137.753438,66.2063279 C137.753438,66.5094333 137.79126,66.8058479 137.866906,67.0955808 C137.942553,67.3853136 138.060469,67.6460694 138.220661,67.8778558 C138.380853,68.1096422 138.585539,68.2968514 138.834726,68.4394892 C139.083913,68.582127 139.377593,68.6534447 139.715776,68.6534447 L139.715776,68.6534447 Z M131.666185,62.7562944 L132.80087,62.7562944 L132.80087,62.1812888 C132.80087,61.7444607 132.854267,61.3901002 132.961061,61.1181971 C133.067856,60.846294 133.210246,60.6367979 133.388237,60.4897026 C133.566228,60.3426073 133.768689,60.2445454 133.995627,60.1955137 C134.222565,60.1464821 134.460624,60.1219665 134.709811,60.1219665 C135.199286,60.1219665 135.555262,60.1531682 135.77775,60.2155721 L135.77775,61.4056999 C135.679856,61.3789555 135.575288,61.3588971 135.464043,61.3455249 C135.352799,61.3321527 135.221533,61.3254666 135.070241,61.3254666 C134.865552,61.3254666 134.689788,61.3744977 134.542946,61.472561 C134.396103,61.5706244 134.322683,61.762291 134.322683,62.0475666 L134.322683,62.7562944 L135.61756,62.7562944 L135.61756,63.8929334 L134.322683,63.8929334 L134.322683,69.6697337 L132.80087,69.6697337 L132.80087,63.8929334 L131.666185,63.8929334 L131.666185,62.7562944 Z M122.855687,67.4499447 C122.900185,67.8956878 123.069274,68.207703 123.362958,68.3860003 C123.656643,68.5642975 124.008169,68.6534447 124.417548,68.6534447 C124.559941,68.6534447 124.722355,68.6423014 124.904795,68.6200142 C125.087236,68.597727 125.258549,68.555382 125.418741,68.4929781 C125.578933,68.4305742 125.710199,68.3391981 125.812544,68.2188475 C125.914888,68.0984969 125.96161,67.9402606 125.952711,67.7441336 C125.943811,67.5480066 125.872616,67.3875416 125.739123,67.2627336 C125.60563,67.1379255 125.434316,67.0376349 125.225177,66.9618585 C125.016038,66.8860821 124.777979,66.8214505 124.510993,66.7679613 C124.244007,66.7144721 123.972575,66.6565263 123.696689,66.5941224 C123.411904,66.5317185 123.138248,66.4559432 122.875711,66.3667946 C122.613175,66.277646 122.377341,66.1572971 122.168202,66.0057446 C121.959062,65.8541921 121.792199,65.6602965 121.667605,65.4240529 C121.543012,65.1878093 121.480716,64.8958518 121.480716,64.5481723 C121.480716,64.1737481 121.571934,63.859504 121.754375,63.6054306 C121.936816,63.3513572 122.1682,63.1463184 122.448536,62.9903083 C122.728871,62.8342983 123.04035,62.7250928 123.382982,62.6626889 C123.725614,62.600285 124.052668,62.5690833 124.364151,62.5690833 C124.720133,62.5690833 125.060535,62.6069708 125.385368,62.6827472 C125.710201,62.7585236 126.003881,62.8811011 126.266418,63.0504833 C126.528954,63.2198656 126.74699,63.4405053 126.920531,63.7124084 C127.094071,63.9843115 127.203089,64.3119278 127.247587,64.6952667 L125.659027,64.6952667 C125.587831,64.3297575 125.420967,64.0846026 125.158431,63.9597945 C124.895895,63.8349864 124.59554,63.7725834 124.257357,63.7725834 C124.150563,63.7725834 124.023747,63.7814981 123.876904,63.7993278 C123.730062,63.8171575 123.592121,63.8505878 123.463078,63.8996195 C123.334034,63.9486512 123.225017,64.0199689 123.136021,64.1135751 C123.047026,64.2071812 123.002529,64.3297587 123.002529,64.4813112 C123.002529,64.6685232 123.06705,64.8200737 123.196093,64.9359668 C123.325136,65.0518598 123.494225,65.1476932 123.703364,65.2234696 C123.912503,65.299246 124.150562,65.3638776 124.417548,65.4173668 C124.684534,65.470856 124.960416,65.5288018 125.245201,65.5912057 C125.521087,65.6536096 125.792518,65.7293849 126.059505,65.8185335 C126.326491,65.9076821 126.56455,66.028031 126.773689,66.1795835 C126.982828,66.331136 127.151917,66.5228027 127.28096,66.7545891 C127.410003,66.9863755 127.474524,67.2716466 127.474524,67.6104114 C127.474524,68.020495 127.38108,68.3681691 127.19419,68.6534447 C127.0073,68.9387203 126.764791,69.1705031 126.466656,69.3488003 C126.168522,69.5270976 125.837019,69.6563612 125.472138,69.7365948 C125.107257,69.8168284 124.746831,69.8569448 124.39085,69.8569448 C123.954772,69.8569448 123.552074,69.8079137 123.182744,69.7098504 C122.813413,69.611787 122.493034,69.4624654 122.221598,69.2618809 C121.950163,69.0612964 121.736577,68.8116842 121.580835,68.5130364 C121.425093,68.2143886 121.342773,67.8600284 121.333874,67.4499447 L122.855687,67.4499447 Z M114.04519,62.7562944 L115.486907,62.7562944 L115.486907,63.7725834 L115.513606,63.7993278 C115.744994,63.4159889 116.047574,63.115117 116.421354,62.8967028 C116.795135,62.6782886 117.208957,62.5690833 117.662833,62.5690833 C118.419294,62.5690833 119.015554,62.7652072 119.451631,63.1574611 C119.887709,63.5497151 120.105744,64.1380869 120.105744,64.9225945 L120.105744,69.6697337 L118.583931,69.6697337 L118.583931,65.3237612 C118.566132,64.7799547 118.45044,64.3854782 118.236851,64.1403195 C118.023262,63.8951608 117.689534,63.7725834 117.235658,63.7725834 C116.977571,63.7725834 116.746187,63.8193856 116.541497,63.9129917 C116.336808,64.0065978 116.16327,64.1358611 116.020877,64.3007862 C115.878484,64.4657112 115.767242,64.6596064 115.687146,64.8824779 C115.60705,65.1053493 115.567003,65.3415895 115.567003,65.5912057 L115.567003,69.6697337 L114.04519,69.6697337 L114.04519,62.7562944 Z M109.292861,69.8569448 C108.741089,69.8569448 108.249397,69.765569 107.81777,69.5828142 C107.386142,69.4000595 107.021267,69.1482187 106.723132,68.8272836 C106.424998,68.5063486 106.198063,68.1230153 106.042321,67.6772725 C105.886579,67.2315293 105.808709,66.7412194 105.808709,66.2063279 C105.808709,65.6803512 105.886579,65.1944985 106.042321,64.7487556 C106.198063,64.3030125 106.424998,63.9196795 106.723132,63.5987445 C107.021267,63.2778094 107.386142,63.0259686 107.81777,62.8432139 C108.249397,62.6604591 108.741089,62.5690833 109.292861,62.5690833 C109.844632,62.5690833 110.336324,62.6604591 110.767952,62.8432139 C111.199579,63.0259686 111.564455,63.2778094 111.862589,63.5987445 C112.160724,63.9196795 112.387658,64.3030125 112.5434,64.7487556 C112.699142,65.1944985 112.777012,65.6803512 112.777012,66.2063279 C112.777012,66.7412194 112.699142,67.2315293 112.5434,67.6772725 C112.387658,68.1230153 112.160724,68.5063486 111.862589,68.8272836 C111.564455,69.1482187 111.199579,69.4000595 110.767952,69.5828142 C110.336324,69.765569 109.844632,69.8569448 109.292861,69.8569448 L109.292861,69.8569448 Z M109.292861,68.6534447 C109.631043,68.6534447 109.924723,68.582127 110.17391,68.4394892 C110.423098,68.2968514 110.627784,68.1096422 110.787975,67.8778558 C110.948167,67.6460694 111.066084,67.3853136 111.14173,67.0955808 C111.217376,66.8058479 111.255199,66.5094333 111.255199,66.2063279 C111.255199,65.9121376 111.217376,65.6179516 111.14173,65.3237612 C111.066084,65.0295709 110.948167,64.7688151 110.787975,64.5414862 C110.627784,64.3141573 110.423098,64.1291767 110.17391,63.9865389 C109.924723,63.8439011 109.631043,63.7725834 109.292861,63.7725834 C108.954678,63.7725834 108.660998,63.8439011 108.411811,63.9865389 C108.162624,64.1291767 107.957938,64.3141573 107.797746,64.5414862 C107.637554,64.7688151 107.519637,65.0295709 107.443991,65.3237612 C107.368345,65.6179516 107.330523,65.9121376 107.330523,66.2063279 C107.330523,66.5094333 107.368345,66.8058479 107.443991,67.0955808 C107.519637,67.3853136 107.637554,67.6460694 107.797746,67.8778558 C107.957938,68.1096422 108.162624,68.2968514 108.411811,68.4394892 C108.660998,68.582127 108.954678,68.6534447 109.292861,68.6534447 L109.292861,68.6534447 Z M102.951972,62.7562944 L104.473785,62.7562944 L104.473785,69.6697337 L102.951972,69.6697337 L102.951972,62.7562944 Z M102.951972,60.1219665 L104.473785,60.1219665 L104.473785,61.5661666 L102.951972,61.5661666 L102.951972,60.1219665 Z M97.7724676,62.7562944 L98.9205021,62.7562944 L98.9205021,60.6835999 L100.442315,60.6835999 L100.442315,62.7562944 L101.817287,62.7562944 L101.817287,63.8929334 L100.442315,63.8929334 L100.442315,67.5836669 C100.442315,67.7441344 100.44899,67.8823127 100.462339,67.9982058 C100.475688,68.1140989 100.506836,68.2121611 100.555784,68.2923947 C100.604731,68.3726283 100.678152,68.4328028 100.776046,68.4729197 C100.873941,68.5130367 101.007432,68.5330947 101.176523,68.5330947 C101.283318,68.5330947 101.390111,68.5308661 101.496905,68.5264086 C101.6037,68.5219511 101.710492,68.5063503 101.817287,68.4796058 L101.817287,69.6563615 C101.648196,69.6741912 101.483557,69.6920206 101.323365,69.7098504 C101.163173,69.7276801 100.998534,69.7365948 100.829443,69.7365948 C100.428964,69.7365948 100.106361,69.6987073 99.8616235,69.6229309 C99.6168862,69.5471545 99.425549,69.4357206 99.2876062,69.2886253 C99.1496634,69.14153 99.0562196,68.9565495 99.0072722,68.7336781 C98.9583248,68.5108067 98.9294015,68.256737 98.9205021,67.9714614 L98.9205021,63.8929334 L97.7724676,63.8929334 L97.7724676,62.7562944 Z M96.8647194,69.6697337 L95.3696046,69.6697337 L95.3696046,68.7069336 L95.3429061,68.7069336 C95.1560159,69.0546131 94.8779095,69.3331984 94.5085787,69.5426976 C94.1392479,69.7521968 93.7632481,69.8569448 93.380568,69.8569448 C92.4728152,69.8569448 91.8164843,69.6318479 91.4115553,69.1816475 C91.0066263,68.7314472 90.8041649,68.0516993 90.8041649,67.1423835 L90.8041649,62.7562944 L92.3259782,62.7562944 L92.3259782,66.9952891 C92.3259782,67.6014995 92.4416703,68.0294063 92.6730584,68.2790225 C92.9044464,68.5286387 93.2292746,68.6534447 93.6475528,68.6534447 C93.9679362,68.6534447 94.2349182,68.6044136 94.4485071,68.5063503 C94.6620961,68.4082869 94.8356345,68.2767947 94.9691274,68.1118697 C95.1026204,67.9469447 95.198289,67.7485922 95.2561361,67.5168058 C95.3139832,67.2850194 95.3429061,67.0354072 95.3429061,66.7679613 L95.3429061,62.7562944 L96.8647194,62.7562944 L96.8647194,69.6697337 Z M87.6270461,60.1219665 L89.1488593,60.1219665 L89.1488593,69.6697337 L87.6270461,69.6697337 L87.6270461,60.1219665 Z M82.8346694,68.6534447 C83.1728519,68.6534447 83.466532,68.582127 83.7157191,68.4394892 C83.9649062,68.2968514 84.1695924,68.1096422 84.3297841,67.8778558 C84.4899758,67.6460694 84.6078928,67.3853136 84.6835389,67.0955808 C84.7591851,66.8058479 84.7970075,66.5094333 84.7970075,66.2063279 C84.7970075,65.9121376 84.7591851,65.6179516 84.6835389,65.3237612 C84.6078928,65.0295709 84.4899758,64.7688151 84.3297841,64.5414862 C84.1695924,64.3141573 83.9649062,64.1291767 83.7157191,63.9865389 C83.466532,63.8439011 83.1728519,63.7725834 82.8346694,63.7725834 C82.4964868,63.7725834 82.2028067,63.8439011 81.9536196,63.9865389 C81.7044325,64.1291767 81.4997463,64.3141573 81.3395546,64.5414862 C81.1793629,64.7688151 81.0614459,65.0295709 80.9857998,65.3237612 C80.9101536,65.6179516 80.8723313,65.9121376 80.8723313,66.2063279 C80.8723313,66.5094333 80.9101536,66.8058479 80.9857998,67.0955808 C81.0614459,67.3853136 81.1793629,67.6460694 81.3395546,67.8778558 C81.4997463,68.1096422 81.7044325,68.2968514 81.9536196,68.4394892 C82.2028067,68.582127 82.4964868,68.6534447 82.8346694,68.6534447 L82.8346694,68.6534447 Z M82.8346694,69.8569448 C82.2828982,69.8569448 81.7912059,69.765569 81.3595785,69.5828142 C80.927951,69.4000595 80.5630754,69.1482187 80.2649409,68.8272836 C79.9668064,68.5063486 79.7398716,68.1230153 79.5841297,67.6772725 C79.4283878,67.2315293 79.350518,66.7412194 79.350518,66.2063279 C79.350518,65.6803512 79.4283878,65.1944985 79.5841297,64.7487556 C79.7398716,64.3030125 79.9668064,63.9196795 80.2649409,63.5987445 C80.5630754,63.2778094 80.927951,63.0259686 81.3595785,62.8432139 C81.7912059,62.6604591 82.2828982,62.5690833 82.8346694,62.5690833 C83.3864406,62.5690833 83.8781328,62.6604591 84.3097603,62.8432139 C84.7413877,63.0259686 85.1062633,63.2778094 85.4043978,63.5987445 C85.7025323,63.9196795 85.9294671,64.3030125 86.085209,64.7487556 C86.2409509,65.1944985 86.3188207,65.6803512 86.3188207,66.2063279 C86.3188207,66.7412194 86.2409509,67.2315293 86.085209,67.6772725 C85.9294671,68.1230153 85.7025323,68.5063486 85.4043978,68.8272836 C85.1062633,69.1482187 84.7413877,69.4000595 84.3097603,69.5828142 C83.8781328,69.765569 83.3864406,69.8569448 82.8346694,69.8569448 L82.8346694,69.8569448 Z M73.8906794,67.4499447 C73.9351769,67.8956878 74.1042658,68.207703 74.3979504,68.3860003 C74.6916351,68.5642975 75.0431615,68.6534447 75.4525403,68.6534447 C75.5949329,68.6534447 75.7573469,68.6423014 75.9397875,68.6200142 C76.1222282,68.597727 76.2935415,68.555382 76.4537332,68.4929781 C76.6139249,68.4305742 76.7451911,68.3391981 76.8475358,68.2188475 C76.9498804,68.0984969 76.9966022,67.9402606 76.9877028,67.7441336 C76.9788034,67.5480066 76.9076079,67.3875416 76.7741149,67.2627336 C76.640622,67.1379255 76.4693084,67.0376349 76.2601692,66.9618585 C76.0510301,66.8860821 75.8129712,66.8214505 75.545985,66.7679613 C75.2789988,66.7144721 75.007567,66.6565263 74.7316814,66.5941224 C74.4468961,66.5317185 74.1732396,66.4559432 73.9107032,66.3667946 C73.6481669,66.277646 73.4123327,66.1572971 73.2031936,66.0057446 C72.9940544,65.8541921 72.8271907,65.6602965 72.7025971,65.4240529 C72.5780035,65.1878093 72.5157078,64.8958518 72.5157078,64.5481723 C72.5157078,64.1737481 72.6069265,63.859504 72.7893672,63.6054306 C72.9718078,63.3513572 73.2031921,63.1463184 73.4835276,62.9903083 C73.763863,62.8342983 74.0753422,62.7250928 74.4179743,62.6626889 C74.7606064,62.600285 75.0876596,62.5690833 75.3991433,62.5690833 C75.7551249,62.5690833 76.0955271,62.6069708 76.4203601,62.6827472 C76.7451931,62.7585236 77.0388735,62.8811011 77.3014099,63.0504833 C77.5639462,63.2198656 77.7819816,63.4405053 77.9555226,63.7124084 C78.1290635,63.9843115 78.2380814,64.3119278 78.2825789,64.6952667 L76.6940195,64.6952667 C76.6228232,64.3297575 76.4559594,64.0846026 76.1934231,63.9597945 C75.9308867,63.8349864 75.630532,63.7725834 75.2923494,63.7725834 C75.185555,63.7725834 75.0587386,63.7814981 74.9118961,63.7993278 C74.7650537,63.8171575 74.6271131,63.8505878 74.4980697,63.8996195 C74.3690263,63.9486512 74.2600088,64.0199689 74.1710134,64.1135751 C74.082018,64.2071812 74.037521,64.3297587 74.037521,64.4813112 C74.037521,64.6685232 74.1020416,64.8200737 74.231085,64.9359668 C74.3601283,65.0518598 74.5292169,65.1476932 74.738356,65.2234696 C74.9474951,65.299246 75.1855541,65.3638776 75.4525403,65.4173668 C75.7195265,65.470856 75.9954078,65.5288018 76.2801931,65.5912057 C76.5560787,65.6536096 76.8275105,65.7293849 77.0944967,65.8185335 C77.3614829,65.9076821 77.5995418,66.028031 77.808681,66.1795835 C78.0178201,66.331136 78.1869086,66.5228027 78.315952,66.7545891 C78.4449954,66.9863755 78.509516,67.2716466 78.509516,67.6104114 C78.509516,68.020495 78.4160722,68.3681691 78.229182,68.6534447 C78.0422918,68.9387203 77.799783,69.1705031 77.5016485,69.3488003 C77.2035139,69.5270976 76.8720112,69.6563612 76.5071302,69.7365948 C76.1422492,69.8168284 75.7818234,69.8569448 75.4258418,69.8569448 C74.9897645,69.8569448 74.5870665,69.8079137 74.2177357,69.7098504 C73.8484049,69.611787 73.5280263,69.4624654 73.2565905,69.2618809 C72.9851548,69.0612964 72.7715689,68.8116842 72.6158271,68.5130364 C72.4600852,68.2143886 72.3777655,67.8600284 72.3688661,67.4499447 L73.8906794,67.4499447 Z M61.3690934,62.7562944 L62.8108111,62.7562944 L62.8108111,63.7725834 L62.8375096,63.7993278 C63.0688977,63.4159889 63.3714772,63.115117 63.7452579,62.8967028 C64.1190385,62.6782886 64.5328607,62.5690833 64.9867371,62.5690833 C65.7431978,62.5690833 66.3394578,62.7652072 66.7755351,63.1574611 C67.2116124,63.5497151 67.4296478,64.1380869 67.4296478,64.9225945 L67.4296478,69.6697337 L65.9078346,69.6697337 L65.9078346,65.3237612 C65.8900355,64.7799547 65.7743433,64.3854782 65.5607543,64.1403195 C65.3471654,63.8951608 65.0134378,63.7725834 64.5595614,63.7725834 C64.3014749,63.7725834 64.0700903,63.8193856 63.865401,63.9129917 C63.6607117,64.0065978 63.4871733,64.1358611 63.3447807,64.3007862 C63.2023881,64.4657112 63.0911454,64.6596064 63.0110497,64.8824779 C62.930954,65.1053493 62.8909066,65.3415895 62.8909066,65.5912057 L62.8909066,69.6697337 L61.3690934,69.6697337 L61.3690934,62.7562944 Z M58.1919745,62.7562944 L59.7137877,62.7562944 L59.7137877,69.6697337 L58.1919745,69.6697337 L58.1919745,62.7562944 Z M58.1919745,60.1219665 L59.7137877,60.1219665 L59.7137877,61.5661666 L58.1919745,61.5661666 L58.1919745,60.1219665 Z M56.5099704,68.131928 C56.5099704,68.31914 56.5344438,68.4528611 56.5833912,68.5330947 C56.6323386,68.6133284 56.7280072,68.6534447 56.8703999,68.6534447 L57.0305907,68.6534447 C57.0928874,68.6534447 57.1640828,68.64453 57.2441786,68.6267003 L57.2441786,69.6831059 C57.1907813,69.7009356 57.1218109,69.7209937 57.0372654,69.7432809 C56.9527198,69.7655681 56.8659506,69.7856262 56.7769552,69.8034559 C56.6879598,69.8212856 56.5989658,69.8346579 56.5099704,69.8435726 C56.420975,69.8524873 56.34533,69.8569448 56.2830334,69.8569448 C55.9715496,69.8569448 55.7134668,69.7945418 55.5087775,69.6697337 C55.3040882,69.5449256 55.170597,69.3265148 55.1083004,69.0144948 C54.805716,69.3086851 54.4341661,69.5226387 53.9936389,69.6563615 C53.5531118,69.7900843 53.1281654,69.8569448 52.7187866,69.8569448 C52.4073029,69.8569448 52.1091729,69.8145998 51.8243876,69.7299087 C51.5396023,69.6452176 51.2881944,69.5204115 51.0701556,69.3554864 C50.8521168,69.1905614 50.6785787,68.9810653 50.5495353,68.726992 C50.4204919,68.4729186 50.3559713,68.1765039 50.3559713,67.8377391 C50.3559713,67.4098257 50.4338411,67.0621516 50.589583,66.7947058 C50.7453249,66.5272599 50.9500113,66.3177638 51.203648,66.1662113 C51.4572847,66.0146587 51.7420657,65.9054532 52.0579993,65.8385918 C52.3739329,65.7717304 52.6920864,65.7204707 53.0124699,65.6848112 C53.2883555,65.6313221 53.5508878,65.5934346 53.800075,65.5711474 C54.0492621,65.5488601 54.2695222,65.5109726 54.4608623,65.4574835 C54.6522023,65.4039943 54.8034921,65.3215332 54.9147364,65.2100973 C55.0259807,65.0986615 55.0816019,64.9315104 55.0816019,64.708639 C55.0816019,64.512512 55.0348801,64.352047 54.9414349,64.2272389 C54.8479896,64.1024309 54.7322975,64.0065976 54.5943547,63.9397362 C54.4564119,63.8728748 54.302897,63.8283012 54.1338059,63.8060139 C53.9647148,63.7837267 53.8045254,63.7725834 53.6532333,63.7725834 C53.2260554,63.7725834 52.8745291,63.8617306 52.5986435,64.0400278 C52.3227579,64.2183251 52.1670183,64.4946814 52.1314201,64.8691056 L50.6096069,64.8691056 C50.6363054,64.4233625 50.7430984,64.0534015 50.9299886,63.7592111 C51.1168788,63.4650208 51.3549381,63.2287806 51.6441729,63.0504833 C51.9334077,62.8721861 52.2604609,62.74738 52.6253419,62.6760611 C52.9902229,62.6047422 53.3639979,62.5690833 53.746678,62.5690833 C54.0848605,62.5690833 54.4185881,62.6047422 54.7478709,62.6760611 C55.0771537,62.74738 55.3730589,62.8632714 55.6355953,63.0237389 C55.8981316,63.1842064 56.1094924,63.3914739 56.2696841,63.6455472 C56.4298759,63.8996206 56.5099704,64.2094075 56.5099704,64.5749167 L56.5099704,68.131928 Z M54.9881572,66.2063279 C54.7567692,66.3578805 54.4719884,66.4492566 54.1338059,66.4804585 C53.7956234,66.5116605 53.4574463,66.558463 53.1192638,66.6208669 C52.9590721,66.6476113 52.8033325,66.6854991 52.6520404,66.7345307 C52.5007484,66.7835624 52.3672571,66.850423 52.2515633,66.9351141 C52.1358694,67.0198052 52.0446503,67.1312394 51.9779039,67.2694197 C51.9111574,67.4076 51.8777846,67.574751 51.8777846,67.770878 C51.8777846,67.9402603 51.9267314,68.0828961 52.0246262,68.1987892 C52.122521,68.3146822 52.2404382,68.4060583 52.378381,68.4729197 C52.5163238,68.5397811 52.6676136,68.5865836 52.8322551,68.6133281 C52.9968967,68.6400725 53.1459617,68.6534447 53.2794546,68.6534447 C53.4485458,68.6534447 53.6309836,68.6311578 53.8267734,68.5865836 C54.0225633,68.5420095 54.2072259,68.4662342 54.3807668,68.3592558 C54.5543078,68.2522775 54.6989232,68.1163281 54.8146171,67.951403 C54.930311,67.786478 54.9881572,67.583668 54.9881572,67.3429669 L54.9881572,66.2063279 Z M43.0672869,60.1219665 L44.5891002,60.1219665 L44.5891002,63.6656056 L44.6157987,63.6656056 C44.8026888,63.3535855 45.0807952,63.0928297 45.4501261,62.8833305 C45.8194569,62.6738313 46.2310543,62.5690833 46.6849307,62.5690833 C47.4413914,62.5690833 48.0376514,62.7652072 48.4737287,63.1574611 C48.909806,63.5497151 49.1278414,64.1380869 49.1278414,64.9225945 L49.1278414,69.6697337 L47.6060281,69.6697337 L47.6060281,65.3237612 C47.5882291,64.7799547 47.4725369,64.3854782 47.2589479,64.1403195 C47.045359,63.8951608 46.7116314,63.7725834 46.257755,63.7725834 C45.9996685,63.7725834 45.7682839,63.8193856 45.5635946,63.9129917 C45.3589053,64.0065978 45.1853669,64.1358611 45.0429743,64.3007862 C44.9005817,64.4657112 44.789339,64.6596064 44.7092433,64.8824779 C44.6291476,65.1053493 44.5891002,65.3415895 44.5891002,65.5912057 L44.5891002,69.6697337 L43.0672869,69.6697337 L43.0672869,60.1219665 Z M40.3039945,65.069689 C40.2416979,64.6417756 40.0703843,64.318617 39.7900488,64.1002028 C39.5097134,63.8817886 39.1559623,63.7725834 38.7287843,63.7725834 C38.5329945,63.7725834 38.3238585,63.8060136 38.1013701,63.872875 C37.8788818,63.9397364 37.6741953,64.0645425 37.4873051,64.2472973 C37.3004149,64.430052 37.1446753,64.6841217 37.0200818,65.009514 C36.8954882,65.3349063 36.8331924,65.7605845 36.8331924,66.2865613 C36.8331924,66.5718369 36.8665652,66.8571079 36.9333117,67.1423835 C37.0000582,67.4276592 37.106851,67.6817288 37.2536934,67.9046003 C37.4005359,68.1274717 37.5896481,68.307995 37.8210361,68.4461753 C38.0524241,68.5843556 38.3327553,68.6534447 38.6620381,68.6534447 C39.1070151,68.6534447 39.4741155,68.5152664 39.7633503,68.2389058 C40.0525852,67.9625452 40.2327982,67.5747545 40.3039945,67.0755224 L41.8258077,67.0755224 C41.6834151,67.9759231 41.3430129,68.6645858 40.804591,69.1415309 C40.266169,69.618476 39.5519918,69.8569448 38.6620381,69.8569448 C38.1191664,69.8569448 37.6408234,69.765569 37.226995,69.5828142 C36.8131666,69.4000595 36.463865,69.1504473 36.1790797,68.8339698 C35.8942944,68.5174922 35.6784841,68.140845 35.5316416,67.7040169 C35.3847992,67.2671888 35.3113792,66.7947083 35.3113792,66.2865613 C35.3113792,65.7694995 35.3825744,65.2836468 35.524967,64.828989 C35.6673597,64.3743311 35.8809452,63.9798545 36.1657305,63.6455472 C36.4505158,63.31124 36.8042669,63.0482556 37.226995,62.8565861 C37.649723,62.6649166 38.1458648,62.5690833 38.7154351,62.5690833 C39.1159143,62.5690833 39.4963639,62.620343 39.856795,62.7228639 C40.2172262,62.8253847 40.5376048,62.9791639 40.8179402,63.1842056 C41.0982756,63.3892473 41.3274352,63.6477744 41.505426,63.9597945 C41.6834168,64.2718145 41.7902096,64.6417756 41.8258077,65.069689 L40.3039945,65.069689 Z M28.5166166,60.1219665 L30.0384299,60.1219665 L30.0384299,65.551089 L32.7883731,62.7562944 L34.6572665,62.7562944 L32.0141172,65.2970168 L34.910902,69.6697337 L33.0553578,69.6697337 L30.9461781,66.3133057 L30.0384299,67.1958724 L30.0384299,69.6697337 L28.5166166,69.6697337 L28.5166166,60.1219665 Z M25.7132765,65.069689 C25.6509797,64.6417756 25.4796662,64.318617 25.1993308,64.1002028 C24.9189954,63.8817886 24.5652441,63.7725834 24.1380663,63.7725834 C23.9422765,63.7725834 23.7331405,63.8060136 23.5106521,63.872875 C23.2881637,63.9397364 23.0834774,64.0645425 22.8965871,64.2472973 C22.7096968,64.430052 22.5539573,64.6841217 22.4293638,65.009514 C22.3047702,65.3349063 22.2424744,65.7605845 22.2424744,66.2865613 C22.2424744,66.5718369 22.2758472,66.8571079 22.3425937,67.1423835 C22.4093402,67.4276592 22.5161331,67.6817288 22.6629754,67.9046003 C22.8098178,68.1274717 22.9989301,68.307995 23.2303181,68.4461753 C23.461706,68.5843556 23.7420373,68.6534447 24.0713201,68.6534447 C24.516297,68.6534447 24.8833974,68.5152664 25.1726323,68.2389058 C25.4618673,67.9625452 25.6420802,67.5747545 25.7132765,67.0755224 L27.2350897,67.0755224 C27.0926971,67.9759231 26.7522949,68.6645858 26.213873,69.1415309 C25.675451,69.618476 24.9612738,69.8569448 24.0713201,69.8569448 C23.5284484,69.8569448 23.0501054,69.765569 22.636277,69.5828142 C22.2224485,69.4000595 21.8731469,69.1504473 21.5883617,68.8339698 C21.3035765,68.5174922 21.087766,68.140845 20.9409236,67.7040169 C20.7940813,67.2671888 20.7206612,66.7947083 20.7206612,66.2865613 C20.7206612,65.7694995 20.7918564,65.2836468 20.934249,64.828989 C21.0766416,64.3743311 21.2902273,63.9798545 21.5750125,63.6455472 C21.8597977,63.31124 22.2135489,63.0482556 22.636277,62.8565861 C23.059005,62.6649166 23.5551467,62.5690833 24.1247171,62.5690833 C24.5251963,62.5690833 24.9056458,62.620343 25.266077,62.7228639 C25.6265082,62.8253847 25.9468868,62.9791639 26.2272222,63.1842056 C26.5075576,63.3892473 26.7367172,63.6477744 26.914708,63.9597945 C27.0926987,64.2718145 27.1994916,64.6417756 27.2350897,65.069689 L25.7132765,65.069689 Z M16.3020631,69.8569448 C15.7502918,69.8569448 15.2585998,69.765569 14.8269722,69.5828142 C14.3953447,69.4000595 14.0304692,69.1482187 13.7323347,68.8272836 C13.4342002,68.5063486 13.2072654,68.1230153 13.0515235,67.6772725 C12.8957816,67.2315293 12.8179118,66.7412194 12.8179118,66.2063279 C12.8179118,65.6803512 12.8957816,65.1944985 13.0515235,64.7487556 C13.2072654,64.3030125 13.4342002,63.9196795 13.7323347,63.5987445 C14.0304692,63.2778094 14.3953447,63.0259686 14.8269722,62.8432139 C15.2585998,62.6604591 15.7502918,62.5690833 16.3020631,62.5690833 C16.8538344,62.5690833 17.3455265,62.6604591 17.777154,62.8432139 C18.2087816,63.0259686 18.5736571,63.2778094 18.8717916,63.5987445 C19.1699261,63.9196795 19.3968609,64.3030125 19.5526028,64.7487556 C19.7083447,65.1944985 19.7862145,65.6803512 19.7862145,66.2063279 C19.7862145,66.7412194 19.7083447,67.2315293 19.5526028,67.6772725 C19.3968609,68.1230153 19.1699261,68.5063486 18.8717916,68.8272836 C18.5736571,69.1482187 18.2087816,69.4000595 17.777154,69.5828142 C17.3455265,69.765569 16.8538344,69.8569448 16.3020631,69.8569448 L16.3020631,69.8569448 Z M16.3020631,68.6534447 C16.6402455,68.6534447 16.9339259,68.582127 17.1831129,68.4394892 C17.4322999,68.2968514 17.6369862,68.1096422 17.7971779,67.8778558 C17.9573695,67.6460694 18.0752866,67.3853136 18.1509327,67.0955808 C18.2265788,66.8058479 18.2644012,66.5094333 18.2644012,66.2063279 C18.2644012,65.9121376 18.2265788,65.6179516 18.1509327,65.3237612 C18.0752866,65.0295709 17.9573695,64.7688151 17.7971779,64.5414862 C17.6369862,64.3141573 17.4322999,64.1291767 17.1831129,63.9865389 C16.9339259,63.8439011 16.6402455,63.7725834 16.3020631,63.7725834 C15.9638807,63.7725834 15.6702004,63.8439011 15.4210134,63.9865389 C15.1718263,64.1291767 14.9671401,64.3141573 14.8069484,64.5414862 C14.6467567,64.7688151 14.5288396,65.0295709 14.4531936,65.3237612 C14.3775475,65.6179516 14.339725,65.9121376 14.339725,66.2063279 C14.339725,66.5094333 14.3775475,66.8058479 14.4531936,67.0955808 C14.5288396,67.3853136 14.6467567,67.6460694 14.8069484,67.8778558 C14.9671401,68.1096422 15.1718263,68.2968514 15.4210134,68.4394892 C15.6702004,68.582127 15.9638807,68.6534447 16.3020631,68.6534447 L16.3020631,68.6534447 Z M9.9611747,60.1219665 L11.4829879,60.1219665 L11.4829879,69.6697337 L9.9611747,69.6697337 L9.9611747,60.1219665 Z M0.736850685,60.1219665 L5.36903655,60.1219665 C6.2233921,60.1219665 6.90864619,60.3180904 7.42481933,60.7103443 C7.94099247,61.1025983 8.19907518,61.6954273 8.19907518,62.48885 C8.19907518,62.9702523 8.08115809,63.3825586 7.84532035,63.7257806 C7.60948262,64.0690026 7.27353013,64.3342159 6.83745282,64.5214279 L6.83745282,64.5481723 C7.42482225,64.6729804 7.86979243,64.9515656 8.1723767,65.3839362 C8.47496097,65.8163069 8.62625082,66.3578765 8.62625082,67.0086613 C8.62625082,67.3830856 8.55950528,67.7329885 8.42601224,68.0583808 C8.2925192,68.3837731 8.08338321,68.6645872 7.79859802,68.9008309 C7.51381282,69.1370745 7.14893729,69.3242839 6.70396043,69.4624642 C6.25898358,69.6006445 5.72946907,69.6697337 5.11540101,69.6697337 L0.736850685,69.6697337 L0.736850685,60.1219665 Z M2.40550554,64.1202612 L5.12875025,64.1202612 C5.52922943,64.1202612 5.86295705,64.0065984 6.12994316,63.7792695 C6.39692928,63.5519405 6.53042033,63.2243245 6.53042033,62.7964111 C6.53042033,62.3150088 6.41027837,61.9762491 6.16999088,61.7801221 C5.92970339,61.5839952 5.58262665,61.4859332 5.12875025,61.4859332 L2.40550554,61.4859332 L2.40550554,64.1202612 Z M2.40550554,68.3057669 L5.35568731,68.3057669 C5.86296092,68.3057669 6.25675954,68.1742747 6.53709495,67.9112864 C6.81743035,67.648298 6.95759597,67.2761081 6.95759597,66.7947058 C6.95759597,66.3222182 6.81743035,65.958943 6.53709495,65.7048696 C6.25675954,65.4507962 5.86296092,65.3237612 5.35568731,65.3237612 L2.40550554,65.3237612 L2.40550554,68.3057669 Z" id="Combined-Shape"></path>
                <g id="blockfreight" transform="translate(1.000000, 0.000000)">
                    <path d="M334.934009,6.13289257 L334.934009,1.80727752 L334.905708,1.80727752 L333.405793,6.13289257 L332.415282,6.13289257 L330.915366,1.80727752 L330.887066,1.80727752 L330.887066,6.13289257 L329.528652,6.13289257 L329.528652,0.0296275003 L331.453072,0.0296275003 L332.896387,4.02934004 L334.339702,0.0296275003 L336.264123,0.0296275003 L336.264123,6.13289257 L334.934009,6.13289257 L334.934009,6.13289257 Z M327.123127,1.21472751 L327.123127,6.13289257 L325.679812,6.13289257 L325.679812,1.21472751 L324.010094,1.21472751 L324.010094,0.0296275003 L328.764544,0.0296275003 L328.764544,1.21472751 L327.123127,1.21472751 L327.123127,1.21472751 Z" id="trademark"></path>
                    <polygon id="period" points="334.537804 42.456208 334.537804 51.4925956 325.736412 51.4925956 325.736412 42.456208"></polygon>
                    <path d="M321.576269,21.1244077 L321.576269,26.6943778 L315.746408,26.6943778 L315.746408,41.7747755 C315.746408,43.1968955 315.97281,44.115348 316.425615,44.589388 C316.878419,45.063428 317.784029,45.300448 319.114143,45.300448 C319.566948,45.300448 319.991452,45.2708205 320.415956,45.241193 C320.840461,45.2115655 321.236665,45.1523105 321.604569,45.063428 L321.604569,51.5222231 C320.925362,51.6407331 320.189554,51.7296156 319.368846,51.7592431 C318.548137,51.7888706 317.755729,51.8184981 316.96332,51.8184981 C315.718107,51.8184981 314.557795,51.7296156 313.454084,51.5518506 C312.350372,51.3740856 311.388162,51.0481831 310.539153,50.5148881 C309.690144,50.0112205 309.039237,49.270533 308.558132,48.3520805 C308.077027,47.4040005 307.822325,46.189273 307.822325,44.648643 L307.822325,26.7240053 L302.982974,26.7240053 L302.982974,21.1540352 L307.822325,21.1540352 L307.822325,12.0583926 L315.803008,12.0583926 L315.803008,21.1540352 L321.576269,21.1540352 L321.576269,21.1244077 Z" id="t"></path>
                    <path d="M280.342737,9.5696826 L280.342737,25.3611403 L280.512538,25.3611403 C281.531349,23.5834903 282.804862,22.3095077 284.389679,21.5095652 C285.974496,20.7096227 287.502712,20.2948377 289.002627,20.2948377 C291.12515,20.2948377 292.879768,20.5911127 294.238182,21.2132902 C295.596596,21.8354677 296.672008,22.6650377 297.464416,23.7316278 C298.256824,24.7982178 298.79453,26.1314553 299.105833,27.6720853 C299.417137,29.2127153 299.586938,30.9311103 299.586938,32.8272704 L299.586938,51.5222231 L291.606255,51.5222231 L291.606255,34.3679004 C291.606255,31.8495628 291.238351,29.9830303 290.474243,28.7683028 C289.738435,27.5239478 288.408321,26.9313978 286.483901,26.9313978 C284.304778,26.9313978 282.748262,27.6128303 281.757752,28.9460678 C280.767241,30.3089328 280.286136,32.5309954 280.286136,35.6122554 L280.286136,51.5222231 L272.305453,51.5222231 L272.305453,9.5696826 L280.342737,9.5696826 L280.342737,9.5696826 Z" id="h"></path>
                    <path d="M265.485081,53.7442856 C265.173778,55.3145431 264.494571,56.7662906 263.44746,58.1291556 C262.400349,59.4920207 260.872133,60.6178657 258.891112,61.5659457 C256.910091,62.5140257 254.249863,62.9880657 250.910428,62.9880657 C249.495414,62.9880657 248.052098,62.8103007 246.552183,62.4251432 C245.080567,62.0399857 243.722153,61.4770632 242.50524,60.6771207 C241.288328,59.9068057 240.269517,58.8698431 239.477109,57.6551156 C238.6847,56.4107606 238.203595,54.9293856 238.090394,53.2109906 L246.014477,53.2109906 C246.382381,54.7812481 247.118189,55.8774656 248.1936,56.4700156 C249.269011,57.0625656 250.542525,57.3884681 251.957539,57.3884681 C254.193263,57.3884681 255.83468,56.6774081 256.853491,55.2849156 C257.872301,53.8627956 258.381707,52.0851456 258.353406,49.9519655 L258.353406,45.9226255 L258.240205,45.9226255 C257.391196,47.5225105 256.145983,48.7076105 254.561167,49.4779255 C252.97635,50.2482405 251.306633,50.6333981 249.523714,50.6333981 C247.344591,50.6333981 245.476771,50.218613 243.920255,49.4186705 C242.363739,48.618728 241.061925,47.5225105 240.043115,46.130018 C239.024304,44.7375255 238.288496,43.108013 237.835691,41.271108 C237.354586,39.4045754 237.128184,37.4491604 237.128184,35.3752354 C237.128184,33.4198204 237.411187,31.5236603 237.948893,29.7163828 C238.486598,27.9091053 239.279007,26.2795928 240.326118,24.8871003 C241.373228,23.4946078 242.675042,22.3983902 244.231558,21.5688202 C245.788075,20.7392502 247.570993,20.3244652 249.580314,20.3244652 C251.476434,20.3244652 253.174452,20.7096227 254.589467,21.4503102 C256.032782,22.1909977 257.249695,23.4353528 258.211905,25.2130028 L258.325106,25.2130028 L258.325106,21.1540352 L265.909586,21.1540352 L265.909586,49.5964355 C265.966186,50.7815356 265.796384,52.1740281 265.485081,53.7442856 L265.485081,53.7442856 Z M254.561167,43.641308 C255.410176,43.167268 256.145983,42.5450905 256.683689,41.7747755 C257.249695,40.9748329 257.674199,40.1156354 257.957202,39.1083004 C258.240205,38.1009654 258.381707,37.0640029 258.381707,35.9677854 C258.381707,34.7234304 258.268505,33.5383304 258.042103,32.4124854 C257.815701,31.2866403 257.447797,30.3089328 256.910091,29.4497353 C256.372386,28.5905378 255.693178,27.9091053 254.84417,27.4054378 C253.995161,26.9017703 252.891449,26.6351228 251.589636,26.6351228 C250.457624,26.6351228 249.495414,26.8721428 248.703005,27.3461828 C247.882297,27.8202228 247.23139,28.4424003 246.693684,29.2423428 C246.155979,30.0422853 245.759774,30.9607378 245.505072,31.9977003 C245.250369,33.0346629 245.137168,34.1308804 245.137168,35.2567254 C245.137168,36.3529429 245.250369,37.4491604 245.448471,38.5157504 C245.646573,39.5823404 246.014477,40.5600479 246.523882,41.4192455 C247.033288,42.278443 247.684195,42.989503 248.504903,43.522798 C249.325612,44.0857205 250.344422,44.352368 251.589636,44.352368 C252.721647,44.352368 253.712158,44.115348 254.561167,43.641308 L254.561167,43.641308 Z" id="g"></path>
                    <path d="M223.827045,16.4432627 L223.827045,9.5696826 L231.807728,9.5696826 L231.807728,16.4432627 L223.827045,16.4432627 L223.827045,16.4432627 Z M231.779428,21.1244077 L231.779428,51.4925956 L223.798744,51.4925956 L223.798744,21.1244077 L231.779428,21.1244077 L231.779428,21.1244077 Z" id="i"></path>
                    <path d="M199.913294,44.233858 C201.101907,45.4485855 202.828225,46.070763 205.063948,46.070763 C206.677065,46.070763 208.06378,45.655978 209.224092,44.7967805 C210.384404,43.9672105 211.091911,43.048758 211.346614,42.1303055 L218.365087,42.1303055 C217.233076,45.774488 215.506758,48.381708 213.186133,49.9519655 C210.865509,51.5222231 208.06378,52.2925381 204.780945,52.2925381 C202.488621,52.2925381 200.451,51.9073806 198.611481,51.1370656 C196.771961,50.3667506 195.215445,49.3001605 193.941932,47.8780405 C192.668418,46.4559205 191.677908,44.7967805 190.998701,42.811738 C190.319494,40.8563229 189.95159,38.6935154 189.95159,36.3529429 C189.95159,34.0716254 190.319494,31.9680728 191.027001,30.0126578 C191.734508,28.0572428 192.753319,26.3684753 194.055133,24.9167278 C195.356946,23.4946078 196.941763,22.3687627 198.752982,21.5391927 C200.564201,20.7096227 202.573522,20.2948377 204.780945,20.2948377 C207.243071,20.2948377 209.393893,20.7985052 211.233413,21.8058402 C213.072932,22.8131752 214.572848,24.1464128 215.76146,25.8351803 C216.950073,27.5239478 217.799082,29.4497353 218.308487,31.5829153 C218.846193,33.7457229 219.015994,35.9974129 218.874493,38.3379854 L197.932273,38.3379854 C198.073775,41.0637154 198.724682,43.0191305 199.913294,44.233858 L199.913294,44.233858 Z M208.912788,28.2350078 C207.950578,27.1387903 206.507263,26.6054953 204.554543,26.6054953 C203.281029,26.6054953 202.233918,26.8425153 201.38491,27.2869278 C200.535901,27.7313403 199.856694,28.2942628 199.375589,28.9756953 C198.866183,29.6571278 198.52658,30.3385603 198.300177,31.0792478 C198.102075,31.8199353 197.960574,32.5013679 197.932273,33.0939179 L210.893809,33.0939179 C210.525905,30.9607378 209.874999,29.3608528 208.912788,28.2350078 L208.912788,28.2350078 Z" id="e"></path>
                    <path d="M178.122066,21.1244077 L178.122066,26.7536328 L178.235267,26.7536328 C178.603171,25.8055528 179.112576,24.9463553 179.763483,24.1464128 C180.38609,23.3464703 181.121897,22.6650377 181.942606,22.1021152 C182.763315,21.5391927 183.640624,21.0947802 184.574533,20.7688777 C185.508443,20.4429752 186.470653,20.2948377 187.489464,20.2948377 C187.998869,20.2948377 188.593176,20.3837202 189.215782,20.5911127 L189.215782,28.3535178 C188.847878,28.2646353 188.395074,28.2053803 187.885668,28.1461253 C187.347963,28.0868703 186.866858,28.0572428 186.357452,28.0572428 C184.885837,28.0572428 183.668924,28.3238903 182.650113,28.8275578 C181.659603,29.3312253 180.838894,30.0422853 180.216288,30.9014828 C179.593681,31.7903078 179.169177,32.8272704 178.886174,33.9827429 C178.631471,35.1678429 178.48997,36.4418254 178.48997,37.8046904 L178.48997,51.4925956 L170.509286,51.4925956 L170.509286,21.1244077 L178.122066,21.1244077 L178.122066,21.1244077 Z" id="r"></path>
                    <path d="M148.831259,26.7240053 L148.831259,21.1540352 L153.614009,21.1540352 L153.614009,18.8134627 C153.614009,16.1173602 154.406417,13.8952977 156.019534,12.1769026 C157.632651,10.4585076 160.066477,9.5993101 163.321011,9.5993101 C164.028518,9.5993101 164.736026,9.62893761 165.443533,9.68819261 C166.15104,9.74744761 166.830248,9.80670261 167.509455,9.83633011 L167.509455,16.0581052 C166.575545,15.9395952 165.585035,15.8803402 164.594524,15.8803402 C163.519113,15.8803402 162.726705,16.1469877 162.2739,16.6802827 C161.821095,17.2135777 161.566392,18.1024027 161.566392,19.3467577 L161.566392,21.1540352 L167.05665,21.1540352 L167.05665,26.7240053 L161.566392,26.7240053 L161.566392,51.5222231 L153.585709,51.5222231 L153.585709,26.7240053 L148.831259,26.7240053 L148.831259,26.7240053 Z" id="f"></path>
                    <polygon id="k" points="128.341844 9.5696826 128.341844 32.0865829 138.38845 21.1540352 147.812448 21.1540352 136.860234 32.3236029 149.029361 51.5222231 139.37896 51.5222231 131.398276 37.9528279 128.313544 41.0637154 128.313544 51.5222231 120.332861 51.5222231 120.332861 9.5696826"></polygon>
                    <path d="M101.286761,26.6054953 C100.013248,26.6054953 98.9378364,26.9017703 98.0888275,27.5239478 C97.2398186,28.1461253 96.5323112,28.9164403 95.9946056,29.8645203 C95.4568999,30.8126003 95.0606958,31.8791903 94.8342934,33.0346629 C94.6078911,34.1901354 94.4946899,35.3456079 94.4946899,36.4714529 C94.4946899,37.5676704 94.6078911,38.6935154 94.8342934,39.8193604 C95.0606958,40.9452054 95.4285997,41.982168 95.938005,42.9006205 C96.4474103,43.819073 97.1266174,44.5597605 97.9756263,45.1523105 C98.8246352,45.7448605 99.8717462,46.0411355 101.116959,46.0411355 C103.013079,46.0411355 104.484695,45.478213 105.531805,44.352368 C106.550616,43.226523 107.201523,41.745148 107.456226,39.8489879 L115.153906,39.8489879 C114.644501,43.878328 113.144585,46.959588 110.654159,49.0631405 C108.192033,51.1666931 105.0224,52.2332831 101.17356,52.2332831 C98.994437,52.2332831 97.0134163,51.8481256 95.2021973,51.0778106 C93.3909783,50.3074956 91.834462,49.2409055 90.589249,47.8780405 C89.3157356,46.5151755 88.3252252,44.885663 87.6177178,42.9598755 C86.9102104,41.0637154 86.5423066,38.9897904 86.5423066,36.7084729 C86.5423066,34.3679004 86.8819101,32.1754654 87.5328169,30.1607953 C88.1837238,28.1461253 89.1459338,26.3981028 90.4194472,24.9167278 C91.6929605,23.4353528 93.2494768,22.3095077 95.0889961,21.4799377 C96.9285154,20.6503677 99.0227373,20.2355827 101.371662,20.2355827 C103.09798,20.2355827 104.739397,20.4726027 106.352514,20.9466427 C107.937331,21.4206827 109.352346,22.1317427 110.625859,23.0798228 C111.871072,24.0279028 112.889883,25.2426303 113.682291,26.6647503 C114.474699,28.0868703 114.927504,29.7756378 115.040705,31.7606803 L107.229823,31.7606803 C106.663817,28.3535178 104.711097,26.6054953 101.286761,26.6054953 L101.286761,26.6054953 Z" id="c"></path>
                    <path d="M53.3177585,29.7460103 C54.0252659,27.7609678 55.0440766,26.0722003 56.3458902,24.6797078 C57.6477039,23.2872153 59.2325205,22.2206252 61.0720398,21.4503102 C62.911559,20.6799952 64.9491804,20.2948377 67.2415044,20.2948377 C69.5338284,20.2948377 71.59975,20.6799952 73.4392693,21.4503102 C75.2787886,22.2206252 76.8636052,23.2872153 78.1937191,24.6797078 C79.4955327,26.0722003 80.5143434,27.7609678 81.2218508,29.7460103 C81.9293582,31.7310528 82.2972621,33.9234879 82.2972621,36.3529429 C82.2972621,38.7823979 81.9293582,40.9748329 81.2218508,42.930248 C80.5143434,44.885663 79.4955327,46.5744305 78.1937191,47.966923 C76.8919055,49.3594155 75.3070889,50.4260056 73.4392693,51.1666931 C71.59975,51.9073806 69.5055281,52.2925381 67.2415044,52.2925381 C64.9491804,52.2925381 62.911559,51.9370081 61.0720398,51.1666931 C59.2325205,50.4260056 57.6760042,49.3594155 56.3458902,47.966923 C55.0440766,46.5744305 54.0252659,44.9152905 53.3177585,42.930248 C52.6102511,40.9748329 52.2423473,38.7823979 52.2423473,36.3529429 C52.2423473,33.9234879 52.6102511,31.7310528 53.3177585,29.7460103 L53.3177585,29.7460103 Z M60.5626344,39.9082429 C60.7890368,41.0637154 61.1569406,42.100678 61.7229466,43.0191305 C62.2606522,43.937583 62.9964599,44.6782705 63.8737691,45.2115655 C64.7793786,45.774488 65.8830902,46.0411355 67.2415044,46.0411355 C68.5999186,46.0411355 69.7319305,45.774488 70.63754,45.2115655 C71.5431494,44.6782705 72.2789572,43.937583 72.8166628,43.0191305 C73.3543684,42.100678 73.7505726,41.0637154 73.9769749,39.9082429 C74.2033773,38.7527704 74.3165785,37.5676704 74.3165785,36.3529429 C74.3165785,35.1382154 74.2033773,33.9531154 73.9769749,32.7680154 C73.7505726,31.5829153 73.3543684,30.5459528 72.8166628,29.6571278 C72.2789572,28.7683028 71.5431494,28.0276153 70.63754,27.4646928 C69.7319305,26.9017703 68.5999186,26.6054953 67.2415044,26.6054953 C65.8830902,26.6054953 64.7793786,26.9017703 63.8737691,27.4646928 C62.9681596,28.0276153 62.2606522,28.7683028 61.7229466,29.6571278 C61.1852409,30.5459528 60.7890368,31.5829153 60.5626344,32.7680154 C60.336232,33.9531154 60.2230309,35.1382154 60.2230309,36.3529429 C60.2230309,37.5676704 60.336232,38.7527704 60.5626344,39.9082429 L60.5626344,39.9082429 Z" id="o"></path>
                    <polygon id="l" points="46.8652909 9.5696826 46.8652909 51.5222231 38.8846073 51.5222231 38.8846073 9.5696826"></polygon>
                    <path d="M18.8479974,9.5696826 C20.7441173,9.5696826 22.4987357,9.74744761 24.055252,10.1029776 C25.6400686,10.4585076 26.9701825,11.0214301 28.1021944,11.8510001 C29.2342062,12.6509426 30.0832151,13.7175326 30.7058217,15.0507702 C31.3284282,16.3840077 31.6397314,18.0135202 31.6397314,19.9689352 C31.6397314,22.0724877 31.1869267,23.8501378 30.2530169,25.2722578 C29.3474074,26.6943778 27.9889932,27.8498503 26.1777742,28.7386753 C28.6399,29.4793628 30.4794193,30.7829728 31.696332,32.6495054 C32.9132448,34.5160379 33.507551,36.7677279 33.507551,39.3749479 C33.507551,41.4785005 33.1113469,43.3154055 32.3189386,44.8560355 C31.5265303,46.3966655 30.4794193,47.670648 29.1493054,48.6483555 C27.8191914,49.626063 26.3192757,50.3371231 24.5929576,50.8111631 C22.8949398,51.2852031 21.1403215,51.5222231 19.3574028,51.5222231 L6.04462164e-14,51.5222231 L6.04462164e-14,9.5696826 L18.8479974,9.5696826 L18.8479974,9.5696826 Z M17.7442859,26.5462403 C19.3291025,26.5462403 20.6026158,26.1610828 21.6214265,25.3611403 C22.6402372,24.5908253 23.1496425,23.3168428 23.1496425,21.5391927 C23.1496425,20.5614852 22.9798407,19.7615427 22.6402372,19.1393652 C22.3006336,18.5171877 21.8478289,18.0135202 21.2818229,17.6579902 C20.715817,17.3024602 20.0649102,17.0654402 19.3574028,16.9173027 C18.6215951,16.7691652 17.8574871,16.7099102 17.0933791,16.7099102 L8.82969249,16.7099102 L8.82969249,26.5166128 L17.7442859,26.5166128 L17.7442859,26.5462403 Z M18.2253909,44.352368 C19.0743998,44.352368 19.8951084,44.2634855 20.6875167,44.0857205 C21.479925,43.9079555 22.1591321,43.6116805 22.7534384,43.1968955 C23.3477446,42.7821105 23.8288496,42.219188 24.1967535,41.5377555 C24.5646573,40.8266954 24.7344591,39.9378704 24.7344591,38.8416529 C24.7344591,36.6788454 24.1401529,35.1382154 22.9798407,34.2197629 C21.8195286,33.3013104 20.2913126,32.8272704 18.3668924,32.8272704 L8.7730919,32.8272704 L8.7730919,44.352368 L18.2253909,44.352368 L18.2253909,44.352368 Z" id="B"></path>
                </g>
            </g>
            <g id="container-mark" transform="translate(81.263149, 94.412447)" fill="#FFFFFF">
                <path d="M326.866184,187.308125 L207.059805,217.393558 L207.059805,2.59642742 L326.866184,25.4138121 L326.866184,187.308125 Z M204.818134,216.706698 L2.23702931,159.60478 L2.23702931,39.8086395 L204.818134,2.59642742 L204.818134,216.706698 Z M207.059805,0.204596532 L205.945931,0 L204.818134,0.204596532 L0,37.8454871 L0,161.407178 L204.818134,219.132629 L205.639616,219.371325 L206.855594,219.712319 C206.864877,219.770775 206.8788,219.819488 206.888082,219.858459 L329.107854,189.154365 L329.107854,23.4506597 L207.059805,0.204596532 Z" id="container-frame"></path>
                <path d="M215.966392,191.590807 L265.770462,181.589934 L265.770462,193.80727 L215.966392,206.00512 L215.966392,191.590807 Z M215.966392,146.014494 L265.770462,140.914195 L265.770462,179.212717 L215.966392,189.203848 L215.966392,146.014494 Z M215.966392,134.937053 L265.770462,131.887591 L265.770462,138.541849 L215.966392,143.661634 L215.966392,134.937053 Z M215.966392,88.1867457 L265.770462,88.1867457 L265.770462,129.524988 L215.966392,132.574451 L215.966392,88.1867457 Z M215.966392,76.9631645 L265.770462,77.4990126 L265.770462,85.8338856 L215.966392,85.8338856 L215.966392,76.9631645 Z M215.966392,29.9936464 L265.770462,35.9756593 L265.770462,75.1510238 L215.966392,74.6054331 L215.966392,29.9936464 Z M215.966392,17.9662931 L265.770462,25.2099846 L265.770462,33.6081851 L215.966392,27.6359149 L215.966392,17.9662931 Z M268.012132,181.161256 L268.012132,178.764553 L268.012132,140.694984 L268.012132,138.322639 L268.012132,131.74145 L268.012132,129.378848 L268.012132,88.1867457 L268.012132,85.8338856 L268.012132,77.5282407 L268.012132,75.1802519 L268.012132,36.2435833 L268.012132,33.8761091 L268.012132,25.5363648 L271.339829,26.018628 L271.339829,34.2755595 L271.339829,36.6430337 L271.339829,75.2143513 L271.339829,77.5574688 L271.339829,85.8338856 L271.339829,88.1867457 L271.339829,129.179122 L271.339829,131.546597 L271.339829,137.981645 L271.339829,140.339376 L271.339829,178.092308 L271.339829,180.48901 L271.339829,192.457907 L268.012132,193.26655 L268.012132,181.161256 Z M273.576859,180.040846 L273.576859,177.644144 L273.576859,140.115294 L273.576859,137.742949 L273.576859,131.405327 L273.576859,129.047596 L273.576859,88.1867457 L273.576859,85.8338856 L273.576859,77.5866968 L273.576859,75.2387081 L273.576859,36.9109577 L273.576859,34.5434835 L273.576859,26.3401369 L277.364029,26.8954703 L277.364029,34.9965187 L277.364029,37.3639929 L277.364029,75.2728075 L277.364029,77.6256676 L277.364029,85.8338856 L277.364029,88.1867457 L277.364029,128.818643 L277.364029,131.176374 L277.364029,137.362984 L277.364029,139.730458 L277.364029,176.879342 L277.364029,179.280916 L277.364029,190.962404 L273.576859,191.887959 L273.576859,180.040846 Z M279.605699,178.823009 L320.600886,170.600177 L320.600886,180.391583 L279.605699,190.431427 L279.605699,178.823009 Z M279.605699,139.506376 L320.600886,135.278048 L320.600886,168.203475 L279.605699,176.43605 L279.605699,139.506376 Z M279.605699,131.039977 L320.600886,128.526362 L320.600886,132.925187 L279.605699,137.13403 L279.605699,131.039977 Z M279.605699,88.1867457 L320.600886,88.1867457 L320.600886,126.163759 L279.605699,128.672502 L279.605699,88.1867457 Z M279.605699,77.6500243 L320.600886,78.1030595 L320.600886,85.8338856 L279.605699,85.8338856 L279.605699,77.6500243 Z M279.605699,37.6367883 L320.600886,42.547105 L320.600886,75.7501994 L279.605699,75.2922929 L279.605699,37.6367883 Z M279.605699,27.2121078 L320.600886,33.1746353 L320.600886,40.1893736 L279.605699,35.2644428 L279.605699,27.2121078 Z M268.012132,195.672995 L271.339829,194.864352 L273.576859,194.31389 L322.837915,182.267051 L322.837915,135.063708 L322.837915,132.696234 L322.837915,31.12867 L213.734004,15.2724388 L213.734004,208.97177 L265.779744,196.223457 L268.012132,195.672995 Z" id="container-doors"></path>
                <path d="M124.401598,28.0881811 L136.222581,26.256555 L136.222581,187.006102 L124.401598,183.713072 L124.401598,28.0881811 Z M122.164569,183.084668 L108.6078,179.32886 L108.6078,30.5238541 L122.164569,28.4291753 L122.164569,183.084668 Z M106.370771,178.700457 L91.5933822,174.598783 L91.5933822,33.1738663 L106.370771,30.8843337 L106.370771,178.700457 Z M89.3563529,173.97038 L78.458957,170.935531 L78.458957,35.1954749 L89.3563529,33.5148605 L89.3563529,173.97038 Z M76.2219277,170.31687 L65.2734792,167.282022 L65.2734792,37.2463115 L76.2219277,35.5510831 L76.2219277,170.31687 Z M63.0225265,166.643875 L54.1533086,164.178974 L54.1533086,38.956154 L63.0225265,37.5921771 L63.0225265,166.643875 Z M51.9116382,163.560313 L43.3023241,161.168483 L43.3023241,40.6465111 L51.9116382,39.3166336 L51.9116382,163.560313 Z M41.0560125,160.540079 L34.0525328,158.581798 L34.0525328,42.0738154 L41.0560125,40.9923766 L41.0560125,160.540079 Z M31.8201446,157.97288 L23.8652312,155.76616 L23.8652312,43.6570029 L31.8201446,42.419681 L31.8201446,157.97288 Z M21.6235608,155.137756 L16.3094559,153.661738 L16.3094559,44.8212546 L21.6235608,43.9979971 L21.6235608,155.137756 Z M14.0770677,153.043077 L10.0207116,151.912925 L10.0207116,45.8003951 L14.0770677,45.1768628 L14.0770677,153.043077 Z M138.468893,25.9009467 L151.635806,23.8598527 L151.635806,191.278272 L138.468893,187.624763 L138.468893,25.9009467 Z M153.868194,23.5237299 L167.967976,21.3413668 L167.967976,195.837852 L153.868194,191.916419 L153.868194,23.5237299 Z M170.209647,20.9906299 L183.571488,18.9251792 L183.571488,200.163607 L170.209647,196.456513 L170.209647,20.9906299 Z M185.803876,18.5793137 L193.809842,17.3371204 L193.809842,202.998731 L185.803876,200.772526 L185.803876,18.5793137 Z M137.638129,189.82174 L194.649888,205.6731 L196.051512,206.062807 L196.051512,14.614038 L185.803876,16.2020968 L183.571488,16.5528337 L170.209647,18.6182844 L167.977259,18.9592786 L153.872835,21.146513 L151.635806,21.4875072 L138.478175,23.5334725 L136.231863,23.8842095 L124.401598,25.7158356 L122.164569,26.0568298 L108.6078,28.1612512 L106.370771,28.5119882 L91.5980234,30.8063921 L89.3563529,31.142515 L78.4728804,32.8328721 L76.2219277,33.1884803 L65.2734792,34.8788374 L63.0318088,35.224703 L54.1533086,36.5984225 L51.9162793,36.9540308 L42.2998379,38.43492 L41.0652948,38.43492 L41.0652948,38.6346452 L8.74439823,43.6375175 L7.78368232,43.7885292 L7.78368232,153.73968 L136.231863,189.46126 L137.638129,189.82174 Z" id="container-sides"></path>
            </g>
        </g>
    </g>
</svg>