<?xml version="1.0" encoding="UTF-8"?>
<svg width="500px" height="500px" viewBox="0 0 500 500" version="1.1" xmlns="http://www.w3.org/2000/svg" xmlns:xlink="http://www.w3.org/1999/xlink">
    <!-- Generator: Sketch 41.2 (35397) - http://www.bohemiancoding.com/sketch -->
    <title>blockfreight_square_brandmark</title>
    <desc>Created with Sketch.</desc>
    <defs></defs>
    <g id="Page-1" stroke="none" stroke-width="1" fill="none" fill-rule="evenodd">
        <g id="blockfreight_square_brandmark">
            <path d="M0,0 L500,0 L500,500 L0,500 L0,0 Z" id="Combined-Shape" fill="#43B5EF"></path>
            <g id="blockfreight_brandmark" transform="translate(80.263149, 333.878033)" fill="#FFFFFF">
                <g id="blockfreight">
                    <path d="M334.934009,6.13289257 L334.934009,1.80727752 L334.905708,1.80727752 L333.405793,6.13289257 L332.415282,6.13289257 L330.915366,1.80727752 L330.887066,1.80727752 L330.887066,6.13289257 L329.528652,6.13289257 L329.528652,0.0296275003 L331.453072,0.0296275003 L332.896387,4.02934004 L334.339702,0.0296275003 L336.264123,0.0296275003 L336.264123,6.13289257 L334.934009,6.13289257 L334.934009,6.13289257 Z M327.123127,1.21472751 L327.123127,6.13289257 L325.679812,6.13289257 L325.679812,1.21472751 L324.010094,1.21472751 L324.010094,0.0296275003 L328.764544,0.0296275003 L328.764544,1.21472751 L327.123127,1.21472751 L327.123127,1.21472751 Z" id="trademark"></path>
                    <polygon id="period" points="334.537804 42.456208 334.537804 51.4925956 325.736412 51.4925956 325.736412 42.456208"></polygon>
                    <path d="M321.576269,21.1244077 L321.576269,26.6943778 L315.746408,26.6943778 L315.746408,41.7747755 C315.746408,43.1968955 315.97281,44.115348 316.425615,44.589388 C316.878419,45.063428 317.784029,45.300448 319.114143,45.300448 C319.566948,45.300448 319.991452,45.2708205 320.415956,45.241193 C320.840461,45.2115655 321.236665,45.1523105 321.604569,45.063428 L321.604569,51.5222231 C320.925362,51.6407331 320.189554,51.7296156 319.368846,51.7592431 C318.548137,51.7888706 317.755729,51.8184981 316.96332,51.8184981 C315.718107,51.8184981 314.557795,51.7296156 313.454084,51.5518506 C312.350372,51.3740856 311.388162,51.0481831 310.539153,50.5148881 C309.690144,50.0112205 309.039237,49.270533 308.558132,48.3520805 C308.077027,47.4040005 307.822325,46.189273 307.822325,44.648643 L307.822325,26.7240053 L302.982974,26.7240053 L302.982974,21.1540352 L307.822325,21.1540352 L307.822325,12.0583926 L315.803008,12.0583926 L315.803008,21.1540352 L321.576269,21.1540352 L321.576269,21.1244077 Z" id="t"></path>
                    <path d="M280.342737,9.5696826 L280.342737,25.3611403 L280.512538,25.3611403 C281.531349,23.5834903 282.804862,22.3095077 284.389679,21.5095652 C285.974496,20.7096227 287.502712,20.2948377 289.002627,20.2948377 C291.12515,20.2948377 292.879768,20.5911127 294.238182,21.2132902 C295.596596,21.8354677 296.672008,22.6650377 297.464416,23.7316278 C298.256824,24.7982178 298.79453,26.1314553 299.105833,27.6720853 C299.417137,29.2127153 299.586938,30.9311103 299.586938,32.8272704 L299.586938,51.5222231 L291.606255,51.5222231 L291.606255,34.3679004 C291.606255,31.8495628 291.238351,29.9830303 290.474243,28.7683028 C289.738435,27.5239478 288.408321,26.9313978 286.483901,26.9313978 C284.304778,26.9313978 282.748262,27.6128303 281.757752,28.9460678 C280.767241,30.3089328 280.286136,32.5309954 280.286136,35.6122554 L280.286136,51.5222231 L272.305453,51.5222231 L272.305453,9.5696826 L280.342737,9.5696826 L280.342737,9.5696826 Z" id="h"></path>
                    <path d="M265.485081,53.7442856 C265.173778,55.3145431 264.494571,56.7662906 263.44746,58.1291556 C262.400349,59.4920207 260.872133,60.6178657 258.891112,61.5659457 C256.910091,62.5140257 254.249863,62.9880657 250.910428,62.9880657 C249.495414,62.9880657 248.052098,62.8103007 246.552183,62.4251432 C245.080567,62.0399857 243.722153,61.4770632 242.50524,60.6771207 C241.288328,59.9068057 240.269517,58.8698431 239.477109,57.6551156 C238.6847,56.4107606 238.203595,54.9293856 238.090394,53.2109906 L246.014477,53.2109906 C246.382381,54.7812481 247.118189,55.8774656 248.1936,56.4700156 C249.269011,57.0625656 250.542525,57.3884681 251.957539,57.3884681 C254.193263,57.3884681 255.83468,56.6774081 256.853491,55.2849156 C257.872301,53.8627956 258.381707,52.0851456 258.353406,49.9519655 L258.353406,45.9226255 L258.240205,45.9226255 C257.391196,47.5225105 256.145983,48.7076105 254.561167,49.4779255 C252.97635,50.2482405 251.306633,50.6333981 249.523714,50.6333981 C247.344591,50.6333981 245.476771,50.218613 243.920255,49.4186705 C242.363739,48.618728 241.061925,47.5225105 240.043115,46.130018 C239.024304,44.7375255 238.288496,43.108013 237.835691,41.271108 C237.354586,39.4045754 237.128184,37.4491604 237.128184,35.3752354 C237.128184,33.4198204 237.411187,31.5236603 237.948893,29.7163828 C238.486598,27.9091053 239.279007,26.2795928 240.326118,24.8871003 C241.373228,23.4946078 242.675042,22.3983902 244.231558,21.5688202 C245.788075,20.7392502 247.570993,20.3244652 249.580314,20.3244652 C251.476434,20.3244652 253.174452,20.7096227 254.589467,21.4503102 C256.032782,22.1909977 257.249695,23.4353528 258.211905,25.2130028 L258.325106,25.2130028 L258.325106,21.1540352 L265.909586,21.1540352 L265.909586,49.5964355 C265.966186,50.7815356 265.796384,52.1740281 265.485081,53.7442856 L265.485081,53.7442856 Z M254.561167,43.641308 C255.410176,43.167268 256.145983,42.5450905 256.683689,41.7747755 C257.249695,40.9748329 257.674199,40.1156354 257.957202,39.1083004 C258.240205,38.1009654 258.381707,37.0640029 258.381707,35.9677854 C258.381707,34.7234304 258.268505,33.5383304 258.042103,32.4124854 C257.815701,31.2866403 257.447797,30.3089328 256.910091,29.4497353 C256.372386,28.5905378 255.693178,27.9091053 254.84417,27.4054378 C253.995161,26.9017703 252.891449,26.6351228 251.589636,26.6351228 C250.457624,26.6351228 249.495414,26.8721428 248.703005,27.3461828 C247.882297,27.8202228 247.23139,28.4424003 246.693684,29.2423428 C246.155979,30.0422853 245.759774,30.9607378 245.505072,31.9977003 C245.250369,33.0346629 245.137168,34.1308804 245.137168,35.2567254 C245.137168,36.3529429 245.250369,37.4491604 245.448471,38.5157504 C245.646573,39.5823404 246.014477,40.5600479 246.523882,41.4192455 C247.033288,42.278443 247.684195,42.989503 248.504903,43.522798 C249.325612,44.0857205 250.344422,44.352368 251.589636,44.352368 C252.721647,44.352368 253.712158,44.115348 254.561167,43.641308 L254.561167,43.641308 Z" id="g"></path>
                    <path d="M223.827045,16.4432627 L223.827045,9.5696826 L231.807728,9.5696826 L231.807728,16.4432627 L223.827045,16.4432627 L223.827045,16.4432627 Z M231.779428,21.1244077 L231.779428,51.4925956 L223.798744,51.4925956 L223.798744,21.1244077 L231.779428,21.1244077 L231.779428,21.1244077 Z" id="i"></path>
                    <path d="M199.913294,44.233858 C201.101907,45.4485855 202.828225,46.070763 205.063948,46.070763 C206.677065,46.070763 208.06378,45.655978 209.224092,44.7967805 C210.384404,43.9672105 211.091911,43.048758 211.346614,42.1303055 L218.365087,42.1303055 C217.233076,45.774488 215.506758,48.381708 213.186133,49.9519655 C210.865509,51.5222231 208.06378,52.2925381 204.780945,52.2925381 C202.488621,52.2925381 200.451,51.9073806 198.611481,51.1370656 C196.771961,50.3667506 195.215445,49.3001605 193.941932,47.8780405 C192.668418,46.4559205 191.677908,44.7967805 190.998701,42.811738 C190.319494,40.8563229 189.95159,38.6935154 189.95159,36.3529429 C189.95159,34.0716254 190.319494,31.9680728 191.027001,30.0126578 C191.734508,28.0572428 192.753319,26.3684753 194.055133,24.9167278 C195.356946,23.4946078 196.941763,22.3687627 198.752982,21.5391927 C200.564201,20.7096227 202.573522,20.2948377 204.780945,20.2948377 C207.243071,20.2948377 209.393893,20.7985052 211.233413,21.8058402 C213.072932,22.8131752 214.572848,24.1464128 215.76146,25.8351803 C216.950073,27.5239478 217.799082,29.4497353 218.308487,31.5829153 C218.846193,33.7457229 219.015994,35.9974129 218.874493,38.3379854 L197.932273,38.3379854 C198.073775,41.0637154 198.724682,43.0191305 199.913294,44.233858 L199.913294,44.233858 Z M208.912788,28.2350078 C207.950578,27.1387903 206.507263,26.6054953 204.554543,26.6054953 C203.281029,26.6054953 202.233918,26.8425153 201.38491,27.2869278 C200.535901,27.7313403 199.856694,28.2942628 199.375589,28.9756953 C198.866183,29.6571278 198.52658,30.3385603 198.300177,31.0792478 C198.102075,31.8199353 197.960574,32.5013679 197.932273,33.0939179 L210.893809,33.0939179 C210.525905,30.9607378 209.874999,29.3608528 208.912788,28.2350078 L208.912788,28.2350078 Z" id="e"></path>
                    <path d="M178.122066,21.1244077 L178.122066,26.7536328 L178.235267,26.7536328 C178.603171,25.8055528 179.112576,24.9463553 179.763483,24.1464128 C180.38609,23.3464703 181.121897,22.6650377 181.942606,22.1021152 C182.763315,21.5391927 183.640624,21.0947802 184.574533,20.7688777 C185.508443,20.4429752 186.470653,20.2948377 187.489464,20.2948377 C187.998869,20.2948377 188.593176,20.3837202 189.215782,20.5911127 L189.215782,28.3535178 C188.847878,28.2646353 188.395074,28.2053803 187.885668,28.1461253 C187.347963,28.0868703 186.866858,28.0572428 186.357452,28.0572428 C184.885837,28.0572428 183.668924,28.3238903 182.650113,28.8275578 C181.659603,29.3312253 180.838894,30.0422853 180.216288,30.9014828 C179.593681,31.7903078 179.169177,32.8272704 178.886174,33.9827429 C178.631471,35.1678429 178.48997,36.4418254 178.48997,37.8046904 L178.48997,51.4925956 L170.509286,51.4925956 L170.509286,21.1244077 L178.122066,21.1244077 L178.122066,21.1244077 Z" id="r"></path>
                    <path d="M148.831259,26.7240053 L148.831259,21.1540352 L153.614009,21.1540352 L153.614009,18.8134627 C153.614009,16.1173602 154.406417,13.8952977 156.019534,12.1769026 C157.632651,10.4585076 160.066477,9.5993101 163.321011,9.5993101 C164.028518,9.5993101 164.736026,9.62893761 165.443533,9.68819261 C166.15104,9.74744761 166.830248,9.80670261 167.509455,9.83633011 L167.509455,16.0581052 C166.575545,15.9395952 165.585035,15.8803402 164.594524,15.8803402 C163.519113,15.8803402 162.726705,16.1469877 162.2739,16.6802827 C161.821095,17.2135777 161.566392,18.1024027 161.566392,19.3467577 L161.566392,21.1540352 L167.05665,21.1540352 L167.05665,26.7240053 L161.566392,26.7240053 L161.566392,51.5222231 L153.585709,51.5222231 L153.585709,26.7240053 L148.831259,26.7240053 L148.831259,26.7240053 Z" id="f"></path>
                    <polygon id="k" points="128.341844 9.5696826 128.341844 32.0865829 138.38845 21.1540352 147.812448 21.1540352 136.860234 32.3236029 149.029361 51.5222231 139.37896 51.5222231 131.398276 37.9528279 128.313544 41.0637154 128.313544 51.5222231 120.332861 51.5222231 120.332861 9.5696826"></polygon>
                    <path d="M101.286761,26.6054953 C100.013248,26.6054953 98.9378364,26.9017703 98.0888275,27.5239478 C97.2398186,28.1461253 96.5323112,28.9164403 95.9946056,29.8645203 C95.4568999,30.8126003 95.0606958,31.8791903 94.8342934,33.0346629 C94.6078911,34.1901354 94.4946899,35.3456079 94.4946899,36.4714529 C94.4946899,37.5676704 94.6078911,38.6935154 94.8342934,39.8193604 C95.0606958,40.9452054 95.4285997,41.982168 95.938005,42.9006205 C96.4474103,43.819073 97.1266174,44.5597605 97.9756263,45.1523105 C98.8246352,45.7448605 99.8717462,46.0411355 101.116959,46.0411355 C103.013079,46.0411355 104.484695,45.478213 105.531805,44.352368 C106.550616,43.226523 107.201523,41.745148 107.456226,39.8489879 L115.153906,39.8489879 C114.644501,43.878328 113.144585,46.959588 110.654159,49.0631405 C108.192033,51.1666931 105.0224,52.2332831 101.17356,52.2332831 C98.994437,52.2332831 97.0134163,51.8481256 95.2021973,51.0778106 C93.3909783,50.3074956 91.834462,49.2409055 90.589249,47.8780405 C89.3157356,46.5151755 88.3252252,44.885663 87.6177178,42.9598755 C86.9102104,41.0637154 86.5423066,38.9897904 86.5423066,36.7084729 C86.5423066,34.3679004 86.8819101,32.1754654 87.5328169,30.1607953 C88.1837238,28.1461253 89.1459338,26.3981028 90.4194472,24.9167278 C91.6929605,23.4353528 93.2494768,22.3095077 95.0889961,21.4799377 C96.9285154,20.6503677 99.0227373,20.2355827 101.371662,20.2355827 C103.09798,20.2355827 104.739397,20.4726027 106.352514,20.9466427 C107.937331,21.4206827 109.352346,22.1317427 110.625859,23.0798228 C111.871072,24.0279028 112.889883,25.2426303 113.682291,26.6647503 C114.474699,28.0868703 114.927504,29.7756378 115.040705,31.7606803 L107.229823,31.7606803 C106.663817,28.3535178 104.711097,26.6054953 101.286761,26.6054953 L101.286761,26.6054953 Z" id="c"></path>
                    <path d="M53.3177585,29.7460103 C54.0252659,27.7609678 55.0440766,26.0722003 56.3458902,24.6797078 C57.6477039,23.2872153 59.2325205,22.2206252 61.0720398,21.4503102 C62.911559,20.6799952 64.9491804,20.2948377 67.2415044,20.2948377 C69.5338284,20.2948377 71.59975,20.6799952 73.4392693,21.4503102 C75.2787886,22.2206252 76.8636052,23.2872153 78.1937191,24.6797078 C79.4955327,26.0722003 80.5143434,27.7609678 81.2218508,29.7460103 C81.9293582,31.7310528 82.2972621,33.9234879 82.2972621,36.3529429 C82.2972621,38.7823979 81.9293582,40.9748329 81.2218508,42.930248 C80.5143434,44.885663 79.4955327,46.5744305 78.1937191,47.966923 C76.8919055,49.3594155 75.3070889,50.4260056 73.4392693,51.1666931 C71.59975,51.9073806 69.5055281,52.2925381 67.2415044,52.2925381 C64.9491804,52.2925381 62.911559,51.9370081 61.0720398,51.1666931 C59.2325205,50.4260056 57.6760042,49.3594155 56.3458902,47.966923 C55.0440766,46.5744305 54.0252659,44.9152905 53.3177585,42.930248 C52.6102511,40.9748329 52.2423473,38.7823979 52.2423473,36.3529429 C52.2423473,33.9234879 52.6102511,31.7310528 53.3177585,29.7460103 L53.3177585,29.7460103 Z M60.5626344,39.9082429 C60.7890368,41.0637154 61.1569406,42.100678 61.7229466,43.0191305 C62.2606522,43.937583 62.9964599,44.6782705 63.8737691,45.2115655 C64.7793786,45.774488 65.8830902,46.0411355 67.2415044,46.0411355 C68.5999186,46.0411355 69.7319305,45.774488 70.63754,45.2115655 C71.5431494,44.6782705 72.2789572,43.937583 72.8166628,43.0191305 C73.3543684,42.100678 73.7505726,41.0637154 73.9769749,39.9082429 C74.2033773,38.7527704 74.3165785,37.5676704 74.3165785,36.3529429 C74.3165785,35.1382154 74.2033773,33.9531154 73.9769749,32.7680154 C73.7505726,31.5829153 73.3543684,30.5459528 72.8166628,29.6571278 C72.2789572,28.7683028 71.5431494,28.0276153 70.63754,27.4646928 C69.7319305,26.9017703 68.5999186,26.6054953 67.2415044,26.6054953 C65.8830902,26.6054953 64.7793786,26.9017703 63.8737691,27.4646928 C62.9681596,28.0276153 62.2606522,28.7683028 61.7229466,29.6571278 C61.1852409,30.5459528 60.7890368,31.5829153 60.5626344,32.7680154 C60.336232,33.9531154 60.2230309,35.1382154 60.2230309,36.3529429 C60.2230309,37.5676704 60.336232,38.7527704 60.5626344,39.9082429 L60.5626344,39.9082429 Z" id="o"></path>
                    <polygon id="l" points="46.8652909 9.5696826 46.8652909 51.5222231 38.8846073 51.5222231 38.8846073 9.5696826"></polygon>
                    <path d="M18.8479974,9.5696826 C20.7441173,9.5696826 22.4987357,9.74744761 24.055252,10.1029776 C25.6400686,10.4585076 26.9701825,11.0214301 28.1021944,11.8510001 C29.2342062,12.6509426 30.0832151,13.7175326 30.7058217,15.0507702 C31.3284282,16.3840077 31.6397314,18.0135202 31.6397314,19.9689352 C31.6397314,22.0724877 31.1869267,23.8501378 30.2530169,25.2722578 C29.3474074,26.6943778 27.9889932,27.8498503 26.1777742,28.7386753 C28.6399,29.4793628 30.4794193,30.7829728 31.696332,32.6495054 C32.9132448,34.5160379 33.507551,36.7677279 33.507551,39.3749479 C33.507551,41.4785005 33.1113469,43.3154055 32.3189386,44.8560355 C31.5265303,46.3966655 30.4794193,47.670648 29.1493054,48.6483555 C27.8191914,49.626063 26.3192757,50.3371231 24.5929576,50.8111631 C22.8949398,51.2852031 21.1403215,51.5222231 19.3574028,51.5222231 L6.04462164e-14,51.5222231 L6.04462164e-14,9.5696826 L18.8479974,9.5696826 L18.8479974,9.5696826 Z M17.7442859,26.5462403 C19.3291025,26.5462403 20.6026158,26.1610828 21.6214265,25.3611403 C22.6402372,24.5908253 23.1496425,23.3168428 23.1496425,21.5391927 C23.1496425,20.5614852 22.9798407,19.7615427 22.6402372,19.1393652 C22.3006336,18.5171877 21.8478289,18.0135202 21.2818229,17.6579902 C20.715817,17.3024602 20.0649102,17.0654402 19.3574028,16.9173027 C18.6215951,16.7691652 17.8574871,16.7099102 17.0933791,16.7099102 L8.82969249,16.7099102 L8.82969249,26.5166128 L17.7442859,26.5166128 L17.7442859,26.5462403 Z M18.2253909,44.352368 C19.0743998,44.352368 19.8951084,44.2634855 20.6875167,44.0857205 C21.479925,43.9079555 22.1591321,43.6116805 22.7534384,43.1968955 C23.3477446,42.7821105 23.8288496,42.219188 24.1967535,41.5377555 C24.5646573,40.8266954 24.7344591,39.9378704 24.7344591,38.8416529 C24.7344591,36.6788454 24.1401529,35.1382154 22.9798407,34.2197629 C21.8195286,33.3013104 20.2913126,32.8272704 18.3668924,32.8272704 L8.7730919,32.8272704 L8.7730919,44.352368 L18.2253909,44.352368 L18.2253909,44.352368 Z" id="B"></path>
                </g>
            </g>
            <g id="container-mark" transform="translate(80.263149, 93.412447)" fill="#FFFFFF">
                <path d="M326.866184,187.308125 L207.059805,217.393558 L207.059805,2.59642742 L326.866184,25.4138121 L326.866184,187.308125 Z M204.818134,216.706698 L2.23702931,159.60478 L2.23702931,39.8086395 L204.818134,2.59642742 L204.818134,216.706698 Z M207.059805,0.204596532 L205.945931,0 L204.818134,0.204596532 L0,37.8454871 L0,161.407178 L204.818134,219.132629 L205.639616,219.371325 L206.855594,219.712319 C206.864877,219.770775 206.8788,219.819488 206.888082,219.858459 L329.107854,189.154365 L329.107854,23.4506597 L207.059805,0.204596532 Z" id="container-frame"></path>
                <path d="M215.966392,191.590807 L265.770462,181.589934 L265.770462,193.80727 L215.966392,206.00512 L215.966392,191.590807 Z M215.966392,146.014494 L265.770462,140.914195 L265.770462,179.212717 L215.966392,189.203848 L215.966392,146.014494 Z M215.966392,134.937053 L265.770462,131.887591 L265.770462,138.541849 L215.966392,143.661634 L215.966392,134.937053 Z M215.966392,88.1867457 L265.770462,88.1867457 L265.770462,129.524988 L215.966392,132.574451 L215.966392,88.1867457 Z M215.966392,76.9631645 L265.770462,77.4990126 L265.770462,85.8338856 L215.966392,85.8338856 L215.966392,76.9631645 Z M215.966392,29.9936464 L265.770462,35.9756593 L265.770462,75.1510238 L215.966392,74.6054331 L215.966392,29.9936464 Z M215.966392,17.9662931 L265.770462,25.2099846 L265.770462,33.6081851 L215.966392,27.6359149 L215.966392,17.9662931 Z M268.012132,181.161256 L268.012132,178.764553 L268.012132,140.694984 L268.012132,138.322639 L268.012132,131.74145 L268.012132,129.378848 L268.012132,88.1867457 L268.012132,85.8338856 L268.012132,77.5282407 L268.012132,75.1802519 L268.012132,36.2435833 L268.012132,33.8761091 L268.012132,25.5363648 L271.339829,26.018628 L271.339829,34.2755595 L271.339829,36.6430337 L271.339829,75.2143513 L271.339829,77.5574688 L271.339829,85.8338856 L271.339829,88.1867457 L271.339829,129.179122 L271.339829,131.546597 L271.339829,137.981645 L271.339829,140.339376 L271.339829,178.092308 L271.339829,180.48901 L271.339829,192.457907 L268.012132,193.26655 L268.012132,181.161256 Z M273.576859,180.040846 L273.576859,177.644144 L273.576859,140.115294 L273.576859,137.742949 L273.576859,131.405327 L273.576859,129.047596 L273.576859,88.1867457 L273.576859,85.8338856 L273.576859,77.5866968 L273.576859,75.2387081 L273.576859,36.9109577 L273.576859,34.5434835 L273.576859,26.3401369 L277.364029,26.8954703 L277.364029,34.9965187 L277.364029,37.3639929 L277.364029,75.2728075 L277.364029,77.6256676 L277.364029,85.8338856 L277.364029,88.1867457 L277.364029,128.818643 L277.364029,131.176374 L277.364029,137.362984 L277.364029,139.730458 L277.364029,176.879342 L277.364029,179.280916 L277.364029,190.962404 L273.576859,191.887959 L273.576859,180.040846 Z M279.605699,178.823009 L320.600886,170.600177 L320.600886,180.391583 L279.605699,190.431427 L279.605699,178.823009 Z M279.605699,139.506376 L320.600886,135.278048 L320.600886,168.203475 L279.605699,176.43605 L279.605699,139.506376 Z M279.605699,131.039977 L320.600886,128.526362 L320.600886,132.925187 L279.605699,137.13403 L279.605699,131.039977 Z M279.605699,88.1867457 L320.600886,88.1867457 L320.600886,126.163759 L279.605699,128.672502 L279.605699,88.1867457 Z M279.605699,77.6500243 L320.600886,78.1030595 L320.600886,85.8338856 L279.605699,85.8338856 L279.605699,77.6500243 Z M279.605699,37.6367883 L320.600886,42.547105 L320.600886,75.7501994 L279.605699,75.2922929 L279.605699,37.6367883 Z M279.605699,27.2121078 L320.600886,33.1746353 L320.600886,40.1893736 L279.605699,35.2644428 L279.605699,27.2121078 Z M268.012132,195.672995 L271.339829,194.864352 L273.576859,194.31389 L322.837915,182.267051 L322.837915,135.063708 L322.837915,132.696234 L322.837915,31.12867 L213.734004,15.2724388 L213.734004,208.97177 L265.779744,196.223457 L268.012132,195.672995 Z" id="container-doors"></path>
                <path d="M124.401598,28.0881811 L136.222581,26.256555 L136.222581,187.006102 L124.401598,183.713072 L124.401598,28.0881811 Z M122.164569,183.084668 L108.6078,179.32886 L108.6078,30.5238541 L122.164569,28.4291753 L122.164569,183.084668 Z M106.370771,178.700457 L91.5933822,174.598783 L91.5933822,33.1738663 L106.370771,30.8843337 L106.370771,178.700457 Z M89.3563529,173.97038 L78.458957,170.935531 L78.458957,35.1954749 L89.3563529,33.5148605 L89.3563529,173.97038 Z M76.2219277,170.31687 L65.2734792,167.282022 L65.2734792,37.2463115 L76.2219277,35.5510831 L76.2219277,170.31687 Z M63.0225265,166.643875 L54.1533086,164.178974 L54.1533086,38.956154 L63.0225265,37.5921771 L63.0225265,166.643875 Z M51.9116382,163.560313 L43.3023241,161.168483 L43.3023241,40.6465111 L51.9116382,39.3166336 L51.9116382,163.560313 Z M41.0560125,160.540079 L34.0525328,158.581798 L34.0525328,42.0738154 L41.0560125,40.9923766 L41.0560125,160.540079 Z M31.8201446,157.97288 L23.8652312,155.76616 L23.8652312,43.6570029 L31.8201446,42.419681 L31.8201446,157.97288 Z M21.6235608,155.137756 L16.3094559,153.661738 L16.3094559,44.8212546 L21.6235608,43.9979971 L21.6235608,155.137756 Z M14.0770677,153.043077 L10.0207116,151.912925 L10.0207116,45.8003951 L14.0770677,45.1768628 L14.0770677,153.043077 Z M138.468893,25.9009467 L151.635806,23.8598527 L151.635806,191.278272 L138.468893,187.624763 L138.468893,25.9009467 Z M153.868194,23.5237299 L167.967976,21.3413668 L167.967976,195.837852 L153.868194,191.916419 L153.868194,23.5237299 Z M170.209647,20.9906299 L183.571488,18.9251792 L183.571488,200.163607 L170.209647,196.456513 L170.209647,20.9906299 Z M185.803876,18.5793137 L193.809842,17.3371204 L193.809842,202.998731 L185.803876,200.772526 L185.803876,18.5793137 Z M137.638129,189.82174 L194.649888,205.6731 L196.051512,206.062807 L196.051512,14.614038 L185.803876,16.2020968 L183.571488,16.5528337 L170.209647,18.6182844 L167.977259,18.9592786 L153.872835,21.146513 L151.635806,21.4875072 L138.478175,23.5334725 L136.231863,23.8842095 L124.401598,25.7158356 L122.164569,26.0568298 L108.6078,28.1612512 L106.370771,28.5119882 L91.5980234,30.8063921 L89.3563529,31.142515 L78.4728804,32.8328721 L76.2219277,33.1884803 L65.2734792,34.8788374 L63.0318088,35.224703 L54.1533086,36.5984225 L51.9162793,36.9540308 L42.2998379,38.43492 L41.0652948,38.43492 L41.0652948,38.6346452 L8.74439823,43.6375175 L7.78368232,43.7885292 L7.78368232,153.73968 L136.231863,189.46126 L137.638129,189.82174 Z" id="container-sides"></path>
            </g>
        </g>
    </g>
</svg>