<?xml version="1.0" encoding="utf-8"?>
<!-- Generator: Adobe Illustrator 21.1.0, SVG Export Plug-In . SVG Version: 6.00 Build 0)  -->
<svg version="1.1" baseProfile="tiny" id="Layer_1" xmlns="http://www.w3.org/2000/svg" xmlns:xlink="http://www.w3.org/1999/xlink"
	 x="0px" y="0px" viewBox="0 0 2644.3 656.2" xml:space="preserve">
<g>
	<g id="blockfreight_brandmark" transform="translate(939.757530, 130.845771)">
		<g id="Page-1" transform="translate(0.000000, 0.000000)">
			<path id="XMLID_315_" fill="#FFFFFF" d="M163.8,107.4c8.7,0,16.8,0.8,24,2.4c7.3,1.6,13.4,4.1,18.7,7.7c5.2,3.5,9.1,8.2,12,14.1
				c2.9,5.9,4.3,13.1,4.3,21.7c0,9.3-2.1,17.1-6.4,23.4c-4.2,6.3-10.4,11.4-18.8,15.3c11.4,3.3,19.8,9,25.5,17.3
				c5.6,8.2,8.4,18.2,8.4,29.7c0,9.3-1.8,17.4-5.5,24.2s-8.5,12.4-14.6,16.7c-6.1,4.3-13.1,7.5-21,9.6c-7.8,2.1-15.9,3.1-24.1,3.1
				H76.8V107.4H163.8L163.8,107.4z M158.7,182.4c7.3,0,13.2-1.7,17.9-5.2c4.7-3.4,7-9,7-16.9c0-4.3-0.8-7.9-2.3-10.6
				c-1.6-2.7-3.7-5-6.3-6.5c-2.6-1.6-5.6-2.6-8.9-3.3c-3.4-0.7-6.9-0.9-10.4-0.9h-38.1v43.3L158.7,182.4L158.7,182.4z M160.9,261
				c3.9,0,7.7-0.4,11.4-1.2c3.7-0.8,6.8-2.1,9.5-3.9s5-4.3,6.7-7.3c1.7-3.1,2.5-7.1,2.5-11.9c0-9.6-2.7-16.4-8.1-20.4
				c-5.4-4.1-12.4-6.1-21.3-6.1h-44.2V261H160.9L160.9,261z"/>
			<polygon id="XMLID_313_" fill="#FFFFFF" points="293,107.4 293,292.7 256.2,292.7 256.2,107.4 			"/>
			<path id="XMLID_308_" fill="#FFFFFF" d="M322.7,196.5c3.3-8.8,8-16.2,14-22.4c6-6.1,13.3-10.9,21.8-14.3
				c8.5-3.4,17.9-5.1,28.5-5.1s20.1,1.7,28.6,5.1s15.8,8.1,21.9,14.3c6,6.1,10.7,13.6,14,22.4c3.3,8.8,5,18.4,5,29.2s-1.7,20.4-5,29
				s-8,16.1-14,22.2s-13.3,10.9-21.9,14.1c-8.5,3.3-18.1,5-28.6,5c-10.6,0-20-1.6-28.5-5c-8.5-3.3-15.7-8-21.8-14.1
				c-6-6.1-10.7-13.5-14-22.2c-3.3-8.6-5-18.3-5-29S319.5,205.3,322.7,196.5L322.7,196.5z M356.1,241.4c1,5.1,2.7,9.7,5.4,13.7
				c2.5,4.1,5.9,7.3,9.9,9.7c4.2,2.5,9.3,3.7,15.5,3.7s11.5-1.2,15.7-3.7c4.2-2.4,7.6-5.6,10.1-9.7s4.3-8.6,5.4-13.7
				c1-5.1,1.6-10.3,1.6-15.7s-0.5-10.6-1.6-15.8c-1-5.2-2.9-9.8-5.4-13.7s-5.9-7.2-10.1-9.7s-9.4-3.8-15.7-3.8s-11.4,1.3-15.5,3.8
				s-7.4,5.8-9.9,9.7s-4.3,8.5-5.4,13.7c-1,5.2-1.6,10.5-1.6,15.8C354.6,231.1,355.1,236.3,356.1,241.4L356.1,241.4z"/>
			<path id="XMLID_304_" fill="#FFFFFF" d="M544,182.6c-5.9,0-10.8,1.3-14.7,4.1c-3.9,2.7-7.2,6.1-9.7,10.3s-4.3,8.9-5.4,14
				c-1,5.1-1.6,10.2-1.6,15.2c0,4.8,0.5,9.8,1.6,14.8c1,5,2.7,9.6,5.1,13.6c2.3,4.1,5.5,7.3,9.4,9.9s8.7,3.9,14.5,3.9
				c8.7,0,15.5-2.5,20.4-7.5c4.7-5,7.7-11.5,8.9-19.9H608c-2.3,17.8-9.3,31.4-20.8,40.7c-11.4,9.3-26,14-43.7,14
				c-10.1,0-19.2-1.7-27.5-5.1c-8.4-3.4-15.5-8.1-21.3-14.1c-5.9-6-10.4-13.2-13.7-21.7c-3.3-8.4-5-17.5-5-27.6
				c0-10.3,1.6-20,4.6-28.9s7.4-16.6,13.3-23.2c5.9-6.5,13.1-11.5,21.5-15.2c8.5-3.7,18.1-5.5,29-5.5c8,0,15.5,1,23,3.1
				c7.3,2.1,13.8,5.2,19.7,9.4c5.7,4.2,10.4,9.6,14.1,15.8c3.7,6.3,5.7,13.7,6.3,22.5h-36C568.8,190.4,559.8,182.6,544,182.6
				L544,182.6z"/>
			<polygon id="XMLID_301_" fill="#FFFFFF" points="668.7,107.4 668.7,206.8 715.1,158.6 758.5,158.6 708,207.9 764.2,292.7 
				719.6,292.7 682.8,232.8 668.6,246.5 668.6,292.7 631.8,292.7 631.8,107.4 			"/>
			<path id="XMLID_298_" fill="#FFFFFF" d="M763.2,183.2v-24.6h22.1v-10.3c0-11.9,3.7-21.7,11.1-29.3c7.4-7.6,18.7-11.4,33.7-11.4
				c3.3,0,6.5,0.1,9.8,0.4s6.4,0.5,9.5,0.7v27.5c-4.3-0.5-8.9-0.8-13.4-0.8c-5,0-8.6,1.2-10.7,3.5c-2.1,2.4-3.3,6.3-3.3,11.8v8h25.3
				v24.6H822v109.5h-36.8V183.2H763.2L763.2,183.2z"/>
			<path id="XMLID_294_" fill="#FFFFFF" d="M898.3,158.4v24.9h0.5c1.7-4.2,4-8,7-11.5c2.9-3.5,6.3-6.5,10.1-9s7.8-4.4,12.1-5.9
				c4.3-1.4,8.7-2.1,13.4-2.1c2.3,0,5.1,0.4,8,1.3v34.3c-1.7-0.4-3.8-0.7-6.1-0.9c-2.5-0.3-4.7-0.4-7-0.4c-6.8,0-12.4,1.2-17.1,3.4
				c-4.6,2.2-8.4,5.4-11.2,9.2c-2.9,3.9-4.8,8.5-6.1,13.6c-1.2,5.2-1.8,10.9-1.8,16.9v60.5h-36.8V158.4H898.3L898.3,158.4z"/>
			<path id="XMLID_290_" fill="#FFFFFF" d="M998.8,260.5c5.5,5.4,13.4,8.1,23.8,8.1c7.4,0,13.8-1.8,19.2-5.6
				c5.4-3.7,8.6-7.7,9.8-11.8h32.4c-5.2,16.1-13.2,27.6-23.9,34.5c-10.7,6.9-23.6,10.3-38.8,10.3c-10.6,0-20-1.7-28.5-5.1
				s-15.7-8.1-21.5-14.4c-5.9-6.3-10.4-13.6-13.6-22.4c-3.1-8.6-4.8-18.2-4.8-28.5c0-10.1,1.7-19.4,5-28s8-16.1,14-22.5
				c6-6.3,13.3-11.3,21.7-14.9s17.6-5.5,27.8-5.5c11.4,0,21.3,2.2,29.8,6.7c8.5,4.4,15.4,10.3,20.9,17.8s9.4,16,11.7,25.4
				c2.5,9.6,3.3,19.5,2.6,29.8h-96.6C990.3,246.5,993.3,255.1,998.8,260.5L998.8,260.5z M1040.3,189.8c-4.4-4.8-11.1-7.2-20.1-7.2
				c-5.9,0-10.7,1-14.6,3c-3.9,2-7,4.4-9.3,7.5c-2.3,3-3.9,6-5,9.3c-0.9,3.3-1.6,6.3-1.7,8.9h59.8
				C1047.8,201.9,1044.8,194.8,1040.3,189.8L1040.3,189.8z"/>
			<path id="XMLID_285_" fill="#FFFFFF" d="M1109.1,137.8v-30.4h36.8v30.4H1109.1L1109.1,137.8z M1145.8,158.4v134.1H1109V158.4
				H1145.8L1145.8,158.4z"/>
			<path id="XMLID_280_" fill="#FFFFFF" d="M1301.2,302.5c-1.4,6.9-4.6,13.3-9.4,19.4c-4.8,6-11.9,11-21,15.2s-21.4,6.3-36.8,6.3
				c-6.5,0-13.2-0.8-20.1-2.5c-6.8-1.7-13.1-4.2-18.7-7.7c-5.6-3.4-10.3-8-14-13.3c-3.7-5.5-5.9-12-6.4-19.6h36.5
				c1.7,6.9,5.1,11.8,10.1,14.4s10.8,4.1,17.4,4.1c10.3,0,17.9-3.1,22.6-9.3c4.7-6.3,7-14.1,6.9-23.6V268h-0.5
				c-3.9,7.1-9.7,12.3-17,15.7c-7.3,3.4-15,5.1-23.2,5.1c-10.1,0-18.7-1.8-25.8-5.4c-7.2-3.5-13.2-8.4-17.9-14.5
				c-4.7-6.1-8.1-13.3-10.2-21.5c-2.2-8.2-3.3-16.9-3.3-26c0-8.6,1.3-17,3.8-25s6.1-15.2,11-21.3c4.8-6.1,10.8-11,18-14.7
				s15.4-5.5,24.7-5.5c8.7,0,16.6,1.7,23.1,5c6.7,3.3,12.3,8.8,16.7,16.6h0.5v-17.9h35v125.6
				C1303.5,289.4,1302.7,295.6,1301.2,302.5L1301.2,302.5z M1250.9,257.9c3.9-2.1,7.3-4.8,9.8-8.2c2.6-3.5,4.6-7.3,5.9-11.8
				c1.3-4.4,2-9,2-13.9c0-5.5-0.5-10.7-1.6-15.7s-2.7-9.3-5.2-13.1s-5.6-6.8-9.5-9s-9-3.4-15-3.4c-5.2,0-9.7,1-13.3,3.1
				c-3.8,2.1-6.8,4.8-9.3,8.4c-2.5,3.5-4.3,7.6-5.5,12.2c-1.2,4.6-1.7,9.4-1.7,14.4c0,4.8,0.5,9.7,1.4,14.4s2.6,9,5,12.8
				c2.3,3.8,5.4,6.9,9.1,9.3c3.8,2.5,8.5,3.7,14.2,3.7C1242.4,261,1247,260,1250.9,257.9L1250.9,257.9z"/>
			<path id="XMLID_278_" fill="#FFFFFF" d="M1369.8,107.4v69.7h0.8c4.7-7.9,10.6-13.5,17.9-17s14.4-5.4,21.3-5.4
				c9.8,0,17.9,1.3,24.1,4.1c6.3,2.7,11.2,6.4,14.9,11.1c3.7,4.7,6.1,10.6,7.6,17.4c1.4,6.8,2.2,14.4,2.2,22.8v82.6h-36.8v-75.8
				c0-11.1-1.7-19.4-5.2-24.7c-3.4-5.5-9.5-8.1-18.4-8.1c-10.1,0-17.2,3-21.8,8.9c-4.6,6-6.8,15.8-6.8,29.4v70.3h-36.8V107.4H1369.8
				L1369.8,107.4z"/>
			<path id="XMLID_274_" fill="#FFFFFF" d="M1559.9,158.4V183H1533v66.6c0,6.3,1,10.3,3.1,12.4s6.3,3.1,12.4,3.1c2.1,0,4-0.1,6-0.3
				c2-0.1,3.8-0.4,5.5-0.8v28.5c-3.1,0.5-6.5,0.9-10.3,1s-7.4,0.3-11.1,0.3c-5.7,0-11.1-0.4-16.2-1.2c-5.1-0.8-9.5-2.2-13.4-4.6
				c-3.9-2.2-6.9-5.5-9.1-9.6c-2.2-4.2-3.4-9.6-3.4-16.4v-79.2h-22.3v-24.6h22.3V118h36.8v40.2h26.6V158.4z"/>
			<polygon id="XMLID_271_" fill="#FFFFFF" points="1619.7,252.6 1619.7,292.6 1579.1,292.6 1579.1,252.6 			"/>
			<path id="XMLID_265_" fill="#FFFFFF" d="M1585.5,70.5v21.7h-6.7V70.5h-7.7v-5.2h21.9v5.2H1585.5L1585.5,70.5z M1621.5,92.2V73.1
				h-0.1l-6.9,19.1h-4.6l-6.9-19.1h-0.1v19.1h-6.3v-27h8.9l6.7,17.7l6.7-17.7h8.9v27H1621.5L1621.5,92.2z"/>
			<path id="Blockchain-solutions" fill="#FFFFFF" d="M85.2,353.6h12.5c1.8,0,3.4-0.5,4.6-1.6c1.2-1,1.8-2.6,1.8-4.5
				c0-2.2-0.6-3.8-1.7-4.7c-1.1-0.9-2.7-1.4-4.8-1.4H85.2V353.6z M77.6,335.3h21.3c3.9,0,7.1,0.9,9.4,2.7c2.4,1.8,3.6,4.5,3.6,8.2
				c0,2.2-0.5,4.1-1.6,5.7s-2.6,2.8-4.6,3.7v0.1c2.7,0.6,4.7,1.9,6.1,3.8c1.4,2,2.1,4.5,2.1,7.5c0,1.7-0.3,3.3-0.9,4.8
				s-1.6,2.8-2.9,3.9s-3,1.9-5,2.6c-2,0.6-4.5,1-7.3,1H77.6V335.3z M85.2,372.9h13.6c2.3,0,4.1-0.6,5.4-1.8c1.3-1.2,1.9-2.9,1.9-5.1
				s-0.6-3.8-1.9-5s-3.1-1.8-5.4-1.8H85.2V372.9z M120,335.3h7v43.9h-7V335.3z M149.1,380c-2.5,0-4.8-0.4-6.8-1.3
				c-2-0.8-3.7-2-5-3.5s-2.4-3.2-3.1-5.3s-1.1-4.3-1.1-6.8c0-2.4,0.4-4.7,1.1-6.7s1.8-3.8,3.1-5.3s3-2.6,5-3.5
				c2-0.8,4.2-1.3,6.8-1.3c2.5,0,4.8,0.4,6.8,1.3c2,0.8,3.7,2,5,3.5c1.4,1.5,2.4,3.2,3.1,5.3s1.1,4.3,1.1,6.7c0,2.5-0.4,4.7-1.1,6.8
				s-1.8,3.8-3.1,5.3c-1.4,1.5-3,2.6-5,3.5C153.9,379.6,151.6,380,149.1,380L149.1,380z M149.1,374.5c1.6,0,2.9-0.3,4-1
				s2.1-1.5,2.8-2.6s1.3-2.3,1.6-3.6c0.3-1.3,0.5-2.7,0.5-4.1s-0.2-2.7-0.5-4.1s-0.9-2.6-1.6-3.6s-1.7-1.9-2.8-2.6s-2.5-1-4-1
				c-1.6,0-2.9,0.3-4,1s-2.1,1.5-2.8,2.6s-1.3,2.2-1.6,3.6s-0.5,2.7-0.5,4.1s0.2,2.8,0.5,4.1c0.3,1.3,0.9,2.5,1.6,3.6
				s1.7,1.9,2.8,2.6C146.2,374.2,147.5,374.5,149.1,374.5L149.1,374.5z M192.3,358c-0.3-2-1.1-3.5-2.4-4.5c-1.3-1-2.9-1.5-4.9-1.5
				c-0.9,0-1.9,0.2-2.9,0.5s-2,0.9-2.8,1.7c-0.9,0.8-1.6,2-2.1,3.5c-0.6,1.5-0.9,3.5-0.9,5.9c0,1.3,0.2,2.6,0.5,3.9s0.8,2.5,1.5,3.5
				s1.5,1.9,2.6,2.5s2.4,1,3.9,1c2,0,3.7-0.6,5.1-1.9c1.3-1.3,2.2-3.1,2.5-5.4h7c-0.7,4.1-2.2,7.3-4.7,9.5s-5.8,3.3-9.8,3.3
				c-2.5,0-4.7-0.4-6.6-1.3c-1.9-0.8-3.5-2-4.8-3.4c-1.3-1.5-2.3-3.2-3-5.2s-1-4.2-1-6.5c0-2.4,0.3-4.6,1-6.7s1.6-3.9,2.9-5.4
				c1.3-1.5,2.9-2.7,4.9-3.6s4.2-1.3,6.8-1.3c1.8,0,3.6,0.2,5.2,0.7c1.7,0.5,3.1,1.2,4.4,2.1c1.3,0.9,2.3,2.1,3.2,3.6
				c0.8,1.4,1.3,3.1,1.5,5.1h-7.1V358z M205.2,335.3h7v25l12.6-12.9h8.6l-12.1,11.7l13.3,20.1h-8.5l-9.7-15.4l-4.2,4.1v11.4h-7
				L205.2,335.3L205.2,335.3z M259.4,358c-0.3-2-1.1-3.5-2.4-4.5c-1.3-1-2.9-1.5-4.9-1.5c-0.9,0-1.9,0.2-2.9,0.5s-2,0.9-2.8,1.7
				c-0.9,0.8-1.6,2-2.1,3.5c-0.6,1.5-0.9,3.5-0.9,5.9c0,1.3,0.2,2.6,0.5,3.9s0.8,2.5,1.5,3.5s1.5,1.9,2.6,2.5s2.4,1,3.9,1
				c2,0,3.7-0.6,5.1-1.9c1.3-1.3,2.2-3.1,2.5-5.4h7c-0.7,4.1-2.2,7.3-4.7,9.5S256,380,252,380c-2.5,0-4.7-0.4-6.6-1.3
				c-1.9-0.8-3.5-2-4.8-3.4c-1.3-1.5-2.3-3.2-3-5.2s-1-4.2-1-6.5c0-2.4,0.3-4.6,1-6.7s1.6-3.9,2.9-5.4c1.3-1.5,2.9-2.7,4.9-3.6
				s4.2-1.3,6.8-1.3c1.8,0,3.6,0.2,5.2,0.7c1.7,0.5,3.1,1.2,4.4,2.1s2.3,2.1,3.2,3.6c0.8,1.4,1.3,3.1,1.5,5.1h-7.1V358z
				 M272.1,335.3h7v16.3h0.1c0.9-1.4,2.1-2.6,3.8-3.6s3.6-1.4,5.7-1.4c3.5,0,6.2,0.9,8.2,2.7c2,1.8,3,4.5,3,8.1v21.8h-7v-20
				c-0.1-2.5-0.6-4.3-1.6-5.4s-2.5-1.7-4.6-1.7c-1.2,0-2.2,0.2-3.2,0.6c-0.9,0.4-1.7,1-2.4,1.8c-0.7,0.8-1.2,1.7-1.5,2.7
				s-0.6,2.1-0.6,3.3v18.8h-7v-44H272.1z M333.9,372.1c0,0.9,0.1,1.5,0.3,1.8c0.2,0.4,0.7,0.6,1.3,0.6h0.7c0.3,0,0.6,0,1-0.1v4.9
				c-0.2,0.1-0.6,0.2-1,0.3c-0.4,0.1-0.8,0.2-1.2,0.3s-0.8,0.1-1.2,0.2c-0.4,0-0.8,0.1-1,0.1c-1.4,0-2.6-0.3-3.6-0.9s-1.6-1.6-1.8-3
				c-1.4,1.4-3.1,2.3-5.1,3c-2,0.6-4,0.9-5.9,0.9c-1.4,0-2.8-0.2-4.1-0.6c-1.3-0.4-2.5-1-3.5-1.7s-1.8-1.7-2.4-2.9
				c-0.6-1.2-0.9-2.5-0.9-4.1c0-2,0.4-3.6,1.1-4.8s1.7-2.2,2.8-2.9c1.2-0.7,2.5-1.2,3.9-1.5c1.5-0.3,2.9-0.5,4.4-0.7
				c1.3-0.2,2.5-0.4,3.6-0.5s2.2-0.3,3-0.5c0.9-0.2,1.6-0.6,2.1-1.1s0.8-1.3,0.8-2.3c0-0.9-0.2-1.6-0.6-2.2s-1-1-1.6-1.3
				s-1.3-0.5-2.1-0.6c-0.8-0.1-1.5-0.2-2.2-0.2c-2,0-3.6,0.4-4.8,1.2c-1.3,0.8-2,2.1-2.1,3.8h-7c0.1-2,0.6-3.8,1.5-5.1
				c0.9-1.4,2-2.4,3.3-3.3c1.3-0.8,2.8-1.4,4.5-1.7c1.7-0.3,3.4-0.5,5.2-0.5c1.6,0,3.1,0.2,4.6,0.5s2.9,0.9,4.1,1.6s2.2,1.7,2.9,2.9
				s1.1,2.6,1.1,4.3L333.9,372.1L333.9,372.1z M326.9,363.2c-1.1,0.7-2.4,1.1-3.9,1.3c-1.6,0.1-3.1,0.4-4.7,0.6
				c-0.7,0.1-1.5,0.3-2.1,0.5s-1.3,0.5-1.8,0.9s-1,0.9-1.3,1.5s-0.5,1.4-0.5,2.3c0,0.8,0.2,1.4,0.7,2c0.4,0.5,1,1,1.6,1.3
				s1.3,0.5,2.1,0.6c0.8,0.1,1.4,0.2,2.1,0.2c0.8,0,1.6-0.1,2.5-0.3c0.9-0.2,1.7-0.6,2.5-1c0.8-0.5,1.5-1.1,2-1.9s0.8-1.7,0.8-2.8
				L326.9,363.2L326.9,363.2z M341.6,335.3h7v6.6h-7V335.3z M341.6,347.4h7v31.8h-7V347.4z M356.2,347.4h6.6v4.7l0.1,0.1
				c1.1-1.8,2.5-3.1,4.2-4.2c1.7-1,3.6-1.5,5.7-1.5c3.5,0,6.2,0.9,8.2,2.7c2,1.8,3,4.5,3,8.1v21.8h-7v-20c-0.1-2.5-0.6-4.3-1.6-5.4
				s-2.5-1.7-4.6-1.7c-1.2,0-2.2,0.2-3.2,0.6c-0.9,0.4-1.7,1-2.4,1.8c-0.7,0.8-1.2,1.7-1.5,2.7s-0.6,2.1-0.6,3.3v18.8h-7
				L356.2,347.4L356.2,347.4z M413.7,369c0.2,2,1,3.5,2.3,4.3s3,1.2,4.8,1.2c0.7,0,1.4-0.1,2.2-0.2c0.8-0.1,1.6-0.3,2.4-0.6
				s1.3-0.7,1.8-1.3c0.5-0.6,0.7-1.3,0.6-2.2c0-0.9-0.4-1.6-1-2.2s-1.4-1-2.4-1.4s-2.1-0.6-3.3-0.9c-1.2-0.2-2.5-0.5-3.7-0.8
				c-1.3-0.3-2.6-0.6-3.8-1c-1.2-0.4-2.3-1-3.3-1.7s-1.7-1.6-2.3-2.7c-0.6-1.1-0.9-2.4-0.9-4c0-1.7,0.4-3.2,1.3-4.3
				c0.8-1.2,1.9-2.1,3.2-2.8c1.3-0.7,2.7-1.2,4.3-1.5c1.6-0.3,3.1-0.4,4.5-0.4c1.6,0,3.2,0.2,4.7,0.5s2.8,0.9,4,1.7
				c1.2,0.8,2.2,1.8,3,3c0.8,1.3,1.3,2.8,1.5,4.5h-7.3c-0.3-1.7-1.1-2.8-2.3-3.4c-1.2-0.6-2.6-0.9-4.1-0.9c-0.5,0-1.1,0-1.7,0.1
				c-0.7,0.1-1.3,0.2-1.9,0.5c-0.6,0.2-1.1,0.6-1.5,1s-0.6,1-0.6,1.7c0,0.9,0.3,1.6,0.9,2.1s1.4,1,2.3,1.3c1,0.3,2.1,0.6,3.3,0.9
				c1.2,0.2,2.5,0.5,3.8,0.8s2.5,0.6,3.7,1s2.3,1,3.3,1.7s1.7,1.6,2.3,2.6c0.6,1.1,0.9,2.4,0.9,3.9c0,1.9-0.4,3.5-1.3,4.8
				s-2,2.4-3.3,3.2c-1.4,0.8-2.9,1.4-4.6,1.8s-3.3,0.6-5,0.6c-2,0-3.9-0.2-5.6-0.7s-3.2-1.1-4.4-2.1c-1.2-0.9-2.2-2.1-2.9-3.4
				c-0.7-1.4-1.1-3-1.1-4.9h7.2V369z M454.8,380c-2.5,0-4.8-0.4-6.8-1.3c-2-0.8-3.7-2-5-3.5c-1.4-1.5-2.4-3.2-3.1-5.3
				s-1.1-4.3-1.1-6.8c0-2.4,0.4-4.7,1.1-6.7s1.8-3.8,3.1-5.3c1.4-1.5,3-2.6,5-3.5c2-0.8,4.2-1.3,6.8-1.3s4.8,0.4,6.8,1.3
				c2,0.8,3.7,2,5,3.5s2.4,3.2,3.1,5.3s1.1,4.3,1.1,6.7c0,2.5-0.4,4.7-1.1,6.8s-1.8,3.8-3.1,5.3s-3,2.6-5,3.5
				C459.6,379.6,457.4,380,454.8,380L454.8,380z M454.8,374.5c1.6,0,2.9-0.3,4-1s2.1-1.5,2.8-2.6s1.3-2.3,1.6-3.6
				c0.3-1.3,0.5-2.7,0.5-4.1s-0.2-2.7-0.5-4.1s-0.9-2.6-1.6-3.6s-1.7-1.9-2.8-2.6c-1.1-0.7-2.5-1-4-1c-1.6,0-2.9,0.3-4,1
				s-2.1,1.5-2.8,2.6s-1.3,2.2-1.6,3.6c-0.3,1.4-0.5,2.7-0.5,4.1s0.2,2.8,0.5,4.1c0.3,1.3,0.9,2.5,1.6,3.6s1.7,1.9,2.8,2.6
				S453.3,374.5,454.8,374.5L454.8,374.5z M476.9,335.3h7v43.9h-7V335.3z M519.3,379.2h-6.9v-4.4h-0.1c-0.9,1.6-2.1,2.9-3.8,3.8
				s-3.4,1.4-5.2,1.4c-4.2,0-7.2-1-9-3.1s-2.8-5.2-2.8-9.4v-20.2h7v19.5c0,2.8,0.5,4.8,1.6,5.9s2.6,1.7,4.5,1.7
				c1.5,0,2.7-0.2,3.7-0.7s1.8-1.1,2.4-1.8c0.6-0.8,1.1-1.7,1.3-2.7c0.3-1.1,0.4-2.2,0.4-3.4v-18.4h7v31.8H519.3z M523.5,347.4h5.3
				v-9.5h7v9.5h6.3v5.2h-6.3v17c0,0.7,0,1.4,0.1,1.9s0.2,1,0.4,1.4s0.6,0.6,1,0.8c0.4,0.2,1.1,0.3,1.8,0.3c0.5,0,1,0,1.5,0
				s1-0.1,1.5-0.2v5.4c-0.8,0.1-1.5,0.2-2.3,0.2c-0.7,0.1-1.5,0.1-2.3,0.1c-1.8,0-3.3-0.2-4.4-0.5c-1.1-0.3-2-0.9-2.6-1.5
				c-0.6-0.7-1.1-1.5-1.3-2.6c-0.2-1-0.4-2.2-0.4-3.5v-18.8h-5.3V347.4z M547.3,335.3h7v6.6h-7V335.3z M547.3,347.4h7v31.8h-7V347.4
				z M576.4,380c-2.5,0-4.8-0.4-6.8-1.3c-2-0.8-3.7-2-5-3.5s-2.4-3.2-3.1-5.3s-1.1-4.3-1.1-6.8c0-2.4,0.4-4.7,1.1-6.7
				s1.8-3.8,3.1-5.3s3-2.6,5-3.5c2-0.8,4.2-1.3,6.8-1.3c2.5,0,4.8,0.4,6.8,1.3c2,0.8,3.7,2,5,3.5s2.4,3.2,3.1,5.3s1.1,4.3,1.1,6.7
				c0,2.5-0.4,4.7-1.1,6.8s-1.8,3.8-3.1,5.3s-3,2.6-5,3.5S579,380,576.4,380L576.4,380z M576.4,374.5c1.6,0,2.9-0.3,4-1
				s2.1-1.5,2.8-2.6s1.3-2.3,1.6-3.6c0.3-1.3,0.5-2.7,0.5-4.1s-0.2-2.7-0.5-4.1s-0.9-2.6-1.6-3.6s-1.7-1.9-2.8-2.6s-2.5-1-4-1
				c-1.6,0-2.9,0.3-4,1s-2.1,1.5-2.8,2.6s-1.3,2.2-1.6,3.6s-0.5,2.7-0.5,4.1s0.2,2.8,0.5,4.1c0.3,1.3,0.9,2.5,1.6,3.6
				s1.7,1.9,2.8,2.6S574.9,374.5,576.4,374.5L576.4,374.5z M598.3,347.4h6.6v4.7l0.1,0.1c1.1-1.8,2.5-3.1,4.2-4.2
				c1.7-1,3.6-1.5,5.7-1.5c3.5,0,6.2,0.9,8.2,2.7c2,1.8,3,4.5,3,8.1v21.8h-7v-20c-0.1-2.5-0.6-4.3-1.6-5.4s-2.5-1.7-4.6-1.7
				c-1.2,0-2.2,0.2-3.2,0.6c-0.9,0.4-1.7,1-2.4,1.8s-1.2,1.7-1.5,2.7c-0.4,1-0.6,2.1-0.6,3.3v18.8h-7L598.3,347.4L598.3,347.4z
				 M638.8,369c0.2,2,1,3.5,2.3,4.3s3,1.2,4.8,1.2c0.7,0,1.4-0.1,2.2-0.2s1.6-0.3,2.4-0.6s1.3-0.7,1.8-1.3c0.5-0.6,0.7-1.3,0.6-2.2
				c0-0.9-0.4-1.6-1-2.2s-1.4-1-2.4-1.4s-2.1-0.6-3.3-0.9c-1.2-0.2-2.5-0.5-3.7-0.8c-1.3-0.3-2.6-0.6-3.8-1s-2.3-1-3.3-1.7
				s-1.7-1.6-2.3-2.7s-0.9-2.4-0.9-4c0-1.7,0.4-3.2,1.3-4.3s1.9-2.1,3.2-2.8c1.3-0.7,2.7-1.2,4.3-1.5s3.1-0.4,4.5-0.4
				c1.6,0,3.2,0.2,4.7,0.5s2.8,0.9,4,1.7c1.2,0.8,2.2,1.8,3,3s1.3,2.8,1.5,4.5h-7.3c-0.3-1.7-1.1-2.8-2.3-3.4s-2.6-0.9-4.1-0.9
				c-0.5,0-1.1,0-1.7,0.1s-1.3,0.2-1.9,0.5s-1.1,0.6-1.5,1s-0.6,1-0.6,1.7c0,0.9,0.3,1.6,0.9,2.1s1.4,1,2.3,1.3
				c1,0.3,2.1,0.6,3.3,0.9c1.2,0.2,2.5,0.5,3.8,0.8s2.5,0.6,3.7,1s2.3,1,3.3,1.7s1.7,1.6,2.3,2.6c0.6,1.1,0.9,2.4,0.9,3.9
				c0,1.9-0.4,3.5-1.3,4.8c-0.9,1.3-2,2.4-3.3,3.2c-1.4,0.8-2.9,1.4-4.6,1.8s-3.3,0.6-5,0.6c-2,0-3.9-0.2-5.6-0.7
				c-1.7-0.5-3.2-1.1-4.4-2.1c-1.2-0.9-2.2-2.1-2.9-3.4c-0.7-1.4-1.1-3-1.1-4.9h7.2V369z M679.2,347.4h5.2v-2.6c0-2,0.2-3.6,0.7-4.9
				s1.1-2.2,2-2.9c0.8-0.7,1.7-1.1,2.8-1.4c1-0.2,2.1-0.3,3.3-0.3c2.2,0,3.9,0.1,4.9,0.4v5.5c-0.4-0.1-0.9-0.2-1.4-0.3
				c-0.5-0.1-1.1-0.1-1.8-0.1c-0.9,0-1.7,0.2-2.4,0.7s-1,1.3-1,2.6v3.3h6v5.2h-6v26.6h-7v-26.6h-5.2L679.2,347.4L679.2,347.4z
				 M716.2,380c-2.5,0-4.8-0.4-6.8-1.3c-2-0.8-3.7-2-5-3.5c-1.4-1.5-2.4-3.2-3.1-5.3s-1.1-4.3-1.1-6.8c0-2.4,0.4-4.7,1.1-6.7
				s1.8-3.8,3.1-5.3c1.4-1.5,3-2.6,5-3.5c2-0.8,4.2-1.3,6.8-1.3c2.5,0,4.8,0.4,6.8,1.3c2,0.8,3.7,2,5,3.5s2.4,3.2,3.1,5.3
				s1.1,4.3,1.1,6.7c0,2.5-0.4,4.7-1.1,6.8s-1.8,3.8-3.1,5.3s-3,2.6-5,3.5S718.8,380,716.2,380L716.2,380z M716.2,374.5
				c1.6,0,2.9-0.3,4-1s2.1-1.5,2.8-2.6s1.3-2.3,1.6-3.6c0.3-1.3,0.5-2.7,0.5-4.1s-0.2-2.7-0.5-4.1s-0.9-2.6-1.6-3.6
				s-1.7-1.9-2.8-2.6s-2.5-1-4-1c-1.6,0-2.9,0.3-4,1s-2.1,1.5-2.8,2.6c-0.7,1-1.3,2.2-1.6,3.6s-0.5,2.7-0.5,4.1s0.2,2.8,0.5,4.1
				c0.3,1.3,0.9,2.5,1.6,3.6c0.7,1.1,1.7,1.9,2.8,2.6S714.7,374.5,716.2,374.5L716.2,374.5z M738.1,347.4h6.6v6.1h0.1
				c0.2-0.9,0.6-1.7,1.2-2.5c0.6-0.8,1.3-1.6,2.1-2.2s1.8-1.2,2.8-1.6s2.1-0.6,3.1-0.6c0.8,0,1.4,0,1.7,0.1c0.3,0,0.6,0.1,1,0.1v6.8
				c-0.5-0.1-1-0.2-1.5-0.2c-0.5-0.1-1-0.1-1.5-0.1c-1.2,0-2.3,0.2-3.3,0.7s-2,1.2-2.7,2.1c-0.8,0.9-1.4,2.1-1.8,3.4
				c-0.4,1.4-0.7,2.9-0.7,4.7v15.1h-7L738.1,347.4L738.1,347.4z M806,377.5c0,4.8-1.3,8.4-4,10.7c-2.7,2.4-6.5,3.5-11.6,3.5
				c-1.6,0-3.2-0.2-4.8-0.5s-3.1-0.9-4.4-1.7c-1.3-0.8-2.4-1.8-3.3-3.1c-0.9-1.3-1.4-2.8-1.6-4.7h7c0.2,1,0.6,1.8,1,2.4
				c0.5,0.6,1.1,1.1,1.7,1.4c0.7,0.3,1.4,0.6,2.2,0.7s1.7,0.2,2.6,0.2c2.8,0,4.9-0.7,6.2-2.1s2-3.4,2-6v-4.9h-0.1
				c-1,1.8-2.3,3.1-4,4.1s-3.5,1.5-5.5,1.5c-2.5,0-4.7-0.4-6.5-1.3s-3.3-2.1-4.4-3.6c-1.2-1.5-2-3.3-2.5-5.3s-0.8-4.2-0.8-6.5
				c0-2.1,0.3-4.2,1-6.1s1.6-3.6,2.8-5.1s2.7-2.6,4.5-3.5s3.8-1.3,6-1.3c2,0,3.8,0.4,5.5,1.3c1.7,0.8,3,2.2,3.9,4h0.1v-4.4h7
				L806,377.5L806,377.5z M790.5,373.6c1.6,0,2.9-0.3,4-1c1.1-0.6,2-1.5,2.6-2.5c0.7-1,1.2-2.2,1.5-3.6s0.5-2.7,0.5-4
				c0-1.4-0.2-2.7-0.5-3.9c-0.3-1.3-0.8-2.4-1.5-3.4s-1.6-1.8-2.6-2.3c-1.1-0.6-2.4-0.9-3.9-0.9c-1.6,0-2.9,0.3-3.9,1
				c-1.1,0.7-1.9,1.5-2.6,2.6s-1.1,2.2-1.4,3.6c-0.3,1.3-0.4,2.7-0.4,4s0.2,2.6,0.5,3.8c0.3,1.3,0.8,2.4,1.5,3.4s1.5,1.8,2.6,2.4
				C787.8,373.3,789.1,373.6,790.5,373.6L790.5,373.6z M813.3,335.3h7v43.9h-7V335.3z M842.4,380c-2.5,0-4.8-0.4-6.8-1.3
				c-2-0.8-3.7-2-5-3.5s-2.4-3.2-3.1-5.3s-1.1-4.3-1.1-6.8c0-2.4,0.4-4.7,1.1-6.7s1.8-3.8,3.1-5.3s3-2.6,5-3.5
				c2-0.8,4.2-1.3,6.8-1.3c2.5,0,4.8,0.4,6.8,1.3c2,0.8,3.7,2,5,3.5s2.4,3.2,3.1,5.3s1.1,4.3,1.1,6.7c0,2.5-0.4,4.7-1.1,6.8
				s-1.8,3.8-3.1,5.3s-3,2.6-5,3.5S845,380,842.4,380L842.4,380z M842.4,374.5c1.6,0,2.9-0.3,4-1s2.1-1.5,2.8-2.6s1.3-2.3,1.6-3.6
				c0.3-1.3,0.5-2.7,0.5-4.1s-0.2-2.7-0.5-4.1s-0.9-2.6-1.6-3.6c-0.7-1-1.7-1.9-2.8-2.6s-2.5-1-4-1c-1.6,0-2.9,0.3-4,1
				s-2.1,1.5-2.8,2.6s-1.3,2.2-1.6,3.6s-0.5,2.7-0.5,4.1s0.2,2.8,0.5,4.1c0.3,1.3,0.9,2.5,1.6,3.6s1.7,1.9,2.8,2.6
				S840.9,374.5,842.4,374.5L842.4,374.5z M864.4,335.3h7v16.2h0.1c0.5-0.8,1.1-1.5,1.8-2.1s1.5-1.1,2.3-1.6s1.7-0.8,2.6-1
				c0.9-0.2,1.8-0.3,2.7-0.3c2.5,0,4.7,0.4,6.5,1.3c1.9,0.9,3.4,2.1,4.6,3.6c1.2,1.5,2.1,3.3,2.8,5.4c0.6,2,0.9,4.2,0.9,6.6
				c0,2.1-0.3,4.2-0.8,6.2c-0.6,2-1.4,3.8-2.5,5.3s-2.5,2.8-4.3,3.7c-1.7,0.9-3.7,1.4-6.1,1.4c-1.1,0-2.1-0.1-3.2-0.2
				c-1.1-0.1-2.1-0.4-3.1-0.8s-1.9-0.9-2.7-1.6s-1.5-1.5-2-2.6h-0.1v4.4h-6.6L864.4,335.3L864.4,335.3z M888.9,363.3
				c0-1.4-0.2-2.8-0.6-4.2c-0.4-1.4-0.9-2.6-1.7-3.6s-1.7-1.9-2.8-2.5s-2.4-1-3.8-1c-2.9,0-5.2,1-6.7,3.1s-2.2,4.8-2.2,8.2
				c0,1.6,0.2,3.1,0.6,4.5c0.4,1.4,1,2.6,1.7,3.5c0.8,1,1.7,1.8,2.8,2.3c1.1,0.6,2.3,0.9,3.8,0.9c1.6,0,2.9-0.3,4-1s2-1.5,2.7-2.6
				c0.7-1,1.2-2.2,1.5-3.6C888.7,366.1,888.9,364.7,888.9,363.3L888.9,363.3z M928.3,372.1c0,0.9,0.1,1.5,0.3,1.8s0.7,0.6,1.3,0.6
				h0.7c0.3,0,0.6,0,1-0.1v4.9c-0.2,0.1-0.6,0.2-1,0.3c-0.4,0.1-0.8,0.2-1.2,0.3c-0.4,0.1-0.8,0.1-1.2,0.2c-0.4,0-0.8,0.1-1,0.1
				c-1.4,0-2.6-0.3-3.6-0.9s-1.6-1.6-1.8-3c-1.4,1.4-3.1,2.3-5.1,3s-4,0.9-5.9,0.9c-1.4,0-2.8-0.2-4.1-0.6s-2.5-1-3.5-1.7
				c-1-0.8-1.8-1.7-2.4-2.9s-0.9-2.5-0.9-4.1c0-2,0.4-3.6,1.1-4.8s1.7-2.2,2.8-2.9c1.2-0.7,2.5-1.2,3.9-1.5c1.5-0.3,2.9-0.5,4.4-0.7
				c1.3-0.2,2.5-0.4,3.6-0.5s2.2-0.3,3-0.5c0.9-0.2,1.6-0.6,2.1-1.1s0.8-1.3,0.8-2.3c0-0.9-0.2-1.6-0.6-2.2s-1-1-1.6-1.3
				s-1.3-0.5-2.1-0.6s-1.5-0.2-2.2-0.2c-2,0-3.6,0.4-4.8,1.2s-2,2.1-2.1,3.8h-7c0.1-2,0.6-3.8,1.5-5.1c0.9-1.4,2-2.4,3.3-3.3
				c1.3-0.8,2.8-1.4,4.5-1.7c1.7-0.3,3.4-0.5,5.2-0.5c1.6,0,3.1,0.2,4.6,0.5s2.9,0.9,4.1,1.6c1.2,0.7,2.2,1.7,2.9,2.9
				s1.1,2.6,1.1,4.3L928.3,372.1L928.3,372.1z M921.3,363.2c-1.1,0.7-2.4,1.1-3.9,1.3c-1.6,0.1-3.1,0.4-4.7,0.6
				c-0.7,0.1-1.5,0.3-2.1,0.5s-1.3,0.5-1.8,0.9s-1,0.9-1.3,1.5s-0.5,1.4-0.5,2.3c0,0.8,0.2,1.4,0.7,2c0.4,0.5,1,1,1.6,1.3
				s1.3,0.5,2.1,0.6s1.4,0.2,2.1,0.2c0.8,0,1.6-0.1,2.5-0.3c0.9-0.2,1.7-0.6,2.5-1c0.8-0.5,1.5-1.1,2-1.9s0.8-1.7,0.8-2.8
				L921.3,363.2L921.3,363.2z M936,335.3h7v43.9h-7V335.3z M964.6,347.4h5.2v-2.6c0-2,0.2-3.6,0.7-4.9s1.1-2.2,2-2.9
				c0.8-0.7,1.7-1.1,2.8-1.4c1-0.2,2.1-0.3,3.3-0.3c2.2,0,3.9,0.1,4.9,0.4v5.5c-0.4-0.1-0.9-0.2-1.4-0.3c-0.5-0.1-1.1-0.1-1.8-0.1
				c-0.9,0-1.7,0.2-2.4,0.7s-1,1.3-1,2.6v3.3h6v5.2h-6v26.6h-7v-26.6h-5.2L964.6,347.4L964.6,347.4z M987,347.4h6.6v6.1h0.1
				c0.2-0.9,0.6-1.7,1.2-2.5c0.6-0.8,1.3-1.6,2.1-2.2c0.8-0.7,1.8-1.2,2.8-1.6s2.1-0.6,3.1-0.6c0.8,0,1.4,0,1.7,0.1
				c0.3,0,0.6,0.1,1,0.1v6.8c-0.5-0.1-1-0.2-1.5-0.2c-0.5-0.1-1-0.1-1.5-0.1c-1.2,0-2.3,0.2-3.3,0.7s-2,1.2-2.7,2.1
				c-0.8,0.9-1.4,2.1-1.8,3.4c-0.4,1.4-0.7,2.9-0.7,4.7v15.1h-7L987,347.4L987,347.4z M1029.3,360.5c-0.1-1.1-0.3-2.2-0.7-3.2
				s-0.9-1.9-1.6-2.7c-0.7-0.8-1.5-1.4-2.5-1.8s-2-0.7-3.2-0.7s-2.3,0.2-3.3,0.6s-1.9,1-2.6,1.8c-0.7,0.8-1.3,1.7-1.7,2.7
				s-0.7,2.1-0.7,3.3L1029.3,360.5L1029.3,360.5z M1013,365.1c0,1.2,0.2,2.4,0.5,3.6c0.3,1.1,0.9,2.2,1.6,3s1.6,1.5,2.6,2.1
				c1.1,0.5,2.3,0.8,3.8,0.8c2,0,3.7-0.4,4.9-1.3s2.2-2.2,2.8-4h6.6c-0.4,1.7-1,3.3-1.9,4.6c-0.9,1.4-2,2.5-3.3,3.4
				s-2.7,1.6-4.3,2.1c-1.6,0.5-3.2,0.7-4.9,0.7c-2.5,0-4.7-0.4-6.6-1.2c-1.9-0.8-3.5-2-4.9-3.4c-1.3-1.5-2.3-3.2-3-5.3s-1-4.3-1-6.8
				c0-2.3,0.4-4.4,1.1-6.4s1.7-3.8,3.1-5.4s2.9-2.8,4.8-3.7c1.9-0.9,4-1.4,6.4-1.4c2.5,0,4.7,0.5,6.7,1.6c2,1,3.6,2.4,4.9,4.2
				c1.3,1.7,2.3,3.7,2.9,5.9c0.6,2.2,0.7,4.5,0.5,6.9L1013,365.1L1013,365.1z M1041.8,335.3h7v6.6h-7V335.3z M1041.8,347.4h7v31.8
				h-7V347.4z M1085.7,377.5c0,4.8-1.3,8.4-4,10.7s-6.5,3.5-11.6,3.5c-1.6,0-3.2-0.2-4.8-0.5c-1.6-0.3-3.1-0.9-4.4-1.7
				c-1.3-0.8-2.4-1.8-3.3-3.1c-0.9-1.3-1.4-2.8-1.6-4.7h7c0.2,1,0.6,1.8,1,2.4c0.5,0.6,1.1,1.1,1.7,1.4c0.7,0.3,1.4,0.6,2.2,0.7
				c0.8,0.1,1.7,0.2,2.6,0.2c2.8,0,4.9-0.7,6.2-2.1s2-3.4,2-6v-4.9h-0.1c-1,1.8-2.3,3.1-4,4.1s-3.5,1.5-5.5,1.5
				c-2.5,0-4.7-0.4-6.5-1.3s-3.3-2.1-4.4-3.6s-2-3.3-2.5-5.3s-0.8-4.2-0.8-6.5c0-2.1,0.3-4.2,1-6.1s1.6-3.6,2.8-5.1
				c1.2-1.5,2.7-2.6,4.5-3.5s3.8-1.3,6-1.3c2,0,3.8,0.4,5.5,1.3c1.7,0.8,3,2.2,3.9,4h0.1v-4.4h7L1085.7,377.5L1085.7,377.5z
				 M1070.2,373.6c1.6,0,2.9-0.3,4-1c1.1-0.6,2-1.5,2.6-2.5c0.7-1,1.2-2.2,1.5-3.6c0.3-1.3,0.5-2.7,0.5-4c0-1.4-0.2-2.7-0.5-3.9
				c-0.3-1.3-0.8-2.4-1.5-3.4s-1.6-1.8-2.6-2.3s-2.4-0.9-3.9-0.9c-1.6,0-2.9,0.3-3.9,1s-1.9,1.5-2.6,2.6c-0.7,1-1.1,2.2-1.4,3.6
				c-0.3,1.3-0.4,2.7-0.4,4s0.2,2.6,0.5,3.8c0.3,1.3,0.8,2.4,1.5,3.4s1.5,1.8,2.6,2.4C1067.5,373.3,1068.7,373.6,1070.2,373.6
				L1070.2,373.6z M1092.8,335.3h7v16.3h0.1c0.9-1.4,2.1-2.6,3.8-3.6c1.7-1,3.6-1.4,5.7-1.4c3.5,0,6.2,0.9,8.2,2.7
				c2,1.8,3,4.5,3,8.1v21.8h-7v-20c-0.1-2.5-0.6-4.3-1.6-5.4s-2.5-1.7-4.6-1.7c-1.2,0-2.2,0.2-3.2,0.6s-1.7,1-2.4,1.8
				c-0.7,0.8-1.2,1.7-1.5,2.7s-0.6,2.1-0.6,3.3v18.8h-7L1092.8,335.3L1092.8,335.3z M1124.8,347.4h5.3v-9.5h7v9.5h6.3v5.2h-6.3v17
				c0,0.7,0,1.4,0.1,1.9s0.2,1,0.4,1.4c0.2,0.4,0.6,0.6,1,0.8c0.4,0.2,1.1,0.3,1.8,0.3c0.5,0,1,0,1.5,0s1-0.1,1.5-0.2v5.4
				c-0.8,0.1-1.5,0.2-2.3,0.2c-0.7,0.1-1.5,0.1-2.3,0.1c-1.8,0-3.3-0.2-4.4-0.5s-2-0.9-2.6-1.5c-0.6-0.7-1.1-1.5-1.3-2.6
				s-0.4-2.2-0.4-3.5v-18.8h-5.3L1124.8,347.4L1124.8,347.4z M1149,370.9h8.5v8.3h-8.5V370.9z"/>
		</g>
	</g>
	<g id="Group-3">
		<path id="Fill-17" fill="#FFFFFF" d="M893.9,513.2l-299.5,72V71.4L893.9,126V513.2z M588.8,583.5L82.4,446.9V160.4l506.4-89V583.5
			z M594.4,65.6l-2.8-0.5l-2.8,0.5l-512,90v295.6l512,138.1l2.1,0.6l3,0.8c0,0.1,0.1,0.3,0.1,0.3l305.5-73.4V121.2L594.4,65.6z"/>
		<path id="Fill-18" fill="#FFFFFF" d="M616.7,523.4l124.5-23.9v29.2l-124.5,29.2V523.4z M616.7,414.4l124.5-12.2v91.6l-124.5,23.9
			V414.4z M616.7,387.9l124.5-7.3v15.9l-124.5,12.2V387.9z M616.7,276.1h124.5V375l-124.5,7.3V276.1z M616.7,249.2l124.5,1.3v19.9
			H616.7V249.2z M616.7,136.9l124.5,14.3v93.7l-124.5-1.3V136.9z M616.7,108.1l124.5,17.3v20.1l-124.5-14.3V108.1z M746.8,498.5
			v-5.7v-91.1V396v-15.7v-5.7v-98.5v-5.6v-19.9V245v-93.1v-5.7v-19.9l8.3,1.2v19.8v5.7v92v5.6v19.8v5.6v98.1v5.7v15.4v5.6v90.3v5.7
			v28.6l-8.3,1.9V498.5z M760.7,495.8v-5.7v-89.8v-5.7v-15.2v-5.6v-97.7v-5.6v-19.7v-5.6v-91.7v-5.7v-19.6l9.5,1.3v19.4v5.7v90.7
			v5.6v19.6v5.6v97.2v5.6v14.8v5.7v88.9v5.7v27.9l-9.5,2.2V495.8z M775.7,492.9l102.5-19.7v23.4l-102.5,24V492.9z M775.7,398.8
			l102.5-10.1v78.8l-102.5,19.7V398.8z M775.7,378.6l102.5-6v10.5l-102.5,10.1V378.6z M775.7,276.1h102.5v90.8l-102.5,6V276.1z
			 M775.7,250.9l102.5,1.1v18.5H775.7V250.9z M775.7,155.2l102.5,11.7v79.4l-102.5-1.1V155.2z M775.7,130.2l102.5,14.3v16.8
			l-102.5-11.8V130.2z M746.8,533.2l8.3-1.9l5.6-1.3l123.1-28.8v-113v-5.7V139.6l-272.7-37.9V565l130.1-30.5L746.8,533.2z"/>
		<path id="Fill-19" fill="#FFFFFF" d="M387.8,132.3l29.5-4.4v384.5l-29.5-7.9V132.3z M382.2,503.1l-33.9-9V138.2l33.9-5V503.1z
			 M342.7,492.6l-36.9-9.8V144.5l36.9-5.5V492.6z M300.2,481.3L273,474V149.3l27.2-4V481.3z M267.3,472.5l-27.4-7.3v-311l27.4-4.1
			V472.5z M234.4,463.7l-22.2-5.9V158.3l22.2-3.3V463.7z M206.6,456.4l-21.5-5.7V162.4l21.5-3.2V456.4z M179.4,449.1l-17.5-4.7
			V165.8l17.5-2.6V449.1z M156.4,443l-19.9-5.3V169.6l19.9-3V443z M130.9,436.2l-13.3-3.5V172.4l13.3-2V436.2z M112,431.2l-10.1-2.7
			V174.7l10.1-1.5V431.2z M422.9,127.1l32.9-4.9v400.5l-32.9-8.7V127.1z M461.4,121.4l35.2-5.2v417.4l-35.2-9.4V121.4z M502.3,115.3
			l33.4-4.9v433.5l-33.4-8.9L502.3,115.3L502.3,115.3z M541.3,109.6l20-3v444.1l-20-5.3V109.6z M420.9,519.2l142.5,37.9l3.5,0.9
			V100.1l-25.6,3.8l-5.6,0.8l-33.4,4.9l-5.6,0.8l-35.3,5.2l-5.6,0.8l-32.9,4.9l-5.6,0.8l-29.6,4.4l-5.6,0.8l-33.9,5l-5.6,0.8
			l-36.9,5.5l-5.6,0.8l-27.2,4l-5.6,0.9l-27.4,4l-5.6,0.8l-22.2,3.3l-5.6,0.9l-24,3.5h-3.1v0.5l-80.8,12l-2.4,0.4v263l321.1,85.4
			L420.9,519.2z"/>
	</g>
</g>
</svg>
