<?xml version="1.0" encoding="UTF-8"?>
<svg width="478px" height="104px" viewBox="0 0 478 104" version="1.1" xmlns="http://www.w3.org/2000/svg" xmlns:xlink="http://www.w3.org/1999/xlink">
    <!-- Generator: Sketch 41.2 (35397) - http://www.bohemiancoding.com/sketch -->
    <title>blockfreight_bftxcp</title>
    <desc>Created with Sketch.</desc>
    <defs></defs>
    <g id="Page-1" stroke="none" stroke-width="1" fill="none" fill-rule="evenodd">
        <g id="blockfreight_bftxcp">
            <g id="Token-Badge">
                <g id="BFT:XCP" transform="translate(205.000000, 61.000000)" fill="#43B5EF">
                    <path d="M137.798268,13.9654255 L144.822958,13.9654255 C145.359912,13.9654255 145.910152,13.8885319 146.473123,13.7352979 C147.035818,13.5815106 147.553675,13.3322979 148.0278,12.9865532 C148.500818,12.6421915 148.884712,12.1816596 149.179207,11.606617 C149.473148,11.0307447 149.620948,10.3082766 149.620948,9.4389362 C149.620948,8.5438723 149.492246,7.8028723 149.2365,7.2137234 C148.980478,6.626234 148.635333,6.1587872 148.200234,5.8133191 C147.765412,5.4684043 147.2661,5.2327447 146.703682,5.1044043 C146.14071,4.976617 145.538435,4.9127234 144.899349,4.9127234 L137.798268,4.9127234 L137.798268,13.9654255 Z M133,1 L145.091158,1 C147.035818,1 148.622878,1.2815745 149.850676,1.843617 C151.079028,2.406766 152.025895,3.1095957 152.691829,3.9540426 C153.356379,4.7971064 153.810576,5.7184468 154.053866,6.7152979 C154.296879,7.7124255 154.418662,8.6329362 154.418662,9.4776596 C154.418662,10.321 154.296879,11.2351489 154.053866,12.2195532 C153.810576,13.2047872 153.356379,14.118383 152.691829,14.9622766 C152.025895,15.8061702 151.079028,16.5034681 149.850676,17.0533404 C148.622878,17.6032128 147.035818,17.8778723 145.091158,17.8778723 L137.798268,17.8778723 L137.798268,28.388234 L133,28.388234 L133,1 Z" id="P"></path>
                    <path d="M122.960029,9.3594468 C122.754935,8.567 122.473726,7.8381702 122.115295,7.1726809 C121.756587,6.5085745 121.296024,5.9329787 120.733606,5.447 C120.170358,4.9612979 119.511067,4.5837447 118.75684,4.3154468 C118.001782,4.0471489 117.125218,3.9118936 116.127424,3.9118936 C114.668791,3.9118936 113.408056,4.2064681 112.346879,4.7945106 C111.284595,5.3836596 110.42104,6.1694681 109.755383,7.1535957 C109.089726,8.1385532 108.597056,9.2579362 108.278205,10.5100851 C107.957693,11.7627872 107.798821,13.041766 107.798821,14.3461915 C107.798821,15.6497872 107.957693,16.9290426 108.278205,18.1817447 C108.597056,19.4352766 109.089726,20.5541064 109.755383,21.5387872 C110.42104,22.5229149 111.284595,23.3092766 112.346879,23.8975957 C113.408056,24.4859149 114.668791,24.7799362 116.127424,24.7799362 C117.202717,24.7799362 118.148476,24.594617 118.968023,24.2228723 C119.786463,23.8525106 120.490039,23.3405319 121.079582,22.6888723 C121.667187,22.0366596 122.12775,21.2765745 122.460717,20.4069574 C122.79313,19.5378936 123.011233,18.6035532 123.113365,17.6064255 L127.796215,17.6064255 C127.694083,19.2433191 127.342019,20.7394255 126.740851,22.0941915 C126.13913,23.4500638 125.326226,24.620617 124.303522,25.6044681 C123.279434,26.5888723 122.077099,27.3500638 120.694857,27.886383 C119.313169,28.4238085 117.790876,28.6921064 116.127424,28.6921064 C114.080079,28.6921064 112.243917,28.3142766 110.619492,27.5602766 C108.993683,26.8071064 107.618637,25.7765106 106.493247,24.4729149 C105.36675,23.1684894 104.503195,21.6472128 103.902305,19.9079787 C103.300584,18.1692979 103,16.3152766 103,14.3461915 C103,12.4031064 103.300584,10.5618085 103.902305,8.8225745 C104.503195,7.0833404 105.36675,5.5617872 106.493247,4.2576383 C107.618637,2.9534894 108.993683,1.9181915 110.619492,1.1506383 C112.243917,0.3836383 114.080079,0 116.127424,0 C117.662726,0 119.108074,0.2110426 120.465129,0.6325745 C121.8208,1.0552128 123.017599,1.6687021 124.053589,2.4741489 C125.089855,3.2795957 125.9285,4.2576383 126.56814,5.4082766 C127.207503,6.5594681 127.60413,7.8763404 127.75802,9.3594468 L122.960029,9.3594468 Z" id="C"></path>
                    <polygon id="X" points="77.652372 1 83.372042 1 89.589917 10.6659149 96.076545 1 101.450793 1 92.392043 14.1955532 102.102888 28.388234 96.269185 28.388234 89.436303 17.915766 82.489112 28.388234 77 28.388234 86.711399 14.1955532"></polygon>
                    <path d="M69,28.4095532 L74.336052,28.4095532 L74.336052,23.2302979 L69,23.2302979 L69,28.4095532 Z M69,14.1781489 L74.336052,14.1781489 L74.336052,9 L69,9 L69,14.1781489 Z" id=":"></path>
                    <polygon id="T" points="47 1 69.185898 1 69.185898 5.1425745 60.473123 5.1425745 60.473123 28.388234 55.674579 28.388234 55.674579 5.1425745 47 5.1425745"></polygon>
                    <polygon id="F" points="27 1 45.923486 1 45.923486 5.1425745 31.797991 5.1425745 31.797991 12.3152553 44.195822 12.3152553 44.195822 16.2285319 31.797991 16.2285319 31.797991 28.388234 27 28.388234"></polygon>
                    <path d="M4.797991,24.4749574 L13.280761,24.4749574 C14.739394,24.4749574 15.872257,24.0985106 16.677688,23.3436809 C17.48395,22.590234 17.886943,21.5214681 17.886943,20.1412553 C17.886943,18.7859362 17.48395,17.7431702 16.677688,17.0143404 C15.872257,16.2857872 14.739394,15.9215106 13.280761,15.9215106 L4.797991,15.9215106 L4.797991,24.4749574 Z M4.797991,12.4690426 L12.628389,12.4690426 C13.779796,12.4690426 14.739394,12.1426596 15.506907,11.4907234 C16.274696,10.8390638 16.658591,9.8991915 16.658591,8.6711064 C16.658591,7.2908936 16.313169,6.3192128 15.622047,5.7560638 C14.93148,5.1940213 13.933409,4.9127234 12.628389,4.9127234 L4.797991,4.9127234 L4.797991,12.4690426 Z M0,1 L13.319233,1 C15.775937,1 17.746061,1.5628723 19.230712,2.6877872 C20.714533,3.8135319 21.456858,5.5140426 21.456858,7.7890426 C21.456858,9.1703617 21.117525,10.3533617 20.43969,11.337766 C19.761301,12.3224468 18.795336,13.0825319 17.541244,13.6196809 L17.541244,13.6962979 C19.230712,14.0550426 20.509992,14.8541277 21.38019,16.0938298 C22.249834,17.3351915 22.68521,18.8882766 22.68521,20.7550213 C22.68521,21.8290426 22.493124,22.8328085 22.10923,23.7660426 C21.725335,24.6995532 21.123891,25.5052766 20.304898,26.1826596 C19.485904,26.8605957 18.437182,27.3969149 17.157626,27.793 C15.877516,28.1901915 14.355223,28.3879574 12.589917,28.3879574 L0,28.3879574 L0,1 Z" id="B"></path>
                </g>
                <g id="BLOCKFREIGHT" transform="translate(136.000000, 15.000000)" fill="#43B5EF">
                    <polygon id="T" points="271 1 293.186175 1 293.186175 5.1428511 284.4734 5.1428511 284.4734 28.3879574 279.674856 28.3879574 279.674856 5.1428511 271 5.1428511"></polygon>
                    <polygon id="H" points="246 1 250.798268 1 250.798268 11.8937234 263.273043 11.8937234 263.273043 1 268.071034 1 268.071034 28.3879574 263.273043 28.3879574 263.273043 16.0365745 250.798268 16.0365745 250.798268 28.3879574 246 28.3879574"></polygon>
                    <path d="M240.18011,28.039617 L237.109507,28.039617 L236.380467,24.8175532 C235.100357,26.2752128 233.8208,27.285617 232.541521,27.8482128 C231.261964,28.4099787 229.791152,28.6918298 228.127978,28.6918298 C226.080356,28.6918298 224.244193,28.314 222.619492,27.56 C220.994236,26.8065532 219.619191,25.776234 218.493247,24.4723617 C217.367027,23.1682128 216.503195,21.6469362 215.902305,19.9074255 C215.300584,18.1684681 215,16.3147234 215,14.3456383 C215,12.4022766 215.300584,10.5615319 215.902305,8.8220213 C216.503195,7.0833404 217.367027,5.5615106 218.493247,4.2570851 C219.619191,2.9529362 220.994236,1.9179149 222.619492,1.1500851 C224.244193,0.3833617 226.080356,0 228.127978,0 C229.611245,0 231.025594,0.1980426 232.368533,0.5941277 C233.712302,0.990766 234.908271,1.5790851 235.958376,2.3582553 C237.007098,3.1388085 237.877296,4.1174043 238.568417,5.2932128 C239.259261,6.4692979 239.694083,7.8251702 239.87316,9.3588936 L235.19031,9.3588936 C235.062161,8.464383 234.787595,7.6780213 234.364951,7.0003617 C233.94286,6.3227021 233.411442,5.7534681 232.772079,5.2932128 C232.131885,4.8329574 231.415854,4.4874894 230.622324,4.2570851 C229.829625,4.027234 228.997346,3.9118936 228.127978,3.9118936 C226.669345,3.9118936 225.408332,4.2061915 224.347156,4.7945106 C223.284872,5.383383 222.421594,6.1697447 221.755936,7.1535957 C221.090002,8.138 220.597333,9.257383 220.278205,10.5092553 C219.957693,11.7630638 219.798544,13.0412128 219.798544,14.3456383 C219.798544,15.6497872 219.957693,16.928766 220.278205,18.1814681 C220.597333,19.4347234 221.090002,20.5541064 221.755936,21.538234 C222.421594,22.5226383 223.284872,23.309 224.347156,23.896766 C225.408332,24.4856383 226.669345,24.7796596 228.127978,24.7796596 C229.356053,24.8051064 230.44297,24.6455106 231.390113,24.299766 C232.336426,23.9545745 233.137152,23.4555957 233.78897,22.803383 C234.442449,22.1514468 234.934012,21.3526383 235.266979,20.4061277 C235.599392,19.4607234 235.778469,18.4113191 235.804486,17.2609574 L228.511873,17.2609574 L228.511873,13.6165319 L240.18011,13.6165319 L240.18011,28.039617 Z" id="G"></path>
                    <polygon id="I" points="206 28.3879574 210.797991 28.3879574 210.797991 1 206 1"></polygon>
                    <polygon id="E" points="182 1 201.729194 1 201.729194 5.1428511 186.797991 5.1428511 186.797991 12.3155319 200.615706 12.3155319 200.615706 16.2282553 186.797991 16.2282553 186.797991 24.2451064 201.997671 24.2451064 201.997671 28.3879574 182 28.3879574"></polygon>
                    <path d="M159.797991,13.4664468 L167.666862,13.4664468 C169.201887,13.4664468 170.366579,13.1018936 171.160109,12.3730638 C171.952808,11.644234 172.349712,10.5516809 172.349712,9.0934681 C172.349712,8.2246809 172.220732,7.5146596 171.965817,6.9645106 C171.710072,6.4149149 171.357453,5.9867447 170.909899,5.6794468 C170.462345,5.3727021 169.950855,5.1685745 169.374598,5.0659574 C168.798894,4.9641702 168.204093,4.9124468 167.58964,4.9124468 L159.797991,4.9124468 L159.797991,13.4664468 Z M155,1 L168.088675,1 C171.107797,1 173.372693,1.6522128 174.882807,2.9563617 C176.392368,4.2599574 177.147702,6.0766383 177.147702,8.4028085 C177.147702,9.7069574 176.955617,10.7884468 176.571999,11.644234 C176.188104,12.5014043 175.73972,13.1915106 175.228229,13.715383 C174.716185,14.2400851 174.211061,14.6165319 173.712025,14.8472128 C173.213267,15.0773404 172.848193,15.2308511 172.618189,15.3074681 L172.618189,15.3843617 C173.026994,15.4360851 173.468735,15.5635957 173.942584,15.7677234 C174.415878,15.9729574 174.857343,16.2987872 175.266425,16.7460426 C175.675507,17.1938511 176.01567,17.7752553 176.28387,18.4916383 C176.552624,19.2077447 176.68714,20.1019787 176.68714,21.176 C176.68714,22.7871702 176.807816,24.2517447 177.05166,25.5688936 C177.294396,26.885766 177.671648,27.8256383 178.183969,28.3876809 L173.040279,28.3876809 C172.682402,27.7996383 172.470665,27.1479787 172.407282,26.4313191 C172.343069,25.7154894 172.310962,25.0256596 172.310962,24.3601702 C172.310962,23.1071915 172.234294,22.0265319 172.080958,21.1190213 C171.927345,20.2115106 171.645305,19.4569574 171.2365,18.8553617 C170.826865,18.2551489 170.270259,17.8142553 169.56696,17.5321277 C168.862554,17.2511064 167.960526,17.1108723 166.860323,17.1108723 L159.797991,17.1108723 L159.797991,28.3876809 L155,28.3876809 L155,1 Z" id="R"></path>
                    <polygon id="F" points="132 1 150.923209 1 150.923209 5.1428511 136.797991 5.1428511 136.797991 12.3155319 149.196098 12.3155319 149.196098 16.2282553 136.797991 16.2282553 136.797991 28.3879574 132 28.3879574"></polygon>
                    <polygon id="K" points="106 1 110.797991 1 110.797991 13.4664468 123.004013 1 128.914938 1 117.975741 11.931617 129.68245 28.3879574 123.695134 28.3879574 114.712775 15.3077447 110.797991 19.1814681 110.797991 28.3879574 106 28.3879574"></polygon>
                    <path d="M96.959475,9.3588936 C96.754381,8.5664468 96.472895,7.8373404 96.115018,7.1726809 C95.75631,6.5080213 95.295471,5.9327021 94.732776,5.4464468 C94.170081,4.9610213 93.510513,4.5834681 92.756563,4.3148936 C92.001229,4.0468723 91.125218,3.9118936 90.126871,3.9118936 C88.668514,3.9118936 87.407225,4.2061915 86.345772,4.7945106 C85.284042,5.383383 84.42021,6.1697447 83.755383,7.1535957 C83.089726,8.138 82.597056,9.257383 82.277651,10.5092553 C81.957416,11.7630638 81.797714,13.0412128 81.797714,14.3456383 C81.797714,15.6497872 81.957416,16.928766 82.277651,18.1814681 C82.597056,19.4347234 83.089726,20.5541064 83.755383,21.538234 C84.42021,22.5226383 85.284042,23.3092766 86.345772,23.8970426 C87.407225,24.4856383 88.668514,24.7796596 90.126871,24.7796596 C91.201887,24.7796596 92.147922,24.5937872 92.967193,24.2225957 C93.786186,23.8525106 94.489486,23.3410851 95.078752,22.6885957 C95.66691,22.036383 96.12775,21.2757447 96.460163,20.4061277 C96.792577,19.5378936 97.010403,18.6032766 97.113089,17.6061489 L101.795939,17.6061489 C101.693253,19.242766 101.340911,20.7391489 100.740021,22.0936383 C100.1383,23.4497872 99.325949,24.6203404 98.302968,25.6039149 C97.27888,26.5888723 96.076545,27.3495106 94.694857,27.886383 C93.312615,28.4235319 91.790045,28.6918298 90.126871,28.6918298 C88.079525,28.6918298 86.243363,28.314 84.618938,27.56 C82.993683,26.8065532 81.618083,25.776234 80.492694,24.4723617 C79.366474,23.1682128 78.502642,21.6469362 77.901751,19.9074255 C77.30003,18.1684681 77,16.3147234 77,14.3456383 C77,12.4022766 77.30003,10.5615319 77.901751,8.8220213 C78.502642,7.0833404 79.366474,5.5615106 80.492694,4.2570851 C81.618083,2.9529362 82.993683,1.9179149 84.618938,1.1500851 C86.243363,0.3833617 88.079525,0 90.126871,0 C91.662173,0 93.107797,0.210766 94.464299,0.6325745 C95.8208,1.0546596 97.017046,1.6681489 98.053312,2.4735957 C99.089578,3.2795957 99.92767,4.2570851 100.56731,5.4082766 C101.206673,6.5591915 101.60413,7.876617 101.757466,9.3588936 L96.959475,9.3588936 Z" id="C"></path>
                    <path d="M60.127701,3.9118936 C58.668791,3.9118936 57.408056,4.2061915 56.346602,4.7945106 C55.284595,5.383383 54.420763,6.1697447 53.755936,7.1538723 C53.090002,8.138 52.597333,9.257383 52.278205,10.5095319 C51.957416,11.7633404 51.797991,13.0414894 51.797991,14.3459149 C51.797991,15.6500638 51.957416,16.9290426 52.278205,18.1817447 C52.597333,19.4347234 53.090002,20.5541064 53.755936,21.5385106 C54.420763,22.5226383 55.284595,23.3092766 56.346602,23.8970426 C57.408056,24.4859149 58.668791,24.7796596 60.127701,24.7796596 C61.586335,24.7796596 62.845963,24.4859149 63.908247,23.8970426 C64.969977,23.3092766 65.833532,22.5226383 66.499466,21.5385106 C67.16457,20.5541064 67.656962,19.4347234 67.976921,18.1817447 C68.296602,16.9290426 68.456581,15.6500638 68.456581,14.3459149 C68.456581,13.0414894 68.296602,11.7633404 67.976921,10.5095319 C67.656962,9.257383 67.16457,8.138 66.499466,7.1538723 C65.833532,6.1697447 64.969977,5.383383 63.908247,4.7945106 C62.845963,4.2061915 61.586335,3.9118936 60.127701,3.9118936 M60.127701,0 C62.174493,0 64.010102,0.3833617 65.635634,1.1503617 C67.260613,1.9179149 68.635382,2.9529362 69.761878,4.2570851 C70.887545,5.5617872 71.751377,7.083617 72.352821,8.8220213 C72.953712,10.5615319 73.254849,12.4022766 73.254849,14.3459149 C73.254849,16.315 72.953712,18.1684681 72.352821,19.9074255 C71.751377,21.6469362 70.887545,23.1682128 69.761878,24.4723617 C68.635382,25.7765106 67.260613,26.8065532 65.635634,27.56 C64.010102,28.3142766 62.174493,28.6921064 60.127701,28.6921064 C58.080079,28.6921064 56.244193,28.3142766 54.619215,27.56 C52.994236,26.8065532 51.618637,25.7765106 50.49297,24.4723617 C49.36675,23.1682128 48.503195,21.6469362 47.902305,19.9074255 C47.300584,18.1684681 47,16.315 47,14.3459149 C47,12.4022766 47.300584,10.5615319 47.902305,8.8220213 C48.503195,7.083617 49.36675,5.5617872 50.49297,4.2570851 C51.618637,2.9529362 52.994236,1.9179149 54.619215,1.1503617 C56.244193,0.3833617 58.080079,0 60.127701,0" id="O"></path>
                    <polygon id="L" points="27 1 31.797991 1 31.797991 24.2451064 45.7314 24.2451064 45.7314 28.3879574 27 28.3879574"></polygon>
                    <path d="M4.797991,24.4746809 L13.280761,24.4746809 C14.739671,24.4746809 15.872257,24.0985106 16.677965,23.3436809 C17.484227,22.5899574 17.887219,21.5211915 17.887219,20.1409787 C17.887219,18.7856596 17.484227,17.7431702 16.677965,17.0140638 C15.872257,16.2855106 14.739671,15.9217872 13.280761,15.9217872 L4.797991,15.9217872 L4.797991,24.4746809 Z M4.797991,12.4693191 L12.628389,12.4693191 C13.78035,12.4693191 14.739671,12.1429362 15.50746,11.4907234 C16.27525,10.8393404 16.659144,9.8989149 16.659144,8.6716596 C16.659144,7.290617 16.313169,6.3192128 15.622601,5.7563404 C14.93148,5.1942979 13.933409,4.9124468 12.628389,4.9124468 L4.797991,4.9124468 L4.797991,12.4693191 Z M0,1 L13.319787,1 C15.775937,1 17.746061,1.5625957 19.230712,2.6877872 C20.714533,3.8132553 21.456858,5.513766 21.456858,7.7898723 C21.456858,9.1700851 21.117248,10.3536383 20.439966,11.3374894 C19.761577,12.3221702 18.79506,13.0822553 17.541797,13.6199574 L17.541797,13.6965745 C19.230712,14.054766 20.509992,14.8538511 21.379913,16.0935532 C22.249834,17.3346383 22.684933,18.8882766 22.684933,20.7544681 C22.684933,21.828766 22.493124,22.8325319 22.109507,23.765766 C21.725612,24.6992766 21.123891,25.5052766 20.305451,26.182383 C19.486181,26.8603191 18.437182,27.3971915 17.157903,27.7932766 C15.877793,28.1899149 14.355776,28.3876809 12.590193,28.3876809 L0,28.3876809 L0,1 Z" id="B"></path>
                </g>
                <path d="M0,103.938319 L477.954331,103.938319 L477.954331,0 L0,0 L0,103.938319 Z M3.35928547,100.581 L474.594492,100.581 L474.594492,3.35676596 L122.952445,3.35676596 L3.35928547,3.35676596 L3.35928547,100.581 Z" id="badge" fill="#43B5EF"></path>
                <g id="bftxcp-token">
                    <g id="Token-Mark">
                        <rect id="Blue-Tile" fill="#43B5EF" x="0" y="0" width="104" height="104"></rect>
                        <g id="[BFT:XCP]" transform="translate(26.208000, 24.128000)" fill="#FFFFFF">
                            <polygon id="B-Dot" points="60.1483024 41.8424725 60.1483024 53.3040666 48.4717194 53.3040666 48.4717194 41.8424725"></polygon>
                            <path d="M25.0634105,0.151933427 C27.588565,0.151933427 29.8966246,0.37132503 31.9786475,0.819892127 C34.0598424,1.2676301 35.8428011,1.99794045 37.3313323,3.01546632 C38.8175453,4.03282648 39.9697535,5.38715081 40.7871292,7.0757863 C41.605333,8.76160251 42.0136896,10.8417599 42.0136896,13.3258764 C42.0136896,16.0048419 41.4081095,18.2377277 40.1952936,20.0263578 C38.9751915,21.8144905 37.1801443,23.2769353 34.8030316,24.4163455 C38.0745215,25.3648866 40.5180378,27.0114016 42.1221542,29.3693223 C43.7360407,31.7274088 44.541328,34.5718715 44.541328,37.8974037 C44.541328,40.5776957 44.0230164,42.8951542 42.9791071,44.8529298 C41.9408278,46.8223135 40.542049,48.4215672 38.7778026,49.6594797 C37.0231605,50.9015379 35.0139993,51.813265 32.757274,52.409254 C30.506179,53.005243 28.1871899,53.3040666 25.8100773,53.3040666 L0.083441777,53.3040666 L0.083441777,0.152099266 L25.0634105,0.152099266 L25.0634105,0.151933427 Z M23.5771976,21.6635862 C25.6617043,21.6635862 27.3681584,21.1692504 28.7063295,20.1752721 C30.0436728,19.1866004 30.7148283,17.5699348 30.7148283,15.3343958 C30.7148283,14.0999656 30.4884604,13.0791232 30.0436728,12.2856319 C29.5997133,11.4952916 29.0019161,10.8694533 28.26237,10.4217155 C27.5165312,9.98177135 26.6602407,9.6670283 25.6971417,9.49290785 C24.7269221,9.32210417 23.7273921,9.23255664 22.6819924,9.23255664 L11.7590312,9.23255664 L11.7590312,21.6635862 L23.5771976,21.6635862 L23.5771976,21.6635862 Z M24.2442133,44.2229459 C25.3851611,44.2229459 26.4765962,44.1103481 27.5157032,43.8909565 C28.5579567,43.6642685 29.475186,43.2918168 30.2677224,42.7702849 C31.0552911,42.2504114 31.6900159,41.5451413 32.1606361,40.6504946 C32.6296004,39.7541894 32.8721968,38.6156085 32.8721968,37.2252992 C32.8721968,34.495756 32.1025124,32.5484276 30.562978,31.3775099 C29.0300673,30.2153812 26.9950733,29.6316635 24.4671037,29.6316635 L11.7591968,29.6316635 L11.7591968,44.2229459 L24.2442133,44.2229459 L24.2442133,44.2229459 Z" id="Blockfreight™"></path>
                        </g>
                    </g>
                </g>
            </g>
        </g>
    </g>
</svg>