<?xml version="1.0" encoding="UTF-8"?>
<svg width="479px" height="104px" viewBox="0 0 479 104" version="1.1" xmlns="http://www.w3.org/2000/svg" xmlns:xlink="http://www.w3.org/1999/xlink">
    <!-- Generator: Sketch 40.3 (33839) - http://www.bohemiancoding.com/sketch -->
    <title>Untitled 8</title>
    <desc>Created with Sketch.</desc>
    <defs></defs>
    <g id="Page-1" stroke="none" stroke-width="1" fill="none" fill-rule="evenodd">
        <rect id="Rectangle" fill="#FFFFFF" x="1" y="0" width="478" height="104"></rect>
        <polygon id="Fill-61-Copy" fill="#FFFFFF" points="4 102.581553 104.650138 102.581553 104.650138 2 4 2"></polygon>
        <path d="M48.3727817,73.4648511 C49.7583451,73.4648511 51.0849543,73.3290426 52.3473503,73.0577021 C53.6141749,72.7844255 54.7265559,72.3355106 55.69252,71.7018298 C56.6548859,71.0736809 57.4218448,70.2167872 57.9956109,69.1303191 C58.5660556,68.0444043 58.855568,66.6594894 58.855568,64.9755745 C58.855568,61.6641702 57.9214337,59.300383 56.0537186,57.8828298 C54.1862803,56.4716383 51.7143532,55.7627234 48.6431963,55.7627234 L33.1905385,55.7627234 L33.1905385,73.4648511 L48.3727817,73.4648511 Z M47.5596005,46.0995745 C50.0907585,46.0995745 52.1677197,45.4993617 53.7946358,44.294234 C55.4223822,43.0902128 56.2363937,41.1310851 56.2363937,38.4229362 C56.2363937,36.9212979 55.9637649,35.6840851 55.4223822,34.7209787 C54.8793387,33.7578723 54.1558344,33.0047021 53.2518691,32.4614681 C52.3473503,31.921 51.3077626,31.5462128 50.1347666,31.3324043 C48.9603868,31.1249574 47.7406149,31.0190213 46.47296,31.0190213 L33.1905385,31.0190213 L33.1905385,46.0995745 L47.5596005,46.0995745 Z M49.3669774,20 C52.4384111,20 55.2416445,20.2696809 57.7689276,20.8131915 C60.3003625,21.3536596 62.4694916,22.2423617 64.2768686,23.4768085 C66.0859062,24.7107021 67.4858622,26.3534043 68.478674,28.3999362 C69.4745304,30.4448085 69.9705211,32.9748298 69.9705211,35.9828085 C69.9705211,39.2355745 69.2337313,41.9434468 67.7587678,44.113617 C66.2799294,46.2804681 64.097238,48.0575957 61.2054349,49.4411277 C65.1816642,50.5845745 68.1501355,52.5854681 70.1058668,55.4471277 C72.0649195,58.3065745 73.0436155,61.7562766 73.0436155,65.7898723 C73.0436155,69.0384894 72.4122791,71.8558936 71.1468384,74.2299149 C69.8816746,76.6141702 68.1780903,78.5553191 66.0405142,80.0588936 C63.902938,81.5655106 61.4611801,82.6749362 58.7191152,83.3954681 C55.9781575,84.1204255 53.1613619,84.4819362 50.2712195,84.4819362 L19,84.4819362 L19,20 L49.3669774,20 Z" id="Fill-63-Copy" fill="#30B3B8"></path>
        <polygon id="Fill-64-Copy" fill="#30B3B8" points="78 84.9058511 92.1908153 84.9058511 92.1908153 71 78 71"></polygon>
        <path d="M141.797991,39.4746809 L150.280761,39.4746809 C151.739671,39.4746809 152.872257,39.0985106 153.677965,38.3436809 C154.484227,37.5899574 154.887219,36.5211915 154.887219,35.1409787 C154.887219,33.7856596 154.484227,32.7431702 153.677965,32.0140638 C152.872257,31.2855106 151.739671,30.9217872 150.280761,30.9217872 L141.797991,30.9217872 L141.797991,39.4746809 Z M141.797991,27.4693191 L149.628389,27.4693191 C150.78035,27.4693191 151.739671,27.1429362 152.50746,26.4907234 C153.27525,25.8393404 153.659144,24.8989149 153.659144,23.6716596 C153.659144,22.290617 153.313169,21.3192128 152.622601,20.7563404 C151.93148,20.1942979 150.933409,19.9124468 149.628389,19.9124468 L141.797991,19.9124468 L141.797991,27.4693191 Z M137,16 L150.319787,16 C152.775937,16 154.746061,16.5625957 156.230712,17.6877872 C157.714533,18.8132553 158.456858,20.513766 158.456858,22.7898723 C158.456858,24.1700851 158.117248,25.3536383 157.439966,26.3374894 C156.761577,27.3221702 155.79506,28.0822553 154.541797,28.6199574 L154.541797,28.6965745 C156.230712,29.054766 157.509992,29.8538511 158.379913,31.0935532 C159.249834,32.3346383 159.684933,33.8882766 159.684933,35.7544681 C159.684933,36.828766 159.493124,37.8325319 159.109507,38.765766 C158.725612,39.6992766 158.123891,40.5052766 157.305451,41.182383 C156.486181,41.8603191 155.437182,42.3971915 154.157903,42.7932766 C152.877793,43.1899149 151.355776,43.3876809 149.590193,43.3876809 L137,43.3876809 L137,16 Z" id="Fill-65-Copy" fill="#5BC0ED"></path>
        <polygon id="Fill-66-Copy" fill="#5BC0ED" points="164 16 168.797991 16 168.797991 39.2451064 182.7314 39.2451064 182.7314 43.3879574 164 43.3879574"></polygon>
        <path d="M197.127701,18.9118936 C195.668791,18.9118936 194.408056,19.2061915 193.346602,19.7945106 C192.284595,20.383383 191.420763,21.1697447 190.755936,22.1538723 C190.090002,23.138 189.597333,24.257383 189.278205,25.5095319 C188.957416,26.7633404 188.797991,28.0414894 188.797991,29.3459149 C188.797991,30.6500638 188.957416,31.9290426 189.278205,33.1817447 C189.597333,34.4347234 190.090002,35.5541064 190.755936,36.5385106 C191.420763,37.5226383 192.284595,38.3092766 193.346602,38.8970426 C194.408056,39.4859149 195.668791,39.7796596 197.127701,39.7796596 C198.586335,39.7796596 199.845963,39.4859149 200.908247,38.8970426 C201.969977,38.3092766 202.833532,37.5226383 203.499466,36.5385106 C204.16457,35.5541064 204.656962,34.4347234 204.976921,33.1817447 C205.296602,31.9290426 205.456581,30.6500638 205.456581,29.3459149 C205.456581,28.0414894 205.296602,26.7633404 204.976921,25.5095319 C204.656962,24.257383 204.16457,23.138 203.499466,22.1538723 C202.833532,21.1697447 201.969977,20.383383 200.908247,19.7945106 C199.845963,19.2061915 198.586335,18.9118936 197.127701,18.9118936 M197.127701,15 C199.174493,15 201.010102,15.3833617 202.635634,16.1503617 C204.260613,16.9179149 205.635382,17.9529362 206.761878,19.2570851 C207.887545,20.5617872 208.751377,22.083617 209.352821,23.8220213 C209.953712,25.5615319 210.254849,27.4022766 210.254849,29.3459149 C210.254849,31.315 209.953712,33.1684681 209.352821,34.9074255 C208.751377,36.6469362 207.887545,38.1682128 206.761878,39.4723617 C205.635382,40.7765106 204.260613,41.8065532 202.635634,42.56 C201.010102,43.3142766 199.174493,43.6921064 197.127701,43.6921064 C195.080079,43.6921064 193.244193,43.3142766 191.619215,42.56 C189.994236,41.8065532 188.618637,40.7765106 187.49297,39.4723617 C186.36675,38.1682128 185.503195,36.6469362 184.902305,34.9074255 C184.300584,33.1684681 184,31.315 184,29.3459149 C184,27.4022766 184.300584,25.5615319 184.902305,23.8220213 C185.503195,22.083617 186.36675,20.5617872 187.49297,19.2570851 C188.618637,17.9529362 189.994236,16.9179149 191.619215,16.1503617 C193.244193,15.3833617 195.080079,15 197.127701,15" id="Fill-67-Copy" fill="#5BC0ED"></path>
        <path d="M233.959475,24.3588936 C233.754381,23.5664468 233.472895,22.8373404 233.115018,22.1726809 C232.75631,21.5080213 232.295471,20.9327021 231.732776,20.4464468 C231.170081,19.9610213 230.510513,19.5834681 229.756563,19.3148936 C229.001229,19.0468723 228.125218,18.9118936 227.126871,18.9118936 C225.668514,18.9118936 224.407225,19.2061915 223.345772,19.7945106 C222.284042,20.383383 221.42021,21.1697447 220.755383,22.1535957 C220.089726,23.138 219.597056,24.257383 219.277651,25.5092553 C218.957416,26.7630638 218.797714,28.0412128 218.797714,29.3456383 C218.797714,30.6497872 218.957416,31.928766 219.277651,33.1814681 C219.597056,34.4347234 220.089726,35.5541064 220.755383,36.538234 C221.42021,37.5226383 222.284042,38.3092766 223.345772,38.8970426 C224.407225,39.4856383 225.668514,39.7796596 227.126871,39.7796596 C228.201887,39.7796596 229.147922,39.5937872 229.967193,39.2225957 C230.786186,38.8525106 231.489486,38.3410851 232.078752,37.6885957 C232.66691,37.036383 233.12775,36.2757447 233.460163,35.4061277 C233.792577,34.5378936 234.010403,33.6032766 234.113089,32.6061489 L238.795939,32.6061489 C238.693253,34.242766 238.340911,35.7391489 237.740021,37.0936383 C237.1383,38.4497872 236.325949,39.6203404 235.302968,40.6039149 C234.27888,41.5888723 233.076545,42.3495106 231.694857,42.886383 C230.312615,43.4235319 228.790045,43.6918298 227.126871,43.6918298 C225.079525,43.6918298 223.243363,43.314 221.618938,42.56 C219.993683,41.8065532 218.618083,40.776234 217.492694,39.4723617 C216.366474,38.1682128 215.502642,36.6469362 214.901751,34.9074255 C214.30003,33.1684681 214,31.3147234 214,29.3456383 C214,27.4022766 214.30003,25.5615319 214.901751,23.8220213 C215.502642,22.0833404 216.366474,20.5615106 217.492694,19.2570851 C218.618083,17.9529362 219.993683,16.9179149 221.618938,16.1500851 C223.243363,15.3833617 225.079525,15 227.126871,15 C228.662173,15 230.107797,15.210766 231.464299,15.6325745 C232.8208,16.0546596 234.017046,16.6681489 235.053312,17.4735957 C236.089578,18.2795957 236.92767,19.2570851 237.56731,20.4082766 C238.206673,21.5591915 238.60413,22.876617 238.757466,24.3588936 L233.959475,24.3588936 Z" id="Fill-68-Copy" fill="#5BC0ED"></path>
        <polygon id="Fill-69-Copy" fill="#5BC0ED" points="243 16 247.797991 16 247.797991 28.4664468 260.004013 16 265.914938 16 254.975741 26.931617 266.68245 43.3879574 260.695134 43.3879574 251.712775 30.3077447 247.797991 34.1814681 247.797991 43.3879574 243 43.3879574"></polygon>
        <polygon id="Fill-70-Copy" fill="#5BC0ED" points="269 16 287.923209 16 287.923209 20.1428511 273.797991 20.1428511 273.797991 27.3155319 286.196098 27.3155319 286.196098 31.2282553 273.797991 31.2282553 273.797991 43.3879574 269 43.3879574"></polygon>
        <path d="M296.797991,28.4664468 L304.666862,28.4664468 C306.201887,28.4664468 307.366579,28.1018936 308.160109,27.3730638 C308.952808,26.644234 309.349712,25.5516809 309.349712,24.0934681 C309.349712,23.2246809 309.220732,22.5146596 308.965817,21.9645106 C308.710072,21.4149149 308.357453,20.9867447 307.909899,20.6794468 C307.462345,20.3727021 306.950855,20.1685745 306.374598,20.0659574 C305.798894,19.9641702 305.204093,19.9124468 304.58964,19.9124468 L296.797991,19.9124468 L296.797991,28.4664468 Z M292,16 L305.088675,16 C308.107797,16 310.372693,16.6522128 311.882807,17.9563617 C313.392368,19.2599574 314.147702,21.0766383 314.147702,23.4028085 C314.147702,24.7069574 313.955617,25.7884468 313.571999,26.644234 C313.188104,27.5014043 312.73972,28.1915106 312.228229,28.715383 C311.716185,29.2400851 311.211061,29.6165319 310.712025,29.8472128 C310.213267,30.0773404 309.848193,30.2308511 309.618189,30.3074681 L309.618189,30.3843617 C310.026994,30.4360851 310.468735,30.5635957 310.942584,30.7677234 C311.415878,30.9729574 311.857343,31.2987872 312.266425,31.7460426 C312.675507,32.1938511 313.01567,32.7752553 313.28387,33.4916383 C313.552624,34.2077447 313.68714,35.1019787 313.68714,36.176 C313.68714,37.7871702 313.807816,39.2517447 314.05166,40.5688936 C314.294396,41.885766 314.671648,42.8256383 315.183969,43.3876809 L310.040279,43.3876809 C309.682402,42.7996383 309.470665,42.1479787 309.407282,41.4313191 C309.343069,40.7154894 309.310962,40.0256596 309.310962,39.3601702 C309.310962,38.1071915 309.234294,37.0265319 309.080958,36.1190213 C308.927345,35.2115106 308.645305,34.4569574 308.2365,33.8553617 C307.826865,33.2551489 307.270259,32.8142553 306.56696,32.5321277 C305.862554,32.2511064 304.960526,32.1108723 303.860323,32.1108723 L296.797991,32.1108723 L296.797991,43.3876809 L292,43.3876809 L292,16 Z" id="Fill-71-Copy" fill="#5BC0ED"></path>
        <polygon id="Fill-72-Copy" fill="#5BC0ED" points="319 16 338.729194 16 338.729194 20.1428511 323.797991 20.1428511 323.797991 27.3155319 337.615706 27.3155319 337.615706 31.2282553 323.797991 31.2282553 323.797991 39.2451064 338.997671 39.2451064 338.997671 43.3879574 319 43.3879574"></polygon>
        <polygon id="Fill-73-Copy" fill="#5BC0ED" points="343 43.3879574 347.797991 43.3879574 347.797991 16 343 16"></polygon>
        <path d="M377.18011,43.039617 L374.109507,43.039617 L373.380467,39.8175532 C372.100357,41.2752128 370.8208,42.285617 369.541521,42.8482128 C368.261964,43.4099787 366.791152,43.6918298 365.127978,43.6918298 C363.080356,43.6918298 361.244193,43.314 359.619492,42.56 C357.994236,41.8065532 356.619191,40.776234 355.493247,39.4723617 C354.367027,38.1682128 353.503195,36.6469362 352.902305,34.9074255 C352.300584,33.1684681 352,31.3147234 352,29.3456383 C352,27.4022766 352.300584,25.5615319 352.902305,23.8220213 C353.503195,22.0833404 354.367027,20.5615106 355.493247,19.2570851 C356.619191,17.9529362 357.994236,16.9179149 359.619492,16.1500851 C361.244193,15.3833617 363.080356,15 365.127978,15 C366.611245,15 368.025594,15.1980426 369.368533,15.5941277 C370.712302,15.990766 371.908271,16.5790851 372.958376,17.3582553 C374.007098,18.1388085 374.877296,19.1174043 375.568417,20.2932128 C376.259261,21.4692979 376.694083,22.8251702 376.87316,24.3588936 L372.19031,24.3588936 C372.062161,23.464383 371.787595,22.6780213 371.364951,22.0003617 C370.94286,21.3227021 370.411442,20.7534681 369.772079,20.2932128 C369.131885,19.8329574 368.415854,19.4874894 367.622324,19.2570851 C366.829625,19.027234 365.997346,18.9118936 365.127978,18.9118936 C363.669345,18.9118936 362.408332,19.2061915 361.347156,19.7945106 C360.284872,20.383383 359.421594,21.1697447 358.755936,22.1535957 C358.090002,23.138 357.597333,24.257383 357.278205,25.5092553 C356.957693,26.7630638 356.798544,28.0412128 356.798544,29.3456383 C356.798544,30.6497872 356.957693,31.928766 357.278205,33.1814681 C357.597333,34.4347234 358.090002,35.5541064 358.755936,36.538234 C359.421594,37.5226383 360.284872,38.309 361.347156,38.896766 C362.408332,39.4856383 363.669345,39.7796596 365.127978,39.7796596 C366.356053,39.8051064 367.44297,39.6455106 368.390113,39.299766 C369.336426,38.9545745 370.137152,38.4555957 370.78897,37.803383 C371.442449,37.1514468 371.934012,36.3526383 372.266979,35.4061277 C372.599392,34.4607234 372.778469,33.4113191 372.804486,32.2609574 L365.511873,32.2609574 L365.511873,28.6165319 L377.18011,28.6165319 L377.18011,43.039617 Z" id="Fill-74-Copy" fill="#5BC0ED"></path>
        <polygon id="Fill-75-Copy" fill="#5BC0ED" points="383 16 387.798268 16 387.798268 26.8937234 400.273043 26.8937234 400.273043 16 405.071034 16 405.071034 43.3879574 400.273043 43.3879574 400.273043 31.0365745 387.798268 31.0365745 387.798268 43.3879574 383 43.3879574"></polygon>
        <polygon id="Fill-76-Copy" fill="#5BC0ED" points="408 16 430.186175 16 430.186175 20.1428511 421.4734 20.1428511 421.4734 43.3879574 416.674856 43.3879574 416.674856 20.1428511 408 20.1428511"></polygon>
        <path d="M210.797991,85.4749574 L219.280761,85.4749574 C220.739394,85.4749574 221.872257,85.0985106 222.677688,84.3436809 C223.48395,83.590234 223.886943,82.5214681 223.886943,81.1412553 C223.886943,79.7859362 223.48395,78.7431702 222.677688,78.0143404 C221.872257,77.2857872 220.739394,76.9215106 219.280761,76.9215106 L210.797991,76.9215106 L210.797991,85.4749574 Z M210.797991,73.4690426 L218.628389,73.4690426 C219.779796,73.4690426 220.739394,73.1426596 221.506907,72.4907234 C222.274696,71.8390638 222.658591,70.8991915 222.658591,69.6711064 C222.658591,68.2908936 222.313169,67.3192128 221.622047,66.7560638 C220.93148,66.1940213 219.933409,65.9127234 218.628389,65.9127234 L210.797991,65.9127234 L210.797991,73.4690426 Z M206,62 L219.319233,62 C221.775937,62 223.746061,62.5628723 225.230712,63.6877872 C226.714533,64.8135319 227.456858,66.5140426 227.456858,68.7890426 C227.456858,70.1703617 227.117525,71.3533617 226.43969,72.337766 C225.761301,73.3224468 224.795336,74.0825319 223.541244,74.6196809 L223.541244,74.6962979 C225.230712,75.0550426 226.509992,75.8541277 227.38019,77.0938298 C228.249834,78.3351915 228.68521,79.8882766 228.68521,81.7550213 C228.68521,82.8290426 228.493124,83.8328085 228.10923,84.7660426 C227.725335,85.6995532 227.123891,86.5052766 226.304898,87.1826596 C225.485904,87.8605957 224.437182,88.3969149 223.157626,88.793 C221.877516,89.1901915 220.355223,89.3879574 218.589917,89.3879574 L206,89.3879574 L206,62 Z" id="Fill-77-Copy" fill="#5BC0ED"></path>
        <polygon id="Fill-78-Copy" fill="#5BC0ED" points="233 62 251.923486 62 251.923486 66.1425745 237.797991 66.1425745 237.797991 73.3152553 250.195822 73.3152553 250.195822 77.2285319 237.797991 77.2285319 237.797991 89.388234 233 89.388234"></polygon>
        <polygon id="Fill-79-Copy" fill="#5BC0ED" points="253 62 275.185898 62 275.185898 66.1425745 266.473123 66.1425745 266.473123 89.388234 261.674579 89.388234 261.674579 66.1425745 253 66.1425745"></polygon>
        <path d="M275,89.4095532 L280.336052,89.4095532 L280.336052,84.2302979 L275,84.2302979 L275,89.4095532 Z M275,75.1781489 L280.336052,75.1781489 L280.336052,70 L275,70 L275,75.1781489 Z" id="Fill-80-Copy" fill="#5BC0ED"></path>
        <polygon id="Fill-81-Copy" fill="#5BC0ED" points="283.652372 62 289.372042 62 295.589917 71.6659149 302.076545 62 307.450793 62 298.392043 75.1955532 308.102888 89.388234 302.269185 89.388234 295.436303 78.915766 288.489112 89.388234 283 89.388234 292.711399 75.1955532"></polygon>
        <path d="M328.960029,70.3594468 C328.754935,69.567 328.473726,68.8381702 328.115295,68.1726809 C327.756587,67.5085745 327.296024,66.9329787 326.733606,66.447 C326.170358,65.9612979 325.511067,65.5837447 324.75684,65.3154468 C324.001782,65.0471489 323.125218,64.9118936 322.127424,64.9118936 C320.668791,64.9118936 319.408056,65.2064681 318.346879,65.7945106 C317.284595,66.3836596 316.42104,67.1694681 315.755383,68.1535957 C315.089726,69.1385532 314.597056,70.2579362 314.278205,71.5100851 C313.957693,72.7627872 313.798821,74.041766 313.798821,75.3461915 C313.798821,76.6497872 313.957693,77.9290426 314.278205,79.1817447 C314.597056,80.4352766 315.089726,81.5541064 315.755383,82.5387872 C316.42104,83.5229149 317.284595,84.3092766 318.346879,84.8975957 C319.408056,85.4859149 320.668791,85.7799362 322.127424,85.7799362 C323.202717,85.7799362 324.148476,85.594617 324.968023,85.2228723 C325.786463,84.8525106 326.490039,84.3405319 327.079582,83.6888723 C327.667187,83.0366596 328.12775,82.2765745 328.460717,81.4069574 C328.79313,80.5378936 329.011233,79.6035532 329.113365,78.6064255 L333.796215,78.6064255 C333.694083,80.2433191 333.342019,81.7394255 332.740851,83.0941915 C332.13913,84.4500638 331.326226,85.620617 330.303522,86.6044681 C329.279434,87.5888723 328.077099,88.3500638 326.694857,88.886383 C325.313169,89.4238085 323.790876,89.6921064 322.127424,89.6921064 C320.080079,89.6921064 318.243917,89.3142766 316.619492,88.5602766 C314.993683,87.8071064 313.618637,86.7765106 312.493247,85.4729149 C311.36675,84.1684894 310.503195,82.6472128 309.902305,80.9079787 C309.300584,79.1692979 309,77.3152766 309,75.3461915 C309,73.4031064 309.300584,71.5618085 309.902305,69.8225745 C310.503195,68.0833404 311.36675,66.5617872 312.493247,65.2576383 C313.618637,63.9534894 314.993683,62.9181915 316.619492,62.1506383 C318.243917,61.3836383 320.080079,61 322.127424,61 C323.662726,61 325.108074,61.2110426 326.465129,61.6325745 C327.8208,62.0552128 329.017599,62.6687021 330.053589,63.4741489 C331.089855,64.2795957 331.9285,65.2576383 332.56814,66.4082766 C333.207503,67.5594681 333.60413,68.8763404 333.75802,70.3594468 L328.960029,70.3594468 Z" id="Fill-82-Copy" fill="#5BC0ED"></path>
        <path d="M343.798268,74.9654255 L350.822958,74.9654255 C351.359912,74.9654255 351.910152,74.8885319 352.473123,74.7352979 C353.035818,74.5815106 353.553675,74.3322979 354.0278,73.9865532 C354.500818,73.6421915 354.884712,73.1816596 355.179207,72.606617 C355.473148,72.0307447 355.620948,71.3082766 355.620948,70.4389362 C355.620948,69.5438723 355.492246,68.8028723 355.2365,68.2137234 C354.980478,67.626234 354.635333,67.1587872 354.200234,66.8133191 C353.765412,66.4684043 353.2661,66.2327447 352.703682,66.1044043 C352.14071,65.976617 351.538435,65.9127234 350.899349,65.9127234 L343.798268,65.9127234 L343.798268,74.9654255 Z M339,62 L351.091158,62 C353.035818,62 354.622878,62.2815745 355.850676,62.843617 C357.079028,63.406766 358.025895,64.1095957 358.691829,64.9540426 C359.356379,65.7971064 359.810576,66.7184468 360.053866,67.7152979 C360.296879,68.7124255 360.418662,69.6329362 360.418662,70.4776596 C360.418662,71.321 360.296879,72.2351489 360.053866,73.2195532 C359.810576,74.2047872 359.356379,75.118383 358.691829,75.9622766 C358.025895,76.8061702 357.079028,77.5034681 355.850676,78.0533404 C354.622878,78.6032128 353.035818,78.8778723 351.091158,78.8778723 L343.798268,78.8778723 L343.798268,89.388234 L339,89.388234 L339,62 Z" id="Fill-83-Copy" fill="#5BC0ED"></path>
        <path d="M1,103.938319 L478.954331,103.938319 L478.954331,0 L1,0 L1,103.938319 Z M4.35928547,100.581 L475.594492,100.581 L475.594492,3.35676596 L123.952445,3.35676596 L4.35928547,3.35676596 L4.35928547,100.581 Z" id="Fill-84-Copy" fill="#5BC0ED"></path>
        <rect id="Blue-Tile-Copy" fill="#5BC0ED" x="1" y="0" width="104.045998" height="103.971154"></rect>
        <polygon id="B-Dot-Copy" fill="#FFFFFF" points="92.6555599 82.3755817 79 82.3755817 79 69 92.6555599 69"></polygon>
        <path d="M59.3008861,20.779502 C61.7348072,21.3020084 63.8199463,22.1542743 65.5607576,23.3417183 C67.2988577,24.5289688 68.6463452,26.1094537 69.6022518,28.0800767 C70.5591267,30.0474099 71.0366927,32.4749356 71.0366927,35.3738782 C71.0366927,38.5002078 70.3284774,41.1059662 68.9101103,43.1932823 C67.4832222,45.2800178 65.3839459,46.9866783 62.6039541,48.3163602 C66.4299045,49.4232996 69.287554,51.3447682 71.1635401,54.0964414 C73.0509522,56.8483082 73.9927216,60.1677716 73.9927216,64.048639 C73.9927216,67.1765168 73.3865652,69.8809709 72.1657315,72.1656782 C70.9514822,74.4639321 69.3156347,76.3302473 67.2523792,77.7748806 C65.200356,79.2243518 62.8506771,80.2883296 60.2114763,80.9838436 C57.5788599,81.6793576 54.8668428,82.0280822 52.086851,82.0280822 L22,82.0280822 L22,20.0001935 L51.2136373,20.0001935 C54.1667613,20 56.8659968,20.2560281 59.3008861,20.779502 Z M49.4755372,45.1039138 C51.9133315,45.1039138 53.9089996,44.5270281 55.4739674,43.367064 C57.037967,42.2132926 57.8228717,40.3266577 57.8228717,37.7178029 C57.8228717,36.2772336 57.5581382,35.0859191 57.037967,34.1599218 C56.5187641,33.2376013 55.8196508,32.5072536 54.9547645,31.9847473 C54.0825191,31.4713364 53.0811023,31.1040338 51.9547748,30.9008369 C50.8201198,30.7015104 49.651187,30.5970091 48.4286103,30.5970091 L35.6543979,30.5970091 L35.6543979,45.1039138 L49.4755372,45.1039138 L49.4755372,45.1039138 Z M50.2556004,71.4304925 C51.589919,71.4304925 52.8663332,71.2990918 54.0815508,71.0430637 C55.3004479,70.7785207 56.3731316,70.3438728 57.2999892,69.7352497 C58.221037,69.1285618 58.9633365,68.3055175 59.5137187,67.2614725 C60.0621643,66.2154922 60.3458764,64.8867779 60.3458764,63.264299 C60.3458764,60.0789455 59.4457439,57.80643 57.6452853,56.4399791 C55.8525731,55.0837849 53.4726832,54.4025914 50.516267,54.4025914 L35.6545916,54.4025914 L35.6545916,71.4304925 L50.2556004,71.4304925 L50.2556004,71.4304925 Z" id="Blockfreight™-Copy" fill="#FFFFFF"></path>
    </g>
</svg>